<?xml version="1.0"?>
<svg xmlns:rdf="http://www.w3.org/1999/02/22-rdf-syntax-ns#" xmlns="http://www.w3.org/2000/svg" xmlns:cc="http://web.resource.org/cc/" xmlns:xlink="http://www.w3.org/1999/xlink" xmlns:dc="http://purl.org/dc/elements/1.1/" xmlns:svg="http://www.w3.org/2000/svg" id="svg2" viewBox="0 0 777.17 693.11" version="1.0">
  <defs id="defs3">
    <linearGradient id="linearGradient12215">
      <stop id="stop12217" stop-color="#fff" offset="0"/>
      <stop id="stop13871" stop-color="#fff" stop-opacity=".49804" offset=".66667"/>
      <stop id="stop12219" stop-color="#fff" stop-opacity="0" offset="1"/>
    </linearGradient>
    <linearGradient id="linearGradient18480" y2="297.96" xlink:href="#linearGradient12215" gradientUnits="userSpaceOnUse" x2="394.95" gradientTransform="matrix(1.0229 0 0 .97765 66.765 2.2327)" y1="715.18" x1="362.6"/>
    <linearGradient id="linearGradient18482" y2="204.3" xlink:href="#linearGradient12215" gradientUnits="userSpaceOnUse" x2="498.62" gradientTransform="matrix(1.0229 0 0 .97765 66.143 2.3382)" y1="-161.83" x1="511.14"/>
  </defs>
  <g id="layer1" transform="translate(-130.91 -4.1339)">
    <g id="g18464" transform="matrix(1.2439 0 0 1.2668 -71.432 -55.179)">
      <path id="path1539" d="m519.62 404.32l-114.85-51.9-114.81 55.42 13.87-125.26-88.19-92.07 123.42-25.51 60.31-112.33 62.4 109.5 125.46 22.64-84.85 93.19 17.24 126.32z" transform="matrix(1.617 0 0 1.4615 -172.71 -18.958)" stroke="#000" stroke-linecap="round" stroke-width="2.1076" fill="#ce1904"/>
      <path id="path12223" fill="url(#linearGradient18480)" transform="matrix(1.5762 0 0 1.4615 -156.65 -25.111)" d="m519.62 404.32l-114.85-51.9-114.81 55.42 13.87-125.26-88.19-92.07 123.42-25.51 60.31-112.33 62.4 109.5 125.46 22.64-84.85 93.19 17.24 126.32z"/>
      <path id="path11441" fill="url(#linearGradient18482)" transform="matrix(1.591 0 0 1.3956 -162.61 -10.613)" d="m519.62 404.32l-114.85-51.9-114.81 55.42 13.87-125.26-88.19-92.07 123.42-25.51 60.31-112.33 62.4 109.5 125.46 22.64-84.85 93.19 17.24 126.32z"/>
      <path id="path8387" d="m413.79 224.29c24.65-27.66 30.35-30.59 33.54-29.85-0.02 0.01 7.01 10.23 7.02 10.21-17.17 0.19-40.72 19.86-40.56 19.64z" fill-rule="evenodd"/>
      <path id="path9905" d="m536.28 228.13c-21.84-32.18-27.27-36.04-30.55-35.76 0.02 0.02-8.13 9.49-8.13 9.47 17.23 2.76 38.82 26.54 38.68 26.29z" fill-rule="evenodd"/>
      <g id="g10671" fill-rule="evenodd" transform="matrix(1.1543 0 0 1.1141 -73.516 -42.772)">
        <path id="path1543" d="m400.32 308.02c1 20.1 16.97 86.78 79.48 91.5 73.88 8.96 76.46-97.08 76.08-97.2 4.98 38.22-0.14 44.45 18.64 71.2 0.44 0.19-16.45-18.07-16.78-17.88-70.1 195.26-168.67 21.22-159.42-3-1.58 18.59-18.87 22.22-20.21 22.55 10.09-4.14 21.74-34.39 22.21-67.17z"/>
        <path id="path3821" d="m478.96 420.72c14.93-22.23 37.83-11.45 49.01-6.82-24.07 37.44-61.35 42.15-92.91 9.15 35.54-25.99 43.84-2.47 43.9-2.33z" stroke="#000" stroke-width="1px" fill="#fbabb5"/>
      </g>
      <path id="path4581" d="m475.1 266.9a15.094 40.172 0 1 1 -30.18 0 15.094 40.172 0 1 1 30.18 0z" transform="matrix(1.6601 0 0 1.1949 -316.94 -54.513)" stroke="#261b00" stroke-width="1.8627" fill="#fff"/>
      <path id="path6101" d="m475.1 266.9a15.094 40.172 0 1 1 -30.18 0 15.094 40.172 0 1 1 30.18 0z" transform="matrix(1.0127 0 0 .76592 -13.369 75.384)" stroke="#000" stroke-width="2.6283" fill="#fff"/>
      <path id="path6103" d="m475.1 266.9a15.094 40.172 0 1 1 -30.18 0 15.094 40.172 0 1 1 30.18 0z" transform="matrix(.71009 0 0 .49105 128.61 159.19)"/>
      <path id="path8379" d="m475.1 266.9a15.094 40.172 0 1 1 -30.18 0 15.094 40.172 0 1 1 30.18 0z" transform="matrix(1.6601 0 0 1.1949 -258.97 -55.557)" stroke="#261b00" stroke-width="1.8627" fill="#fffffe"/>
      <path id="path8381" d="m475.1 266.9a15.094 40.172 0 1 1 -30.18 0 15.094 40.172 0 1 1 30.18 0z" transform="matrix(1.0127 0 0 .76592 44.603 74.339)" stroke="#000" stroke-width="2.6283" fill="#fff"/>
      <path id="path8383" d="m475.1 266.9a15.094 40.172 0 1 1 -30.18 0 15.094 40.172 0 1 1 30.18 0z" transform="matrix(.71009 0 0 .49105 186.58 158.15)"/>
    </g>
  </g>
  <metadata>
    <rdf:RDF>
      <cc:Work>
        <dc:format>image/svg+xml</dc:format>
        <dc:type rdf:resource="http://purl.org/dc/dcmitype/StillImage"/>
        <cc:license rdf:resource="http://creativecommons.org/licenses/publicdomain/"/>
        <dc:publisher>
          <cc:Agent rdf:about="http://openclipart.org/">
            <dc:title>Openclipart</dc:title>
          </cc:Agent>
        </dc:publisher>
        <dc:title>Estrela do PT Sorindo</dc:title>
        <dc:date>2007-07-27T14:58:16</dc:date>
        <dc:description>cartoon, cartoon, clip art, clipart, food, food, icon, icon, image, man, man, media, png, public domain, sing, sing, svg, tool, tool, </dc:description>
        <dc:source>http://openclipart.org/detail/4573/estrela-do-pt-sorindo-by-eltlims</dc:source>
        <dc:creator>
          <cc:Agent>
            <dc:title>eltlims</dc:title>
          </cc:Agent>
        </dc:creator>
        <dc:subject>
          <rdf:Bag>
            <rdf:li>cartoon</rdf:li>
            <rdf:li>clip art</rdf:li>
            <rdf:li>clipart</rdf:li>
            <rdf:li>food</rdf:li>
            <rdf:li>icon</rdf:li>
            <rdf:li>image</rdf:li>
            <rdf:li>man</rdf:li>
            <rdf:li>media</rdf:li>
            <rdf:li>png</rdf:li>
            <rdf:li>public domain</rdf:li>
            <rdf:li>sing</rdf:li>
            <rdf:li>svg</rdf:li>
            <rdf:li>tool</rdf:li>
          </rdf:Bag>
        </dc:subject>
      </cc:Work>
      <cc:License rdf:about="http://creativecommons.org/licenses/publicdomain/">
        <cc:permits rdf:resource="http://creativecommons.org/ns#Reproduction"/>
        <cc:permits rdf:resource="http://creativecommons.org/ns#Distribution"/>
        <cc:permits rdf:resource="http://creativecommons.org/ns#DerivativeWorks"/>
      </cc:License>
    </rdf:RDF>
  </metadata>
</svg>
