WindowMark<?xml version="1.0" encoding="UTF-8"?><svg xmlns="http://www.w3.org/2000/svg" viewBox="0 0 939.87 800.15"><defs><style>.d,.e{fill:#fff;}.e{font-family:ers, WindowMarkers;font-size:27.38px;}.f{fill:#fae07f;}.g{fill:#86aecb;}</style></defs><g id="a"><rect class="g" x="106.7" y="173.3" width="762.07" height="447.1" transform="translate(-137.65 331.47) rotate(-33.17)"/><rect class="f" x="61.23" y="160.27" width="779.05" height="454.08" transform="translate(-131.2 266.81) rotate(-28.97)"/><text class="e" transform="translate(295.85 771.37) rotate(-31.27)"><tspan x="0" y="0">Get Help By Posting!</tspan></text></g><g id="b"><path class="d" d="M225.63,719.63v32.77c0,3.22,5,3.22,5,0v-32.77c0-3.22-5-3.22-5,0h0Z"/><path class="d" d="M244.39,731.29c-6.37,.75-12.74-.1-19.08-.74-3.1-.31-6.2-.58-9.32-.56-2.74,.01-7.38-.42-8.34,2.92-.89,3.1,3.93,4.42,4.82,1.33l.07-.25-.64,1.1c-.16,.2-.85,.15-.13,.11,.25-.02,.49-.04,.74-.06,.7-.06,1.39-.1,2.09-.12,1.4-.05,2.79-.03,4.19,.03,2.88,.12,5.76,.42,8.62,.73,5.64,.6,11.32,1.19,16.98,.52,1.34-.16,2.5-1.04,2.5-2.5,0-1.23-1.15-2.66-2.5-2.5h0Z"/></g><g id="c"/></svg>