<?xml version="1.0" encoding="UTF-8"?><svg id="a" xmlns="http://www.w3.org/2000/svg" xmlns:xlink="http://www.w3.org/1999/xlink" viewBox="0 0 86.33 69.24"><defs><style>.x{fill:#9a68ff;}.y,.a`{isolation:isolate;}.aa{clip-path:url(#o);}.ab{fill:#ff5bd9;}.ac{clip-path:url(#t);}.ad{opacity:.72;}.ae{clip-path:url(#d);}.af{fill:none;}.a`{fill:#fff;font-family:WindowMarkers, WindowMarkers;font-size:22px;}.ag{clip-path:url(#k);}.ah{clip-path:url(#g);}</style><clipPath id="d"><rect class="af" width="86.33" height="69.24"/></clipPath><clipPath id="g"><rect class="af" x="1.64" y="2.13" width="83.05" height="64.98" transform="translate(-1.75 2.31) rotate(-3)"/></clipPath><clipPath id="k"><rect class="af" width="86.33" height="69.24"/></clipPath><clipPath id="o"><rect class="af" x="69.13" y="42.88" width="8.3" height="8.52"/></clipPath><clipPath id="t"><rect class="af" x="44.75" y="9.86" width="23.33" height="30.67"/></clipPath></defs><g id="b" transform="translate(-1653.814 -46.189)"><g id="c" transform="translate(1653.814 46.189)"><g class="ae"><g id="e"><g id="f" transform="translate(0 0)"><g class="ah"><g id="h" transform="translate(0)"><path id="i" class="x" d="M84.27,51.93L50.4,5.53c-2.75-3.76-8.03-4.58-11.79-1.84-.83,.61-1.55,1.37-2.11,2.24L4.31,55.79c-2.53,3.91-1.41,9.14,2.51,11.67,1.49,.96,3.25,1.43,5.02,1.34l66.05-3.46c4.65-.25,8.23-4.22,7.98-8.87-.09-1.63-.65-3.21-1.61-4.53"/></g></g></g><g id="j" transform="translate(0 0)"><g class="ag"><g id="l"><g id="m" class="ad" transform="translate(69.13 42.882)"><g id="n"><g class="aa"><g id="p"><path id="q" class="ab" d="M75.99,46c-.16-.11-.32-.22-.47-.33,.2,.15,.39,.3,.59,.45-.52-.4-.98-.87-1.38-1.38l.45,.59c-.24-.32-.46-.66-.65-1.01-.58-1.02-1.73-1.57-2.89-1.38-.38,.02-.76,.14-1.08,.34l-.59,.45c-.35,.35-.61,.79-.74,1.28-.03,.26-.07,.51-.1,.77,0,.51,.14,1.02,.4,1.46,.15,.28,.32,.55,.51,.81,.32,.45,.66,.88,1.03,1.29,.21,.23,.44,.45,.67,.65,.42,.36,.87,.7,1.33,1.01,.32,.21,.69,.33,1.08,.34,1.15,.14,2.27-.4,2.89-1.38l.29-.69c.14-.5,.14-1.04,0-1.54l-.29-.69c-.25-.43-.61-.79-1.04-1.04"/></g></g></g></g><g id="r" class="ad" transform="translate(44.747 9.858)"><g id="s"><g class="ac"><g id="u"><path id="v" class="ab" d="M45.17,14.21c6.07,8.13,11.9,16.43,17.5,24.89,.83,1.35,2.58,1.81,3.97,1.04,1.37-.82,1.83-2.58,1.04-3.96-5.6-8.46-11.43-16.76-17.5-24.9-.84-1.34-2.58-1.8-3.97-1.04-1.23,.72-1.98,2.7-1.04,3.96"/></g></g></g></g></g></g></g></g></g></g><g id="w" class="y" transform="translate(1696.138 90.505)"><text class="a`" transform="translate(24.36 44.32)"><tspan x="0" y="0">Login</tspan></text></g></g></svg>