<?xml version="1.0" encoding="UTF-8"?><svg xmlns="http://www.w3.org/2000/svg" viewBox="0 0 154.68 154.68"><defs><style>.d{fill:#fff;}.e{fill:#ffb61f;}</style></defs><g id="a"/><g id="b"><path class="e" d="M144.81,125.16c5.17,8.44,1.3,15.35-8.6,15.35H16.48c-9.9,0-13.77-6.91-8.6-15.35L66.94,28.76c5.17-8.44,13.64-8.44,18.81,0l59.06,96.4Z"/><g><path class="d" d="M52.79,76.04h.32s.05,.03,.05,.08h.1c0-.05,.02-.08,.05-.08h.08s.05,.03,.05,.06v.02h-.1v.03c.03,.06,.25,.13,.65,.19,.05,.05,.13,.1,.24,.13,0,.05,.08,.13,.23,.24,0,.14,.02,.22,.05,.24v.23c-.05,.06-.1,.19-.13,.37-.01,0-.02,.01-.02,.03v.39l-.05,.08v.45l.05,.06v.5l.05,.06v1.18l.05,.06-.05,.08v2.1l.05,.08v1.1l.05,.06v.47l.05,.08v.78l.05,.06v.4c.05,0,.08,.02,.08,.05s-.03,.05-.08,.05v.05c.05,0,.08,.02,.08,.05v2.87l.05,.08v.82l-.05,.06v1.28s-.03,.05-.08,.05v1.39l-.05,.06v.52l-.05,.08v.45l-.05,.06v.42l-.05,.08s.05,.09,.05,.13h.03l.06-.05h.23s.19,.06,.52,.1c.01,.03,.03,.05,.05,.05h.23s.05,.02,.05,.05v.02s-.02,.06-.05,.06h-.05v-.06h-.32v-.06h-.1v.06c.06,0,.1,.02,.1,.06h.32v.05h.37l.08,.05h.27l.06-.05h1.84s.05,.02,.05,.05h-.52v.05h.52v-.05h.65l.06,.05h.13l.08-.05,.06,.05h.36s.05,.02,.05,.05c-.06,0-.11,.02-.15,.05h-.13l-.08-.05h-.06v.02s.05,.08,.05,.11h.32l.06,.05h.36l.08,.05h.19v-.05h.5l.06,.05h.36l.06,.05h.36l.06,.05,.08-.05h.13l.06,.05h.32v.05h-.89v-.05h-.05v.05s.05,.02,.05,.06h.6l.06,.06h.4l.13-.03s.02,.05,.06,.08h.36l.06,.05h.31v-.05h.06l.13,.1h.6l.13-.1h.05c.09,.09,.23,.14,.42,.16v.05h.18c.1,.04,.22,.16,.37,.36v.61c-.09,.14-.23,.24-.42,.31h-.18c0,.05-.08,.09-.23,.1-.18,.05-.3,.1-.36,.13h-.47l-.06,.05h-.45l-.08,.05h-.52l-.06,.05h-.13l-.28-.1h-.37l-.08-.05h-.57l-.08-.05h-.39l-.08-.06h-.34l-.08-.05h-.52s-.05-.02-.05-.06h-.37l-.08-.05h-.47l-.08-.05h-.34s-.13-.06-.32-.08c0-.01-.01-.02-.03-.02h-.34l-.08-.06h-2.41s-.05-.02-.05-.07h-.79l-.08-.05h-.52l-.06-.05h-.31l-.29-.1h-.26l-.06-.06h-.26s-.05-.02-.05-.06h-.15c-.23-.08-.39-.14-.5-.19h-.37l-.06-.05h-.26s-.05-.03-.05-.08h-.15c-.18-.11-.27-.28-.27-.52-.03,0-.05-.02-.05-.05v-.31l-.05-.06v-.03c.05-.16,.17-.24,.36-.24,.03-.03,.09-.05,.16-.05v-.06c-.1,0-.15-.02-.15-.05l.05-.02h.13s.05,.02,.05,.06h.05c0-.05,.08-.09,.23-.1,.01-.11,.04-.16,.1-.16v-.32l.05-.08v-.37l.05-.08v-.56l.05-.08v-1.03l.05-.08v-.57l.05-.08v-.99s.03-.05,.08-.05v-1.11c-.05,0-.08-.02-.08-.05v-3.15l-.05-.08v-1.26l-.05-.08v-1.53l-.05-.08v-2.28l-.05-.08v-.76l-.05-.08v-.18c-.05,0-.08-.02-.08-.05v-.6s.03-.05,.05-.05l.03,.05v.27c.06,0,.1,.02,.1,.05v.13h.05v-.23c-.06,0-.1-.02-.1-.05s.03-.05,.1-.05v-.29l-.05-.08v-.03l.05-.06v-.23l.05-.08v-.05h-.14s-.05-.02-.05-.05v-.27c.05-.1,.12-.15,.19-.15v-.1h-.1s-.02-.09-.05-.13c0-.02,.06-.05,.19-.1h.18s.05,.03,.05,.1h.05v-.21c.28-.23,.42-.36,.42-.4,.43-.13,.65-.21,.65-.24v-.03c-.1,0-.14-.02-.14-.05l.05-.03Zm-1.44,2.86v.05h.05v-.05h-.05Zm.05-1.52v.08h.05v-.08h-.05Zm.05,1.66c0,.09-.02,.13-.05,.13v.24h.15v-.06l-.1-.13v-.05h.05v-.13h-.05Zm0,.45v.73s.01,.06,.03,.1c-.02,.02-.03,.05-.03,.1v.11l.05,.08v.23h.13v-.08c-.05,0-.08-.02-.08-.05v-.66l-.05-.08v-.47h-.05Zm0,1.95v.45h.05v-.45h-.05Zm0,11.37v.23h.05c0-.06,.02-.12,.05-.16v-.07h-.1Zm0,.28v.1h.05v-.1h-.05Zm.05-12.16v.37h.05v-.37h-.05Zm0,1.16v.6h.05v-.6h-.05Zm0,.65v1.02h.05v1.34h.08v-.37l.05-.08-.05-.06v-.82h-.08v-1.02h-.05Zm.05,2.49v.15h.08v1.16l.05,.08v1.62l-.05,.06v.05l.05,.08v1.39l-.05,.08v1.02s-.03,.05-.08,.05v.74l-.05,.06v.1l.05,.08v.13l-.05,.06v.63h.05v-.37s.03-.05,.08-.05v-1.1l.05-.08v-.76l.05-.08v-1.21l.05-.08v-.05l-.05-.06v-2.57l-.05-.06v-.92h-.05v-.15h-.08Zm.13-7.57v.13h.05v-.13h-.05Zm0,.18v.97h.05s.02-.05,.05-.1v-.19l-.05-.08v-.6h-.05Zm.05,1.44c0,.08-.02,.13-.05,.18v.13l.05,.06v.23h.05v-.6h-.05Zm.23,7.49v.42h-.08v.87h.05v.05h-.05v.55c.05,0,.08,.02,.08,.05v.65h-.08v.19c.05,0,.08,.02,.08,.05v.18h-.08v.65h.05v.05h-.05v.18h-.05v.84h-.05v.61l.05,.08v.18l-.05,.06v.15l.05,.08s-.05,.06-.1,.19v.05l.05,.08v.08s-.03,.05-.1,.05v.11l.05,.08v.32h.05v-.32l.05-.08v-.29l.05-.08v-.61s.03-.05,.08-.05v-.65l.05-.08v-.76l.05-.08v-.13l-.05-.06,.05-.08v-.57h-.05v-.1l.05-.08v-.24h-.05v-.23l.05-.08v-.32l-.05-.06v-.68l-.05-.06v-.13l.05-.08v-.05l-.05-.06v-.21h.05v.21h.05v-.4h-.05v-.42h-.05Zm-.23-9.58v.05h.05v-.05h-.05Zm0,2.73v.52h.05v-.52h-.05Zm.05,.65v.42h.05v-.42h-.05Zm0,.6v.05h.05v-.05h-.05Zm0,.19v.27h.05v-.27h-.05Zm.05,3.55v.05h.05v-.05h-.05Zm0,.14v.1h.05v-.1h-.05Zm0,.18v.18l.05,.06v.32h.08v-.47c-.05,0-.08-.03-.08-.1h-.05Zm0,.61v.08h.05v-.08h-.05Zm0,5.63s.05,.02,.05,.05v.15h-.05v-.19Zm0,.44h.05v.03h-.05v-.03Zm.05-5.52v.05h.08v-.05h-.08Zm0,4.25h.03s.05,.02,.05,.05v.05s-.02,.05-.05,.05l-.03-.05v-.1Zm.08-4.34v.05h.05v-.05h-.05Zm0,.89h.05v.05h-.05v-.05Zm0,2.16h.05v.11h-.05v-.11Zm0,.42h.05v.24h-.05v-.24Zm.05-7.12v1.26l.05,.08v.94s.01,.08,.03,.1c-.02,.03-.03,.07-.03,.11v.32l.05,.06v.31l.05,.06v.36l-.05,.06,.03,.05s-.03,.07-.03,.11l.05,.07v2.95l-.05,.08v.37h.05v-.13l.05-.08v-.29l.05-.08v-.74l-.05-.07v-.13l.05-.08v-.27l-.05-.06v-2.39l-.05-.06v-1.02l-.05-.08v-.87l-.05-.06v-.87h-.05Zm.6-6.52h.06v.05h-.06v-.05Zm.42,0v.05h.1v-.05h-.1Zm.42,0h.08v.05h-.03s-.05-.02-.05-.05Zm.87,.27h.05v.02h-.05v-.02Zm.42,17.76v.05h.05v-.05h-.05Zm3.84,.37v.05h.23v-.05h-.23Zm.42,.05v.05h.08v-.05h-.08Zm.6,0h.13s.05,.02,.05,.05v.02s-.02,.06-.05,.06h-.03s-.05-.04-.1-.13Zm.27,.06h.05v.03h-.05v-.03Zm.24,.06h.08s.05,.02,.05,.05h-.13v-.05Zm.23,.1v.05h.23v-.05h-.23Zm.65,.1v.05h.18v-.05h-.18Zm1.79,1.13v.06h.05v-.06h-.05Zm.32,.69v.06h.05v-.06h-.05Zm.16-1.65h.03s.05,.02,.05,.05h-.08v-.05Zm.63,1.6h-.26s-.08,.05-.11,.05v.06h.24c.17-.12,.29-.18,.34-.18v-.05h-.14s-.07,.04-.07,.11Zm-.27-1.6h.05s.08,.05,.1,.05v.05h-.15s-.05-.02-.05-.05,.02-.05,.05-.05Zm.32,0h.19v.05h-.13l-.11,.02v-.02s.02-.05,.05-.05Zm.23,1.53v.06h.1v-.06h-.1Zm.34-1.53h.05v.05h-.05v-.05Z"/><path class="d" d="M72.39,84.73h.52v.05h-.19v.1h.18s.05,.03,.05,.08h.16c.08,.01,.17,.12,.27,.32,.1,0,.2,.1,.31,.29v.03c-.11,.19-.2,.3-.27,.32-.06,.1-.13,.15-.21,.15v.05h.27l.08,.05h.24s.14,.06,.32,.08c0,.02,.15,.1,.45,.24h.13s.04,.07,.11,.08c0,.08,.15,.17,.45,.29,.05,.1,.14,.17,.27,.23,.12,.06,.19,.16,.23,.27,.04,0,.12,.11,.24,.34,.19,.24,.31,.42,.36,.55,.03,0,.05,.02,.05,.05v.13c.07,0,.13,.15,.19,.45,.08,.15,.12,.33,.15,.53,.02,.06,.05,.12,.1,.18v.24l.05,.08v.61l.05,.08v.82l-.05,.06v.4s-.04,.13-.06,.32h-.05v.18c-.15,.44-.23,.67-.23,.69l-.18,.29c-.1,.17-.14,.29-.14,.36-.03,0-.07,.11-.1,.32-.06,0-.11,.06-.13,.19-.02,0-.09,.11-.19,.32-.09,0-.15,.08-.18,.23-.12,.18-.31,.39-.57,.61,0,.05-.12,.14-.37,.27,0,.09-.15,.17-.45,.24,0,.02-.05,.06-.15,.13-.15,.03-.24,.06-.26,.08h-.24l-.08,.05h-.34l-.08,.05h-.24s-.13,.04-.32,.06c0,.02-.01,.03-.03,.03h-1.45l-.08-.05h-.39l-.08-.05h-.47l-.08-.05h-.39l-.08-.05h-.24s-.13-.06-.27-.08c0-.08-.26-.16-.78-.24-.14-.15-.37-.26-.69-.32-.02-.05-.19-.16-.5-.31-.11-.08-.18-.16-.21-.24h.1c.12,.03,.18,.09,.19,.18,.11,.06,.28,.13,.52,.19,0,.05,.21,.15,.65,.29,.27,.14,.45,.21,.55,.21,.06,0,.11,.02,.15,.05h.26l.06,.05h.26l.06,.05h.36l.06,.05h.65c.17-.06,.26-.11,.26-.14h.32v-.05h.19l.18-.13v-.05h-.05v.05h-.18c0,.05-.05,.09-.15,.1v.03h-.32v.05h-.68v-.05h.6l.08-.05h.27c0-.06,.06-.12,.19-.18h.27v-.05h.06s.05,.02,.05,.05h-.07v.05h.07c0-.05,.08-.09,.23-.1,.1-.05,.17-.13,.23-.23h.08v-.05h-.1v.05h-.27c0,.06-.1,.1-.31,.1,0,.02,0,.03-.02,.03h-.9l-.06,.05h-.32l-.08-.05h-.29l-.08-.07h-.29s-.05-.02-.05-.05c.02-.01,.05-.02,.1-.02v-.05h-.26l-.06,.05s-.05-.03-.05-.1h-.13l-.08,.05h-.1v-.03s.03-.05,.03-.06h-.15c0-.05-.05-.09-.16-.1-.04,0-.06-.03-.06-.08h-.15v-.05h-.18s-.05-.08-.15-.13c-.09-.08-.3-.19-.63-.34l-.02-.05h.05v-.06h-.05v.06h-.05s-.05-.02-.05-.06h.05v-.06h-.05v.06h-.03c-.09-.08-.16-.11-.23-.11l-.02-.05h.05v-.05h-.05v.05c-.09-.04-.13-.08-.13-.1,.05,0,.08-.02,.08-.05,.16,.08,.24,.14,.24,.19h.08v-.05c-.09,0-.16-.08-.23-.23h-.1v.08h-.08s-.03-.1-.1-.18h-.05v.05h.05v.05h-.05c-.22-.21-.34-.37-.37-.47v-.05h.05c.03,.05,.05,.09,.05,.1h.05v-.05c-.05,0-.1-.05-.15-.14h-.05v.05h.05v.05h-.05c-.07,0-.15-.13-.26-.4-.13-.17-.2-.32-.23-.45-.07-.11-.12-.27-.16-.48-.03,0-.05-.02-.05-.05v-.13c-.08,0-.13-.15-.16-.45-.01,0-.02,0-.02-.02v-.26l-.05-.07v-.27h-.05v-1.02l.05-.08v-.24l.05-.08v-.29h.05v-.27s.06-.05,.08-.15h.05v-.18s.05-.05,.06-.15c.02,0,.03-.01,.03-.03v-.15h.05v-.15s.08-.08,.13-.23c.03,0,.05-.03,.06-.1h.03v-.05h-.05c-.08,.09-.13,.18-.16,.27-.01,.06-.03,.1-.06,.1v.15s-.06,.05-.1,.15v.18c-.05,0-.1,.05-.13,.15v.18h-.05v.27h-.05v.18l-.1,.27v.84l-.05,.07,.05,.08v.27h.05v.34l.05,.08v.24c.02,.08,.06,.26,.11,.55,.02,.05,.05,.08,.08,.08v.05h-.05v.05c.06,0,.1,.06,.1,.18h-.1s-.05-.02-.05-.05v-.26s-.05-.08-.05-.11h-.03l-.06,.05-.05-.23h-.05v.1h.05v.13h-.05v.1h.05v-.1h.05v.19h-.05v.18h.05v.1l-.05,.07v.26c-.08-.08-.16-.32-.26-.73-.02-.14-.04-.22-.06-.24v-.24l-.05-.08v-.97c-.05,0-.08-.02-.08-.05v-.15s.03-.05,.08-.05v-.32l.05-.08v-.32s.1-.34,.19-.92c.03-.01,.06-.02,.08-.02v-.13c.06-.19,.16-.43,.29-.71,.12-.16,.2-.34,.24-.55,0-.1,.09-.21,.26-.36,0-.06,.08-.16,.23-.27,0-.05,.06-.13,.19-.24h.05s-.12,.18-.37,.47c0,.03-.06,.12-.19,.26l.05,.07v.03s-.02,.05-.05,.05v-.08h-.08v.08h.08v.19c-.09,0-.13,.03-.13,.08v.1h.02c.08,0,.15-.17,.23-.5,.14-.14,.21-.24,.21-.29,.04,0,.2-.17,.48-.5,.12-.14,.27-.25,.45-.32,0-.09,.04-.13,.13-.13,0-.02,.16-.1,.47-.24v-.05h-.1s.02-.05,.05-.05h.05l.06,.05,.08-.05h.18c0-.07,.1-.1,.29-.1,0-.02,.01-.03,.03-.03h.27v-.05h-.31v-.03s.03-.04,.08-.06h.34l.08-.05h.39v.05h.11v-.05h.32v-.05h.05v.05h.21c0-.05,.02-.08,.07-.08h.24l.08-.05h.19v-.05h-.4l-.06,.05s-.1-.05-.16-.05v-.05h.23l.08-.05h.52l.08-.05h.69l.06,.05h.08l.08-.05h.37c0-.05,.02-.08,.05-.08h.32v-.1h-.21l-.06,.05h-.03v-.02s.03-.06,.08-.08Zm-7.22,4.99v.42l-.05,.06v.06s.05,.08,.05,.15h.05v-.69h-.05Zm0,.79v.71s.05,.14,.07,.32c.03,.02,.07,.03,.11,.03v.18h.05v-.18h-.05v-.27c-.05,0-.08-.02-.08-.05v-.1s.03-.05,.08-.05v-.05c-.06,0-.1-.09-.11-.26-.01,0-.02,0-.02-.02v-.27h-.05Zm.05-.92v.08h.05v-.08h-.05Zm0,2.49v.05h.05v-.05h-.05Zm.05-2.86v.05h.08v-.05h-.08Zm.13-.37v.05h.05v-.05h-.05Zm0,4.02s.05,.02,.05,.05v.1h-.05v-.15Zm.05-1.11v.1h.05v-.1h-.05Zm0,.52h.05v.18h-.05v-.18Zm0,.4h.05v.02h-.05v-.02Zm.05-.48h.05v.03s-.02,.05-.05,.05v-.08Zm0,.26s.04,.02,.06,.06v.03h-.02s-.05-.02-.05-.05v-.05Zm.27-3.47c0,.08-.02,.13-.05,.16v.31h-.08v.32h-.05v.97h.05v.32h.08v-.32h-.08v-.97h.08v-.32h.05v-.23l.05-.08v-.16h-.05Zm-.18,3.7h.05v.02h-.05v-.02Zm.05-4.42v.08h.08v-.08h-.08Zm.08-.15v.05h.05v-.05h-.05Zm0,3.05v.23h.05v-.23h-.05Zm.06,1.36h.03v.13h-.05s-.05-.02-.05-.05c0-.02,.02-.05,.06-.08Zm-.02-4.5v.05h.05v-.05h-.05Zm0,3.47v.15h.05v-.15h-.05Zm0,.47v.13h.05v-.13h-.05Zm.05-4.12v.05h.05v-.05h-.05Zm0,.87v.15h.05v-.15h-.05Zm0,3.1v.1h.05v-.1h-.05Zm0,.84s.05,.02,.05,.05v.1h-.05v-.14Zm.05-2.97v.32h.05v-.32h-.05Zm0,.94v.18h.05v-.18h-.05Zm0,1.34v.08h.05v-.08h-.05Zm.42-3.89c0,.05-.03,.13-.1,.23v.19s-.06,.04-.1,.13v.24h-.05v.13s-.03,.05-.08,.05v.24h-.05v.32h.05v-.32h.08v-.15l.05-.08v-.19h.05v-.15l.05-.08v-.15s.05-.05,.06-.15c.02,0,.03-.01,.03-.03v-.15h.08v-.1h-.08Zm-.37,4.88h.05v.11s-.05-.02-.05-.06v-.05Zm.05-3.12v.32h.08v-.32h-.08Zm0,.65v.37h.08v-.37h-.08Zm0,2.58h.05v.05s-.05-.02-.05-.05Zm.03,.1s.05,.02,.05,.05h-.05v-.05Zm.05-3.65v.18h.05v-.18h-.05Zm0,3.7h.06v.02s-.02,.05-.05,.05h-.02v-.06Zm.05-4.02v.18s.05,.03,.05,.1h.05v-.1h-.05v-.18h-.05Zm.05-1.71v.05h.05v-.05h-.05Zm0,1.52v.15h.05v-.15h-.05Zm0,3.89v.05h.05v-.05h-.05Zm0,.44h.05v.08h-.05v-.08Zm.05-4.6v.19h.05v-.19h-.05Zm.02,4.76h.03s.05,.02,.05,.05h-.08v-.05Zm.03-4.89v.08h.05v-.08h-.05Zm.05-.1v.05h.08v-.05h-.08Zm0,4.67v.05h.08v-.05h-.08Zm0,.37h.05v.05s-.05-.02-.05-.05Zm.08-5.59v.08h.05v-.08h-.05Zm0,5.31v.05h.05v-.05h-.05Zm.52-6.52s-.06,.09-.19,.15c0,.09-.04,.15-.11,.18-.02,0-.05,.05-.1,.15h-.02v.18h.05v-.18s.05-.03,.06-.1c.03,0,.14-.11,.32-.32h.03v-.05h-.05Zm-.42,6.48v.05h.05v-.05h-.05Zm.05,.47v.05h-.05s.02-.05,.05-.05Zm.05,1.16h.02c.08,.02,.11,.05,.11,.08h-.08s-.05-.02-.05-.05v-.03Zm.1-8.43h.03s-.02,.05-.06,.05h-.02s.02-.05,.05-.05Zm-.05,1.02v.05h.08v-.05h-.08Zm0,6.2v.05c.05,0,.11,.06,.18,.18h.05v-.05c-.05,0-.1-.06-.15-.18h-.08Zm.02,.32h.03v.05h-.03v-.05Zm.16-7.72h.1v.13c-.06,0-.11,.02-.15,.05h-.05c.04-.12,.08-.18,.1-.18Zm-.1,1.02v.13h.05v-.13h-.05Zm0,7.67h.05s.05,.02,.05,.05h-.05s-.05-.02-.05-.05Zm.47-8.28s-.11,.13-.32,.32c-.03,.1-.07,.15-.1,.15v.05h.05c.02-.1,.05-.14,.1-.14,.03,0,.05-.04,.06-.13,.15-.13,.24-.19,.26-.19v-.05h-.05Zm-.42,6.94v.05h.05v-.05h-.05Zm.15,.42h.05v.08s-.05-.02-.05-.06v-.02Zm.05-.15v.05h.05v-.05h-.05Zm0,.23h.05v.05s-.05-.02-.05-.05Zm0,.14s.05,.02,.05,.05v.05s-.05-.02-.05-.05v-.05Zm.05,.1h.13s.05,.02,.05,.05v.02h-.13s-.05-.02-.05-.05v-.02Zm.18-8.41s.05,.03,.05,.05v.03h-.05s-.05-.02-.05-.05l.05-.03Zm0,8.48h.05s.05,.03,.05,.06h-.05s-.05-.02-.05-.06Zm.1-7.88v.05h.05v-.05h-.05Zm.05,7.99h.08s.05,.02,.05,.05h-.08s-.05-.02-.05-.05Zm.13-8.14v.05h.05v-.05h-.05Zm.02,8.78h.05v.05h-.05v-.05Zm.08-.44h.05v.03h-.05v-.03Zm.11-9.04h.03v.05h-.03v-.05Zm0,8.98h.11s-.02,.05-.06,.05h-.05v-.05Zm.05,.15h.03s.05,.02,.05,.05v.03h-.02s-.06-.02-.06-.05v-.03Zm.16-.1v.05h-.05s.02-.05,.05-.05Zm.27,.18v.05s-.06,.05-.18,.07v-.02s.06-.05,.18-.1Zm-.16,.32h.08v.05h-.08v-.05Zm.13-.1h.05v.05h-.05v-.05Zm.23-5.73v.14c-.06,.15-.12,.37-.18,.65-.01,0-.02,0-.02,.02v1.34l.05,.08v.34s.07,.23,.11,.55c.06,.03,.11,.14,.13,.32,.1,.24,.15,.36,.15,.37,.01,0,.04,.04,.08,.13v.13c.07,0,.16,.13,.29,.39,.05,.12,.14,.22,.26,.31,0,.08,.07,.13,.21,.16,.13,.16,.27,.26,.44,.31,.16,.08,.29,.17,.39,.27,.48,.12,.73,.21,.73,.27h.11c0-.08,.26-.16,.77-.26,.08-.13,.2-.21,.37-.24,.13-.09,.19-.15,.19-.19,.05,0,.13-.04,.23-.13,.17-.11,.32-.28,.45-.52,.04,0,.08-.09,.1-.28,.09,0,.18-.09,.27-.27,.09-.04,.15-.15,.19-.32,.1-.03,.19-.17,.27-.42,.03-.01,.08-.1,.13-.26,.08,0,.14-.2,.19-.61,.02,0,.03-.01,.03-.03v-.89l-.06-.06v-.26l-.05-.06v-.26l-.05-.06v-.23c-.05,0-.09-.09-.1-.26l-.23-.74s-.07-.09-.11-.24h.06c.14,.21,.24,.45,.31,.74,.04,0,.09,.12,.15,.36,.06,.26,.11,.39,.13,.39v.32l.05,.08v.27s.06,.02,.06,.05v1.29s-.04,.05-.11,.05v.02s.02,.04,.05,.08v.1s-.06,.19-.1,.52c-.09,.09-.13,.21-.13,.36-.02,0-.03,0-.03,.02v.08h.03c.06,0,.14-.16,.24-.47h.05v-.32l.05-.08v-.13h.05v.21s.08,.05,.11,.15h.05v-.05s-.07-.03-.08-.1h-.02c.04-.12,.08-.18,.1-.18v.05h.05v-.05h-.05v-.18h.05v.08h.07v-.37l.05-.08v-1.16s.05,.02,.05,.05v1.42l-.05,.06v.18h.11v-.19l.05-.08v-.32s.05-.07,.05-.08v-.24s.02-.05,.06-.05v-.19h-.05v-.05h.05v-.05s-.06-.02-.06-.05v-.39l-.05-.06v-.36l-.05-.06v-.26l-.16-.44v-.18s-.12-.17-.24-.5c-.02,0-.03,0-.03-.02v-.13c-.06,0-.1-.02-.1-.05v-.19s-.16-.13-.34-.4c-.05,0-.15-.08-.27-.24-.05,0-.16-.09-.32-.28-.06,0-.16-.08-.27-.23-.16-.06-.38-.13-.65-.19,0-.09-.13-.13-.39-.15,0-.02-.01-.03-.03-.03h-.57l-.08-.05h-.79l-.08-.05h-.19c-.29,.1-.46,.19-.52,.28-.2,.08-.37,.24-.5,.48-.02,.12-.08,.18-.18,.18-.08,.12-.17,.24-.29,.37-.06,.15-.13,.29-.19,.4,0,.06-.04,.12-.13,.18-.18,.46-.27,.71-.27,.74h-.05Zm-.18,6.1h.05v.05h-.05v-.05Zm.05-.5h.08s-.02,.05-.05,.05h-.03v-.05Zm.18,.05h.08c0,.06,.06,.11,.19,.14v.03h-.1c-.12-.05-.19-.11-.23-.16l.05-.02Zm-.03,.5h.03v.05h-.03v-.05Zm.31-.32h.18s-.02,.05-.05,.05h-.08s-.05-.02-.05-.05Zm.82-9.98s.05,.03,.05,.05v.03h-.11v-.03s.03-.05,.06-.05Zm.44,10.67h.19l.08,.05h.27v.05h-.29l-.08-.05h-.18v-.05Zm.15-1.34h.03v.05h-.03v-.05Zm.87,.42h.18l-.03,.13h-.11l-.03-.13Zm.1,.6h.05s.05,.02,.05,.05h-.1v-.05Zm.1,.05s.06,.02,.06,.05v.05s-.06-.02-.06-.05v-.05Zm.45-.1h.03s.05,.02,.05,.05h-.08v-.05Zm.24-.82s.06,.02,.06,.05l-.11,.08h-.05v-.05s.06-.03,.1-.08Zm.6-7.69h.08v.05h-.08v-.05Zm.42,.56s.06,.02,.06,.05h-.06v-.05Zm.16-.32v.05h-.05s.02-.05,.05-.05Zm0-.02h.05v.02h-.05v-.02Zm.05,.02h.02s.05,.03,.05,.05v.03h-.02s-.05-.02-.05-.05v-.03Zm0,.5h.05v.05s-.05-.02-.05-.05Zm.06-.42s.06,.02,.08,.06v.03h-.03s-.05-.02-.05-.05v-.05Zm.16,.65h.05v.05s-.05-.02-.05-.05Zm.1,.1c.08,.04,.11,.08,.11,.1v.05h-.02s-.05-.03-.1-.1v-.05Zm.05-.5h.02s.05,.02,.05,.05v.03h-.02s-.05-.02-.05-.05v-.03Zm.06,.08h.05c.21,.18,.32,.28,.32,.29h-.06s-.12-.1-.31-.29Zm.05,.61h.06s.05,.02,.05,.05v.13s-.07-.03-.11-.1v-.08Zm.11-3.05v.08s-.05-.02-.05-.05l.05-.03Zm0,3.23s.05,.02,.05,.05v.05s-.05-.02-.05-.05v-.05Zm.21-.5h.05s.06,.03,.06,.05v.03h-.06s-.05-.02-.05-.05v-.03Zm.11,.08s.04,.05,.1,.15v.02h-.03s-.04-.02-.06-.07v-.1Zm.16,.23h.05v.1s-.05-.02-.05-.05v-.05Zm.05,.1h.08v.05h-.03s-.05-.02-.05-.05Zm.11-2.12h.05s.05,.03,.05,.05l-.05,.03h-.11v-.03s.03-.05,.06-.05Zm.21,6.43v.13l-.05,.06v.21c-.06,0-.1,.05-.1,.15-.01,0-.02,0-.02,.02v.16h-.05v.05h.05c.03-.12,.07-.18,.11-.18v-.19h.05v-.13c.11-.09,.16-.15,.16-.18-.03-.04-.05-.08-.05-.1h-.11Zm-.11-3.94h.02s.05,.02,.05,.05-.02,.05-.05,.05l-.02-.05v-.05Zm.11,6.94v.05h.05v-.05h-.05Zm.05-6.39h.07v.07h-.07v-.07Zm0,2.79h.07v.1h-.07v-.1Zm.07-2.63h.05v.13s-.05-.02-.05-.05v-.08Zm.05,.13s.04,.06,.1,.18v.02h-.03s-.04-.02-.06-.06v-.13Zm.05,2.86v.1h.05v-.1h-.05Zm.1-2.41l.02,.05v.05s-.02,.05-.05,.05l-.02-.05v-.05s.02-.05,.05-.05Zm0,.19l.06,.1v.05h-.05s-.02-.05-.07-.1c0-.03,.02-.05,.05-.05Zm.02,.29h.05v.08s-.05-.02-.05-.05v-.03Zm.05,1.84s-.02,.05-.05,.1v.08h.1v-.18h-.05Zm0,.82s-.02,.08-.05,.11v.03h.1v-.15h-.05Z"/><path class="d" d="M76.82,89.17h.05v.15l-.05,.08v.29s-.04,.13-.06,.32c-.02,0-.03,0-.03,.02v.06l.05,.06v.08h-.05v-.08h-.05v.73l.05,.06v.42l.05,.08v.36l.1,.29s.03,.05,.08,.1v.23h.05v.1s-.05,.02-.05,.05h-.03c-.05-.05-.1-.24-.15-.57-.03,0-.05-.09-.06-.26-.02,0-.03,0-.03-.02v-.42l-.05-.08v-1.07l.05-.06v-.26s.08-.22,.13-.52c.01,0,.02-.01,.02-.03v-.11Zm9.2-4.2h.13c.1,.03,.15,.08,.15,.15h.97l.08,.05h.11l.08-.05s.05,.03,.05,.05h-.05v.08h.05v-.08s.05,.03,.05,.08h.18c0-.05,.02-.08,.05-.08,.03,.01,.05,.03,.05,.05-.03,.01-.05,.03-.05,.06v.02s.13,.05,.27,.15c.25,.11,.37,.2,.37,.27,.15,.12,.23,.21,.23,.27,.02,0,.05,.03,.1,.1v.32l-.05,.08v.5l.05,.06v.63s.04,.13,.06,.32c.02,0,.03,0,.03,.02v.29l.05,.08v.4l.05,.07v.23c.05,0,.08,.02,.08,.05v.26l.05,.06v.31l.05,.07v.52l.05,.08v.4l.1,.19v.19c.06,0,.1,.1,.1,.31,.02,0,.03,0,.03,.02v.42l.05,.08v.5l.05,.07v.87l-.05,.08v.99l-.05,.08v.29s-.06,.13-.08,.32h-.05v.27c-.02,.05-.06,.21-.13,.47l-.15,.45h-.05v.15c-.1,.19-.19,.48-.27,.87-.03,0-.09,.14-.18,.42-.13,.28-.23,.47-.29,.56-.04,.16-.27,.52-.68,1.07,0,.04-.16,.27-.48,.68-.21,.12-.32,.23-.32,.34-.05,0-.22,.12-.5,.36-.21,.11-.39,.22-.52,.32-.39,.1-.6,.18-.63,.24-.09,.04-.32,.09-.69,.15,0,.02,0,.03-.02,.03h-.36l-.06,.05h-1.15l-.08-.05h-.24c-.05-.03-.29-.08-.71-.15,0-.08-.21-.16-.63-.26-.01,0-.22-.08-.61-.24-.28-.08-.55-.2-.82-.37-.15,0-.32-.08-.52-.23-.17-.1-.28-.15-.32-.15,0-.03-.08-.1-.23-.21,0-.03-.08-.06-.23-.1-.01-.05-.1-.13-.27-.23-.04-.08-.15-.16-.32-.26v-.03s.03-.05,.05-.05c.02,.03,.03,.06,.03,.08h.1v-.05h.05v.05h.05v-.18l.05-.08v-.06s-.14-.08-.32-.23v-.05h.03c.06,.05,.19,.09,.37,.11,0,.08,.05,.11,.15,.11v.05h.13c.1,.03,.15,.06,.15,.1h.15l.08,.05h.05c0-.06,.02-.1,.05-.1h.05l.08,.05h.11v.05h-.1v.05h.18c.16,.09,.34,.16,.55,.23l.07-.05h.13s.05,.02,.05,.05h-.15v.02c0,.05,.08,.09,.24,.1,0,.02,.01,.03,.03,.03h.74s.05,.03,.05,.08h.19c0-.05,.02-.08,.05-.08h.79l.08-.05h.24c.13-.06,.37-.13,.73-.19,0-.04,.13-.11,.4-.21,.23-.11,.5-.27,.81-.48,.41-.41,.62-.65,.65-.73,.12-.12,.23-.28,.32-.47,.06-.06,.17-.28,.31-.65,.02-.1,.05-.16,.1-.18,.13-.44,.24-.66,.32-.66v-.13c.06-.09,.15-.34,.24-.78,.03-.01,.06-.02,.08-.02v-.27l.1-.18v-.24l.05-.08v-.89h-.05c0,.1-.09,.23-.26,.4-.04,.15-.12,.3-.24,.44,0,.04-.11,.16-.32,.36,0,.08-.11,.2-.32,.37-.12,.09-.18,.13-.18,.15-.14,.09-.28,.19-.42,.32-.1,0-.24,.06-.42,.18-.19,.06-.45,.12-.76,.16-.18,.03-.29,.06-.31,.08h-.29s-.08,.01-.1,.03l-.06-.03s-.02,.01-.02,.03l-.13-.03h-.32l-.06-.05h-.31l-.27-.1h-.24s-.17-.06-.4-.1c-.01-.03-.02-.06-.02-.08h-.13c-.13-.06-.4-.15-.81-.24,0-.05-.1-.11-.31-.16-.03-.03-.12-.07-.27-.1-.05-.02-.1-.07-.13-.14-.36-.14-.55-.25-.58-.32-.11-.06-.21-.11-.31-.13,0-.01-.05-.05-.14-.11v-.05h.05l.08,.05h.05l.06-.05h.08v.05h-.05v.05h.05v-.05h.1c0,.06,.04,.1,.08,.1h.06v-.03s-.08-.08-.24-.15c0-.06-.12-.12-.37-.18-.09,0-.16-.06-.23-.19h-.13c-.11-.04-.16-.11-.16-.19-.05,0-.1-.03-.13-.1v-.03h.05v-.05h-.05v-.1h.1c.03,.1,.06,.15,.1,.15s.05,.03,.05,.08h.18v-.05h.05v.05s-.03,.05-.1,.05v.05c.1,0,.15,.02,.15,.05v.05h-.05v-.05h-.1v.05c.06,0,.1,.02,.1,.05h.05v-.05h.13c.16,.05,.24,.12,.24,.19v.03h.08c0-.06,.02-.1,.06-.1,.02,0,.03-.02,.03-.05h.05v.1h.18c.07,.06,.21,.11,.42,.13,0,.02,.03,.04,.08,.07l.06-.05h.08s.05,.06,.1,.18h.05v-.05h-.05v-.03s.02-.05,.05-.05c.05,.04,.13,.09,.23,.13h.37l.23,.1h.19v-.05c-.28-.06-.42-.12-.42-.18h-.27c-.39-.13-.7-.21-.94-.24-.02-.03-.03-.06-.03-.08h-.13c-.27-.1-.49-.2-.66-.32-.04,0-.15-.06-.32-.19-.08-.03-.13-.05-.18-.05v-.15c-.17-.21-.3-.4-.37-.55-.02-.02-.07-.11-.15-.27-.05,0-.08-.02-.08-.05s.03-.05,.08-.05v-.13c-.05,0-.09-.06-.1-.18-.03-.14-.06-.22-.08-.24v-.24l-.05-.08v-.29l-.05-.08v-1.15l.05-.06v-.23h-.05s-.02,.09-.05,.13v.57s-.03,.05-.08,.05v.05c.05,0,.08,.02,.08,.05v.27c-.05,.04-.08,.08-.08,.1h-.05v-.55l.05-.06v-.1l-.05-.08,.05-.08v-.24s.03-.05,.08-.05v-.29h.05v.16h.1v-.19s.06-.13,.08-.32c.02-.06,.05-.1,.1-.1v-.18s.06-.12,.08-.27c0-.11,.1-.33,.29-.66,0-.14,.02-.23,.05-.26v-.15h-.05s.05-.05,.14-.05v-.18s.07-.05,.08-.15c.12-.04,.18-.1,.18-.18,.13-.14,.21-.21,.24-.21,0-.06,.05-.12,.15-.18,0-.06,.06-.11,.19-.13,0-.03,.06-.09,.18-.18,0-.03,.02-.05,.05-.05v-.05h-.05s.03-.05,.05-.05h.08l.07,.05h.03v-.1l.08,.05h.02v-.06l-.05-.08,.05-.03h.05v.08h.05v-.08h-.05c.05-.05,.25-.12,.6-.19,0-.03,.1-.05,.31-.06,0-.02,0-.03,.02-.03h.89v.05h-.79v.05h.84l.08-.05h.27c.13,.04,.19,.09,.19,.13v.02h.15l.08-.05h.05s.05,.03,.05,.05h-.05v.05h.05v-.05h.27s.05,.03,.1,.1h-.05v.08h.05c0-.06,.05-.1,.15-.1,0-.02,.01-.03,.03-.03l.08,.05h.29s.06,.04,.08,.13h-.45v.05h.32l.08,.05s.02,0,.02-.02l.13,.02h.02l.08-.05h.02v.1c.18,.05,.29,.08,.31,.08,0,.08,.16,.13,.47,.18,.11,.02,.17,.04,.19,.06h.08v-.05h.1l-.05,.08v.02h.13c.07,.09,.26,.16,.6,.23,0,.03,.02,.05,.05,.05h.19c0,.06,.03,.11,.1,.14v.03h.13l.16,.1h.08v-.05h.08l.11,.1h.03v-.76l-.05-.08v-.92l.19-.37Zm-9.11,3.89h.03v.18s-.02,.05-.05,.05l-.03-.05v-.13s.03-.05,.05-.05Zm-.05,1.99h.03s.05,.03,.05,.05v.23s-.02,.05-.05,.05l-.03-.05v-.27Zm.13-2.13v.1s-.02,.05-.05,.05v-.1s.02-.05,.05-.05Zm-.05,2.58h.05v.11h-.05v-.11Zm.05,1.21s.08,.05,.1,.05l-.05,.08v.02c.06,.15,.12,.23,.18,.23h.05v.08s-.03,.05-.08,.05v.05c.06,0,.11,.05,.13,.14h.05v-.05h.05v.1h-.05v.08h.05v-.08s.05,.03,.05,.05v.08s-.05,.02-.05,.05c-.09-.05-.15-.13-.18-.23-.08-.09-.15-.24-.21-.45-.03,0-.06-.02-.08-.06v-.13s.05-.02,.05-.05Zm0-3.99h.05v.15s-.02,.05-.05,.05v-.19Zm.1,.42v.15s-.02,.05-.05,.05-.05-.02-.05-.05c.04-.1,.08-.15,.1-.15Zm-.1,3.39h.05v.03s-.02,.05-.05,.05v-.08Zm.05-4.02h.05v.11h-.05v-.11Zm.1,.4v.18s-.02,.05-.05,.05v-.18s.03-.05,.05-.05Zm-.05,1.66v.1h.05v-.1h-.05Zm0,.15v.31l.05,.06v.26l.05,.07v.37c.05,0,.08,.02,.08,.05v.18h.05v-.4l-.05-.06v-.18l.1-.18v-.15h-.1v.18s-.02,.05-.05,.05l-.03-.05v-.42s-.02-.06-.06-.08h-.03Zm.05-2.33h.05v.1s-.05-.02-.05-.05v-.05Zm0,.27h.05v.19s-.02,.05-.05,.05v-.24Zm0,1.68v.1h.05v-.1h-.05Zm.05-1.86h.08v.05s-.02,.05-.05,.05l-.03-.05v-.05Zm.13-.36v.13s-.08-.05-.1-.05v-.05s.04-.01,.1-.03Zm-.05,.31h.05s-.02,.05-.05,.05v-.05Zm0,1.91v.27h.05v-.27h-.05Zm0,.37v.18h.05v-.18h-.05Zm.05-2.46s.05,.02,.05,.05v.03h-.05v-.08Zm0,1.71v.18h.05v-.18h-.05Zm0,2.08v.15c0,.05,.03,.08,.1,.08v.05h-.05v.05h.05v.18s.05,.03,.05,.1h.05c0-.06,.03-.1,.08-.1v-.13h-.08v.13h-.05v-.18h.05v-.05s-.04-.02-.1-.05v-.23h-.1Zm0,1.1h.05v.05s-.05-.02-.05-.05Zm0,.16h.05v.03h-.05v-.03Zm.15-5.28v.08s-.02,.05-.06,.08h-.03v-.03c.04-.09,.08-.13,.1-.13Zm-.1,1.71v.13s.09,.02,.13,.05h.02v-.1c-.06,0-.1-.03-.1-.08h-.05Zm0,.55v.32h.05v-.32h-.05Zm0,1.16v.08h.05v-.08h-.05Zm0,.32v.13h.05v-.13h-.05Zm.05-2.28v.19h.03s.04-.02,.06-.06v-.05s-.02-.06-.06-.08h-.03Zm0,.52v.18h.05v-.18h-.05Zm0,2.31h.05v.05h-.05v-.05Zm0,1.29h.05v.05s-.05-.02-.05-.05Zm.1-5.73v.1s-.02,.05-.05,.05v-.1s.03-.05,.05-.05Zm-.05,.79v.05h.05v-.05h-.05Zm.05,.32v.18h-.05v.13c.09,.11,.13,.17,.13,.19h.05v-.18h.05v-.05h-.05v.05s-.05-.02-.05-.05v-.05c.06,0,.1-.03,.1-.08v-.15h-.02l-.06,.03s-.05-.03-.1-.03Zm-.05,1.39v1.02h.05v-1.02h-.05Zm0,1.07v.08h.05v-.08h-.05Zm.1,2.07l.03,.05v.05h-.13v-.05s.06-.02,.1-.05Zm-.1,.14h.13v.1h-.08s-.05-.02-.05-.05v-.05Zm.1-5.96h.03v.13s-.02,.05-.05,.05h-.03v-.13s.03-.05,.05-.05Zm.18,.23v.13c-.1,.28-.17,.42-.23,.42v.1h.13v-.13l.14-.32v-.19h-.05Zm-.23,1.24h.03s.05,.02,.05,.05h-.03s-.05-.02-.05-.05Zm0,2.45v.15h.08v-.15h-.08Zm.08,.97c0,.06-.03,.1-.08,.1v.05h.08v.18s.05,.03,.05,.1h.05v-.1h-.05v-.08l.05-.06v-.03h-.1v-.05h.05v-.1h-.05Zm.05-4.99v.05s-.02,.05-.05,.05v-.05s.02-.05,.05-.05Zm.1,1.07v.18l-.06-.05h-.03c0,.06-.02,.1-.05,.1v.05h.05v-.05l.08,.05h.02c0-.06,.02-.1,.05-.1v-.18h-.05Zm-.15,1.29v.05h.05v-.05h-.05Zm0,.18v.05h.05v-.05h-.05Zm0,3.47s.05,.02,.05,.05h-.05v-.05Zm0,.15h.05v.05s-.05-.02-.05-.05Zm.02-.37h.06v.05h-.06v-.05Zm.03-3.65v.13h.05v-.13h-.05Zm.14,9.38l.23,.15v.03s-.03,.05-.1,.1c-.01-.06-.03-.1-.05-.1-.03,.01-.06,.02-.08,.02-.04-.06-.06-.11-.06-.14l.06-.05Zm-.05-11.85h.05v.11s-.05-.02-.05-.05v-.06Zm.42,.06v.03l.05,.06v.08s-.05,.02-.05,.05h-.05v-.05h-.05c-.08,.23-.12,.35-.15,.37h-.03v.23l-.1,.23v.15h-.05v.1h.05c0-.05,.08-.2,.23-.45l-.05-.06v-.03s.02-.05,.05-.05c.03,.06,.05,.12,.05,.18h.05v-.13h-.05v-.05c.08,0,.12-.09,.13-.27,.01,0,.02,0,.02-.02v-.08h-.05v-.05c.09-.02,.15-.06,.18-.13v-.1h-.18Zm-.42,1.79v.29h.05v-.29h-.05Zm0,4.44h.05v.1h-.05v-.1Zm2.13-7.35h-.19s-.04,.07-.13,.08c-.06,.01-.1,.03-.1,.06h-.05s-.05-.02-.05-.05h.05v-.05h-.05s-.06,.09-.18,.13v.05h-.14v-.08s.08-.02,.14-.05v-.05h-.05s-.08,.09-.23,.13c0,.05-.13,.15-.39,.29,0,.09-.1,.2-.31,.35,0,.06-.05,.14-.14,.23,0,.03-.03,.08-.1,.15l-.13,.18v.11h-.05v.18h.05v-.18s.11-.1,.23-.29c0-.1,.07-.19,.18-.28,.04,0,.09-.08,.15-.23,.04,0,.14-.09,.29-.27,.06,0,.13-.05,.21-.15,.06,0,.11-.02,.15-.05,0,.03,.03,.06,.08,.08,0,.04-.03,.06-.08,.06v.05s.05,.02,.05,.05h.05v-.05h-.05v-.05h.1v-.14h.28c0-.05,.03-.09,.1-.1v-.03h.13v.05h.1v-.05h-.1v-.05h.1l.08,.05h.02v-.1h.08l.06,.05h.08v-.02l-.02-.05s.02-.06,.02-.08h-.08c-.1,.03-.15,.06-.15,.1Zm-2.08,2.68v.1h.05v-.1h-.05Zm0,4.29v.05h.05v-.05h-.05Zm0,.47h.08v.05h-.08v-.05Zm.1-5.04s-.02,.05-.05,.05v.13h.05c0-.09,.02-.13,.05-.13h.03v-.05h-.08Zm0,5.36v.05h.08v-.05h-.08Zm.08-5.63v.13h.05v-.13h-.05Zm0,5.39h.05v.05h-.05v-.05Zm.1-6.93v.05s-.02,.05-.05,.05v-.05s.02-.05,.05-.05Zm-.05,.98h.05v.18h-.05v-.18Zm.05,11.59h.03v.02s-.02,.05-.05,.05h-.03v-.02s.02-.05,.05-.05Zm.05-12.63h.05s-.02,.05-.05,.05h-.05s.02-.05,.05-.05Zm-.05,.79h.05s.02,.05,.05,.05c0,.02-.02,.05-.06,.08h-.03v-.13Zm.14-.87v.03s-.02,.05-.05,.05v-.03s.03-.05,.05-.05Zm-.02,7.2h.06v.05h-.06v-.05Zm.06-7.3h.08s-.03,.06-.1,.1h-.03v-.05s.03-.05,.05-.05Zm-.05,1.29v.1h.08v-.1h-.08Zm.05,6.57h.03s.05,.02,.05,.05v.03h-.08s-.05-.02-.05-.05l.05-.03Zm-.02-.47h.1s.05,.02,.05,.05h-.15v-.05Zm.29-7.07s-.02,.05-.05,.05v.05h.05v.13h-.05c0-.09-.02-.13-.06-.13h-.03c0,.09-.03,.17-.1,.26v.02h.15v-.06l-.05-.08h.1v.05h.05s.03-.05,.08-.05v-.13h-.08v-.05h.08v-.05h-.08Zm-.24,.69v.05h.05v-.05h-.05Zm.1-1.07h.05v.05h-.1s.02-.05,.05-.05Zm-.05,7.17v.05h.05v-.05h-.05Zm.05,.32h.08v.05h-.03s-.05-.02-.05-.05Zm.1-7.59h.05s-.03,.05-.1,.1v-.05s.03-.05,.05-.05Zm.18-.13h.05s-.05,.09-.05,.13h-.13v-.03s.04-.05,.13-.1Zm.19,.65c-.06,.18-.15,.29-.24,.32,0,.06-.03,.1-.08,.1v.08h.08c.01-.1,.07-.19,.18-.27,.02,0,.05-.06,.1-.18h.02v-.05h-.05Zm-.32,6.8v.05h.08v-.05h-.08Zm.05,.32h.05l-.02,.13h-.08v-.08s.03-.05,.05-.05Zm.32-7.54s-.02,.05-.05,.05v.05h.05v.05l-.19,.13v-.05h-.05v.05s.05,.03,.05,.1h.03c.13-.05,.19-.13,.19-.23h.05v-.05h-.08v-.05h.08v-.05h-.08Zm-.24,.42v.05h.05v-.05h-.05Zm0,6.85v.08s.05,.02,.05,.05h.05v-.05s-.05-.03-.05-.08h-.05Zm.1-7.54h.05v.05h-.1s.02-.05,.05-.05Zm0,13.03h.13v.05h-.18s.02-.05,.05-.05Zm.05-5.36v.05s.05,.02,.05,.05h.05v-.05s-.05-.02-.05-.05h-.05Zm0,.37v.02s.03,.06,.08,.08h.1v-.05s-.05-.02-.1-.05h-.08Zm.18,.27v.05h.05v-.05h-.05Zm0,.1v.05h.27l.06,.05h.23v-.05h-.15l-.08-.05h-.34Zm.05,4.71v.05h.05v-.05h-.05Zm.1-12.63s-.02,.05-.05,.05v.05h.05s.03-.05,.1-.05v-.05h-.1Zm.1-.55v.05h.08v-.05h-.08Zm0,.27v.05h.08v-.05h-.08Zm.08,.15v.05h.05v-.05h-.05Zm.05-.15v.05h.05v-.05h-.05Zm.02,12.9h.11v.05h-.11v-.05Zm.03-13.27v.1h.03s.04-.02,.06-.06v-.03h-.1Zm0,.47v.05h.05v-.05h-.05Zm3.28,.74h-.26l-.06,.05h-.18c0,.06-.1,.1-.29,.1-.27,.08-.45,.18-.55,.31-.09,0-.19,.08-.32,.24-.05,0-.16,.1-.32,.31-.17,.13-.3,.29-.37,.48-.05,0-.14,.16-.27,.48-.03,0-.06,.06-.08,.19-.08,0-.16,.22-.24,.66-.04,.03-.09,.17-.13,.4-.04,0-.08,.14-.11,.42-.02,0-.03,.01-.03,.03v.39l-.05,.08v1.29l.05,.06v.32s.05,.12,.08,.31c.01,0,.02,0,.02,.02v.13c.06,0,.14,.15,.23,.45,.06,.05,.1,.12,.1,.19h.13l.08,.05h.29l.08,.05h.53l.08-.05h.24l.08-.05h.24s.04-.02,.08-.05h.15c0-.05,.12-.1,.36-.15,0-.05,.13-.11,.39-.18,0-.05,.02-.08,.05-.08h.13c0-.06,.03-.11,.1-.13,0-.03,.11-.1,.32-.19,.09-.11,.21-.22,.37-.32,0-.04,.08-.13,.23-.27,0-.05,.08-.18,.23-.39,.17-.33,.29-.53,.34-.6,.13-.28,.2-.43,.23-.45v.13c-.06,.12-.11,.23-.14,.34l-.1,.18h-.03v.13l-.05,.06v.13h-.05v.08h.05c.01-.05,.1-.2,.27-.45,.03-.17,.09-.31,.18-.42l.19-.55c0-.13,.04-.27,.13-.44,.18-.61,.28-.96,.28-1.05h.05v-.18l.05-.06v-.4l.05-.06s-.06-.14-.08-.32c-.01,0-.02-.01-.02-.03,0-.03,.03-.05,.1-.05v-.13s.05-.08,.05-.11h.02c.05,0,.08,.04,.08,.11h.03s.06-.05,.1-.05v-.05h-.05v-.05h.15c.13,.15,.2,.23,.23,.23,0,.03,.02,.13,.05,.29h.05v-.23s-.05-.05-.05-.06v-.27h-.23s-.13-.06-.27-.08v-.05h-.15c-.1-.09-.33-.18-.69-.27v-.05h-.13c-.06-.05-.19-.09-.37-.11-.23-.06-.38-.11-.45-.13h-.24s-.05-.03-.05-.08h-.18l-.06-.05h-.31l-.06-.05h-.16l-.07,.05Zm-3.18-.89s-.02,.05-.05,.05v.05h.05s.02-.05,.05-.05v-.05h-.05Zm-.05,14.06v.05h.05v-.05h-.05Zm.1-14.47v.08h.08v-.08h-.08Zm.08,8.77v.02h.18s.04-.02,.06-.06v-.03h-.18s-.04,.03-.07,.08Zm.1-.55v.05h.05v-.05h-.05Zm0,5.31h.05v.02h-.05v-.02Zm.14-13.63v.05h.05v-.05h-.05Zm0,.1v.08h.05v-.08h-.05Zm.05,8.78v.08h.55v-.08h-.55Zm.1-.74h.06v.05h-.06v-.05Zm.03-8.23v.05h.05v-.05h-.05Zm.15,8.28h.18s.05,.03,.05,.05l-.05,.03h-.18s-.05-.02-.05-.05l.05-.03Zm-.05,5.59h.08v.05h-.03s-.05-.02-.05-.05Zm.18-13.6s-.04,.05-.13,.05v.05h.13s.02-.05,.05-.05v-.05h-.05Zm-.08-.13v.05h.08v-.05h-.08Zm.08,8.74v.05h.19v-.05h-.19Zm.18,4.99h.05v.05h-.05v-.05Zm.71-5.59h.18s.05,.03,.05,.05c-.11,.02-.18,.05-.23,.08h-.29l-.08,.05h-.05l-.08-.05h-.16v-.05h.61c0-.05,.02-.08,.05-.08Zm-.61-5.46h.05s-.02,.05-.05,.05v-.05Zm.05,6.06v.05h.15l.08,.05h.14v-.05s-.05-.02-.1-.05h-.27Zm.05-8.78v.1h.39c.05,0,.08,0,.08-.02l.13,.02h.47v-.05h-.32l-.08-.05h-.48s-.08,.01-.1,.03c-.04-.02-.07-.03-.08-.03Zm.14,14.14v.05h.05v-.05h-.05Zm.18,.05v.05h.15v-.05h-.15Zm.05-5.36v.05h.15v-.05h-.15Zm1.53,5.04v.05h-.32c0,.05-.02,.08-.05,.08h-.34l-.08,.05h-.74v.05h1.26l.08-.05h.19c0-.09,.02-.13,.05-.13h.08v-.05h-.13Zm-1.39-13.97v.05h.18v-.05h-.18Zm.05,8.88v.05h.13v-.05h-.13Zm0,5.46v.08h.27v-.08h-.27Zm.36-6.1h.06v.05h-.06v-.05Zm.37,6.18v.05h.05v-.05h-.05Zm.18-6.33h.02s.05,.02,.05,.05h-.06v-.05Zm.02,6.33v.05h.18v-.05h-.18Zm.27-.08v.08h.05v-.08h-.05Zm.15,0v.08h.27v-.08h-.27Zm.18-.1v.05h.1v-.05h-.1Zm4.17-6.28v.18l-.05,.08v.34l-.15,.45c-.09,.06-.16,.22-.21,.47-.04,.04-.08,.17-.11,.39-.03,0-.06,.07-.08,.21-.04,0-.1,.12-.18,.37-.13,.21-.27,.56-.44,1.03-.03,0-.1,.1-.21,.31-.04,.17-.29,.51-.74,1.02-.16,.11-.24,.17-.24,.19,0,.05-.13,.15-.4,.29,0,.02-.05,.06-.15,.13l-.19,.15,.05,.08h-.1v.02l.05,.08v.03h-.15l-.18,.1s-.07-.05-.08-.05h-.02c0,.06-.02,.1-.05,.1h-.03l-.06-.05h-.13v.05h.08v.05h-.13v-.05h-.1s-.09,.05-.13,.05v.13h.18c0-.09,.02-.13,.05-.13v.05h.18l.37-.13c.15-.08,.25-.11,.29-.11v-.05l-.05-.08h.05l.08,.05h.1s.05-.06,.15-.1c0-.03,.06-.08,.19-.13,.12-.08,.25-.17,.4-.29,.04,0,.17-.14,.39-.42,.08,0,.11-.04,.11-.13,.06,0,.14-.09,.24-.27,.17-.22,.31-.45,.4-.69,.03-.03,.06-.05,.1-.05v-.15c.15-.36,.26-.57,.32-.65,0-.04,.03-.13,.1-.26v-.11c.06,0,.11-.1,.15-.31,.03,0,.05-.02,.05-.05v-.15h.08v-.15h-.08v.15s-.05,.04-.1,.13v-.4s.05-.12,.08-.29l.24-.4v-.23h.05c.03,.1,.05,.16,.05,.18h.08v-.1h-.08v-.13l-.05-.06v-.26l.13,.03v-.18c-.05,0-.08-.02-.08-.05v-.23h-.05Zm-4.02,6.23v.05h.13v-.05h-.13Zm.08,.1v.05h.19v-.05h-.19Zm.1,.18v.05h.05v-.05h-.05Zm.55-.45h-.13v.05l.05,.08v.05h-.13l-.07,.05h-.13v.1h.03c.13-.04,.23-.09,.29-.13v-.02h.23v-.05h-.15v-.05c.08,0,.12-.04,.15-.11v-.02h-.08l-.07,.05Zm-.37-13.6h.15s.05,.03,.05,.05h-.19v-.05Zm.15,13.68v.05h.05v-.05h-.05Zm0,.32v.05h.05v-.05h-.05Zm.05-13.95h.1s.13,.06,.32,.08v.02l-.05,.03h-.37v-.13Zm.05,13.18v.05h.05v-.05h-.05Zm.1-.05v.05h.08v-.05h-.08Zm3.18-2.87c-.03,.1-.08,.14-.15,.14-.02,0-.05,.04-.08,.13v.19s-.05,.03-.05,.1c-.03,0-.05-.02-.05-.05v-.15c.06-.18,.11-.27,.15-.27h.05v-.05h-.1s-.05,.06-.15,.16c0,.05-.04,.14-.13,.26-.12,.29-.25,.54-.4,.76,0,.08-.1,.23-.29,.45,0,.05-.06,.13-.19,.24,0,.06-.04,.12-.13,.18,0,.02-.08,.1-.23,.23,0,.05-.08,.12-.23,.19-.03,.08-.1,.13-.19,.16-.06,.06-.1,.11-.1,.15h-.15c0,.06-.08,.12-.23,.18,0,.05-.1,.11-.29,.16l-.03,.05v.03h.08l.34-.19h.05v.05h.08v-.05h-.08v-.03s.06-.05,.18-.1h.1v.05h.05v-.05s-.06-.03-.1-.1c.27-.04,.4-.13,.4-.27,.1,0,.25-.14,.47-.42h.05v.1h-.05v.13h.05v-.13h.05l.1,.18h.05v-.05l-.15-.13v-.1h.05v.05h.05s.06-.08,.18-.18c0-.06,.05-.16,.15-.29,0-.02,.08-.11,.23-.27,.03-.17,.08-.26,.15-.26,0-.04,.03-.07,.08-.07v-.13s.03-.05,.1-.13v-.06c-.06,0-.11-.03-.13-.1-.03,0-.05-.02-.05-.05l.05-.03h.08s.05,.04,.05,.13h.05v-.18s.05-.03,.06-.1c.04,0,.08-.08,.11-.23,.07,0,.1-.03,.1-.08v-.11h.05v-.05h-.05Zm-2.96,3.37v.05h.05v-.05h-.05Zm.1-.6h.1v.05h-.1v-.05Zm.03-12.85h.02v.05h-.02v-.05Zm.19,13.22c0,.06-.03,.1-.08,.1h-.02v.05h.1s.02-.05,.05-.05v-.1h-.05Zm-.05-.4h.02s.06,.03,.08,.08c-.03,0-.05,.02-.05,.05-.03,0-.05-.02-.05-.05v-.08Zm.52-7.09v.1h.08v.1c-.05,0-.08,.03-.08,.1v.03h-.05v-.13h-.05v.13h.05v.1h-.05v-.05h-.05v.05h.05v.1h-.05v-.05h-.05c-.04,.12-.07,.18-.08,.18h-.05v.05h.08v.1s-.09,.03-.18,.1v.08h.05c0-.05,.06-.12,.18-.21,0-.03,.03-.09,.1-.16,.05-.15,.11-.26,.18-.32,.05-.18,.1-.27,.15-.27v-.05h-.05v.05l-.08-.05s-.08,.05-.1,.05Zm-.42,7.02h.05v.02h-.05v-.02Zm0,.61v.08h.05v-.08h-.05Zm.1-.15v.05h.08v-.05h-.08Zm.08-6.85h.05v.05h-.05v-.05Zm0,6.94v.05h.05v-.05h-.05Zm.05-7.07h.05v.13h-.05v-.13Zm.1,6.28v.05s-.03,.05-.1,.1v-.1s.05-.02,.1-.05Zm-.08-12.38h.08s.12,.06,.27,.08v.02l-.05,.03h-.27l-.03-.13Zm.03,12.9v.08c.05,.03,.09,.05,.1,.05v.05c-.05,.03-.09,.05-.1,.05v.05h.05c.01-.06,.04-.1,.1-.1v-.05c-.06,0-.1-.04-.1-.13h-.05Zm.05-.55h.05v.03h-.05v-.03Zm.05-7.65h.05v.07s-.02,.05-.05,.05v-.11Zm0,7.69h.05v.02h-.05v-.02Zm.1-7.94l.03,.05v.08s-.02,.05-.05,.05l-.03-.05v-.08s.03-.05,.05-.05Zm0,7.77l.03,.05v.03h-.03s-.05-.02-.05-.05l.05-.03Zm.03,.08s.05,.02,.05,.05v.05h-.13c.05-.04,.08-.08,.08-.1Zm0-6.64h.05v.03h-.05v-.03Zm0,7.15v.05h.05v-.05h-.05Zm0,.32v.05h.05v-.05h-.05Zm.05-8.91h.05v.05h-.05v-.05Zm0,1.15v.1h.05v-.1h-.05Zm.02,6.8h.03v.05h-.03v-.05Zm.08-6.94s-.02,.05-.05,.05v.05h.05v-.05h.05v.1h-.05v.1h.05c0-.07,.02-.1,.05-.1v-.1s-.05-.02-.05-.05h-.05Zm-.05,6.86h.02s.06,.03,.08,.03c0,.03-.02,.05-.05,.05h-.05v-.08Zm0,.13s.05,.02,.05,.05v.08s-.05-.02-.05-.05v-.08Zm0,.55v.05h.05v-.05h-.05Zm0,.15v.08h.05v-.08h-.05Zm.05,.18v.05h.05v-.05h-.05Zm.1-1.07v.05s-.02,.05-.05,.05v-.05s.02-.05,.05-.05Zm0-7.12v.05h.08v-.05h-.08Zm.18,6.96l.05,.08v.03c-.06,0-.11,.02-.15,.05h-.08v-.08s.06-.06,.18-.08Zm-.1,.68s-.03,.05-.08,.05v.08h.08c0-.05,.03-.08,.1-.08v-.05h-.1Zm0-7.77v.05h.05v-.05h-.05Zm.02-4.54h.08s.05,.02,.05,.05h-.13v-.05Zm.03,4.39v.1h.05v-.1h-.05Zm0,.74v.05h.05v-.05h-.05Zm.1-1.16v.15h-.05v.18h.05v-.18h.05v-.15h-.05Zm0,.94c0,.09-.02,.13-.05,.13v.05h.05s.02-.05,.05-.05v-.13h-.05Zm-.05,7.3v.05h.05v-.05h-.05Zm.02-.69h.08s-.02,.05-.05,.05h-.03v-.05Zm.03-11.46h.18c.04,.06,.08,.1,.1,.1,0,.03-.02,.05-.05,.05-.09-.04-.16-.08-.23-.1v-.05Zm.05,4.12v.05h.05v-.05h-.05Zm0,.6v.1h.05v-.1h-.05Zm.05,6.65v.05s-.02,.05-.05,.05v-.05s.02-.05,.05-.05Zm0,1.11s-.02,.05-.05,.05v.05h.05s.03-.05,.08-.05v-.05h-.08Zm.05-1.19h.03v.03s-.02,.05-.05,.05h-.03v-.03s.02-.05,.05-.05Zm-.05,.77v.05h.08v-.05h-.08Zm.08-8.64v.05h.05v-.05h-.05Zm0,1.07v.05h.05v-.05h-.05Zm.05-.97v.08h.05v-.08h-.05Zm0,.82v.05h.05v-.05h-.05Zm.05-.23v.05h.05v-.05h-.05Zm0,7.64h.05v.03h-.05v-.03Zm0,.63v.05h.05v-.05h-.05Zm.05-10.45v.05h.05v-.05h-.05Zm.05,9.11v.06h-.05v-.02s.02-.05,.05-.05Zm.1,.52v.08s-.05,.08-.05,.15h-.05c0-.06-.02-.11-.05-.15l.15-.08Zm-.1-7.77v.05h.05v-.05h-.05Zm0,8.46v.05h.05v-.05h-.05Zm.05-1.31h.05s-.02,.05-.05,.05v-.05Zm.18,.52v.1h-.13s.04-.05,.13-.1Zm-.1-.79h.05s.05,.02,.05,.05v.06h-.05s-.02-.06-.05-.06v-.05Zm.05-8.96v.1h.1v-.1h-.1Zm0,1.57v.05h.05v-.05h-.05Zm0,8.51v.05h.05v-.05h-.05Zm.1-1.29v.1s-.05-.02-.05-.05,.02-.05,.05-.05Zm0,.79s.02,.09,.05,.13c-.03,0-.05,.02-.05,.05h-.05v-.13s.02-.05,.05-.05Zm.05,.6c0,.12-.03,.18-.1,.18v.05h.05c0-.06,.04-.1,.1-.1v-.13h-.05Zm-.05-11.46v.05h.05v-.05h-.05Zm.1,9.85s.05,.02,.05,.05c-.08,.12-.12,.18-.14,.18v-.05c.04-.12,.08-.18,.1-.18Zm-.1,.32s.05,.02,.05,.05h-.05v-.05Zm.05,.6v.05s-.02,.05-.05,.05v-.05s.02-.05,.05-.05Zm.27-.42v.1c-.11,.17-.18,.28-.23,.32h-.05v-.05c.14-.24,.23-.36,.27-.37Zm-.23,.74v.05s.05,.04,.05,.13h.08v-.13c-.05,0-.08-.02-.08-.05h-.05Zm.18-1.49v.1s-.03,.05-.1,.1l-.03-.05v-.05s.04-.05,.13-.1Zm.1-.27h.05v.15s-.05,.04-.05,.13h-.1v-.13c.04-.1,.08-.15,.1-.15Zm-.05,1.53c0,.09-.02,.13-.05,.13v.05h.05s.02-.05,.05-.05v-.13h-.05Zm.15,.13c-.1,.11-.15,.18-.15,.23,0,.03-.02,.05-.05,.05v.05h.05c.06-.18,.14-.28,.23-.28v-.05h-.08Zm-.15-.79h.05v.1s-.02,.05-.05,.05v-.14Zm.05-12.19v.23h.05v.18h.05v.42h.08v.15h.05v-.15h-.05v-.42h-.08v-.18h-.05v-.23h-.05Zm.15,10.95h.03v.14s-.03,.05-.08,.05v.13s-.02,.05-.05,.05v-.18c.04-.13,.08-.19,.1-.19Zm-.1,1.03h.05v.08s-.05-.02-.05-.05v-.03Zm.05,.13v.15h-.05v-.1s.02-.05,.05-.05Zm0-.05h.05v.05h-.05v-.05Zm.08,.5s-.03,.05-.08,.05v.1h.08c0-.06,.02-.1,.05-.1v-.05h-.05Zm0-12.43v.19h.05v-.19h-.05Zm.1,10.59v.23h-.1v-.08c.04-.1,.08-.15,.1-.15Zm.05-.15h.05v.05s-.03,.05-.1,.1v-.1s.02-.05,.05-.05Zm-.05,1.71v.05h.05v-.05h-.05Zm.05-.13v.08h.05v-.08h-.05Zm.23-.47c0,.06-.04,.11-.13,.15v.18h-.05v.1h.05c0-.05,.04-.13,.13-.24,0-.05,.02-.08,.05-.08v-.1h-.05Zm.15-11.88h.23s.1,.05,.19,.05c0,.03-.02,.05-.05,.05h-.6s-.05-.02-.05-.05v-.02l.13,.02h.06l.08-.05Zm.18,10.59c-.05,.05-.08,.11-.08,.18-.03,0-.06,.05-.08,.15-.01,0-.02,0-.02,.02v.21s-.05,.02-.05,.05h-.05v-.27s.06-.04,.1-.13v-.06h-.03s-.04,.02-.06,.06v.13l-.13,.05v.05c.05,0,.08,.02,.08,.05-.03,.02-.06,.03-.08,.03v.15h-.05v.18h.05v-.18s.09-.02,.13-.05c0,.1,.02,.15,.06,.15h.03v-.08l-.05-.06s.09-.06,.15-.19v-.23c.05,0,.08-.03,.08-.1,0-.02,.02-.03,.05-.03v-.05h-.05Zm-.4-.42v.05h.08v-.05h-.08Zm.13,0c0,.07-.02,.1-.05,.1v.18h.05v-.18h.05v-.1h-.05Zm.1,.42v.05h.05v-.05h-.05Zm0,.87v.05h.05v-.05h-.05Zm.05-1.79v.08h.05v-.08h-.05Zm0,1.66v.08h.05v-.08h-.05Zm.05-2.92v.15h.08v-.15h-.08Zm0,1.76v.1h.13v-.1h-.13Zm0,1.02v.1h.08v-.1h-.08Zm.08-2.45v.1h.05v-.1h-.05Zm0,2.36v.05h.05v-.05h-.05Zm.05-.13v.05h.05v-.05h-.05Zm.05-2.92v.05h.05v-.05h-.05Zm.05,2.03v.1h.05v-.1h-.05Zm0,.47v.18h.05v-.18h-.05Zm.37-1.49v.24h-.05v.27h-.05v.27h-.05v.15h-.05v.18h-.08v.23h-.05v.1h.05c0-.06,.03-.1,.08-.1v-.23h.05v-.18h.05v-.15h.05v-.27h.05v-.27h.05v-.24h-.05Zm-.32,.05v.1h.05v-.1h-.05Zm.1-9.11h.05v.05h-.1s.02-.05,.05-.05Zm.13,8.36v.24l-.1,.31,.05,.06v.08l-.05,.06v.08h.1v-.42l.05-.08v-.34h-.05Zm.05-.55v.15h.05v-.15h-.05Zm.47-7.54h.19v.05s-.06,.01-.1,.03c-.02-.02-.07-.03-.15-.03,0-.03,.02-.05,.05-.05Zm.42,.19h.05v.05h-.05v-.05Z"/><path class="d" d="M91.48,83.49h.5l.08,.05h.11s.06,.08,.18,.13c0,.05,.09,.11,.27,.18l.15,.44v.13c-.1,.27-.19,.44-.28,.5v.24s-.07,.21-.11,.52c-.02,0-.03,.01-.03,.03v.24l-.05,.08v.29s-.03,.05-.08,.05v.32s-.02,.04-.05,.08v.42l-.05,.08v.76l-.05,.08v.69l-.05,.08v.99l-.05,.08v3.36l.05,.08v.36l.05,.06v.31l.05,.06v.31l.05,.06v.26l.05,.06v.23l-.05,.08v.02l.05,.08v.24c.05,0,.08,.02,.08,.05-.11,.02-.21,.05-.31,.1-.03-.01-.05-.02-.06-.02-.1,.12-.2,.18-.31,.18-.02-.02-.05-.03-.1-.03v.18s-.02,.05-.05,.05c-.05,0-.09-.06-.1-.18h-.05v.18h-.23v.19h-.05c0-.06-.02-.1-.06-.1-.13,.05-.21,.11-.23,.18-.09,0-.15,.02-.18,.05h-.1v-.03s.02-.05,.02-.06h-.11l-.08,.05h-.18l-.19-.18v-.15c-.1,0-.15-.06-.15-.19-.09-.2-.15-.49-.19-.86-.02,0-.03,0-.03-.02v-.27c-.05,0-.08-.02-.08-.05v-.42l-.05-.08v-.29l-.05-.08v-.61l-.05-.08v-.61l-.05-.08v-.23l.05-.06-.05-.08v-.23l.05-.06v-.23l-.05-.08v-.82l-.05-.07v-.68l.05-.06v-.82l.05-.08v-.79l.05-.06v-.73l.05-.07v-.26s.06-.13,.08-.32c.05,0,.1-.11,.13-.32,.03,0,.06-.11,.1-.32,.04-.03,.08-.12,.1-.27,.04-.03,.08-.05,.1-.05v-.37c.05-.15,.1-.24,.13-.27,.04-.03,.08-.05,.11-.05v-.02l-.05-.08c.22-.13,.32-.24,.32-.34,.03,0,.05-.02,.05-.05v-.13l-.05-.08v-.16c.06-.13,.17-.23,.32-.31h.32c0-.12,.09-.18,.26-.19,0-.01,.04-.04,.11-.08Zm-.23-7.23h.03s.05,.02,.05,.06h.27c.1,.11,.2,.17,.32,.18,.12,.14,.21,.29,.29,.45v.11c.08,0,.13,.2,.18,.6,.05,.06,.1,.24,.15,.52,.06,0,.11,.15,.13,.44,.03,0,.06,.1,.08,.29,.01,0,.02,.01,.02,.03v.29l.05,.08v.29l.05,.08v.6c.05,0,.08,.02,.08,.05v.95s-.03,.06-.08,.06v.11c-.18,.17-.27,.33-.27,.47-.25,.14-.39,.21-.44,.21-.14,.13-.32,.19-.53,.19,0,.02,0,.03-.02,.03h-.4l-.06-.06h-.26c-.19-.05-.29-.12-.29-.19-.15-.17-.23-.33-.23-.47,0-.04-.02-.09-.05-.13v-.29l-.13-.27c0-.12-.02-.19-.05-.23v-.24s-.06-.24-.11-.6c-.03-.18-.06-.28-.08-.29v-.16c-.06,0-.11-.14-.13-.42-.03-.17-.06-.28-.1-.32v-.24l-.05-.08v-.34s.03-.05,.1-.05v-.42c.09-.17,.19-.35,.32-.53,0-.04,.05-.08,.15-.11h.13v-.08l.13,.03c.19-.08,.29-.18,.29-.31l.36-.23s.08-.02,.11-.06Zm-1.26,19.72v.05h.05v-.05h-.05Zm.37-11.61h.05v.02h-.05v-.02Zm.23-7.77h.05v.03h-.05v-.03Zm.66,19.47l.03,.05s-.02,.05-.05,.05l-.03-.05s.03-.05,.05-.05Zm.55-.65v.1h.05v.08h-.1v.05h.1s.03-.05,.08-.05v-.08c-.05,0-.08-.03-.08-.1h-.05Zm.05,.32h.05v.05s-.05-.02-.05-.05Zm.27-13.37h.05v.03h-.05v-.03Zm0,12.95v.19h.05v-.19h-.05Zm.45-11.79h.02v.05h-.02v-.05Z"/><path class="d" d="M94.56,83.49h.05v.06h.02l.08-.05h.32s.13,.06,.32,.08c0,.04,.08,.1,.23,.16,0,.04,.12,.11,.37,.21,0,.03,.11,.15,.32,.34,0,.04,.05,.13,.15,.27v.13c.05,0,.11,.05,.18,.14v.05s-.03,.05-.1,.05v.13s-.03,.05-.08,.05v.18l-.05,.07v.31l-.05,.06v.18h.07l.08-.05h.13c0-.1,.02-.15,.05-.15v.05h.05v-.05h.14l.08-.05h.15c0-.05,.09-.11,.27-.16,0-.04,.09-.1,.27-.16h.15c0-.06,.06-.1,.19-.1,.09-.03,.13-.08,.13-.13h.14c.15-.09,.24-.15,.28-.18h.18c0-.09,0-.13,.02-.13,.03,.02,.06,.03,.08,.03,0-.03,.06-.06,.19-.08,.18-.16,.31-.24,.37-.24l.5-.19h.13c0-.08,.2-.13,.6-.18,0-.03,.07-.06,.21-.08,.18-.02,.29-.04,.31-.06h.44s.13,.04,.26,.06c.46,.08,.69,.18,.69,.31,.2,.09,.34,.18,.42,.29,.36,.18,.68,.41,.99,.68,.24,.25,.37,.37,.4,.37,.23,.33,.34,.57,.34,.69,0,.06,.02,.11,.05,.15v1.52l-.05,.06v.36l-.05,.06v.31s-.02,.05-.06,.05v.18c-.03,.05-.08,.24-.13,.57-.09,.24-.13,.42-.15,.55h-.05v.11s-.06,.13-.08,.26c-.02,.17-.04,.27-.06,.29v.4l-.06,.06v.26s-.04,.12-.06,.27h-.05v.23l-.05,.07v.24l-.1,.27v.26s-.02,.03-.05,.06v.31l-.07,.06v.48l-.05,.06v.68s-.02,.05-.06,.05v1.24s.06,.02,.06,.05v.65s-.02,.05-.06,.05v.32c-.05,.15-.1,.25-.15,.29v.23h-.06v-.05h-.16c-.05-.06-.16-.11-.32-.13,0-.02-.12-.12-.37-.29,0-.04-.12-.15-.37-.32,0-.06-.03-.1-.08-.1h-.05l-.08,.05c-.11-.25-.24-.37-.39-.37-.06-.15-.11-.3-.13-.45-.01,0-.02,0-.02-.03v-.29l-.05-.08v-.24l-.06-.08v-.27s-.06-.02-.06-.05v-.37l-.05-.06v-.21s-.01-.06-.03-.1c.02-.02,.03-.05,.03-.1l-.05-.06v-1.79l.05-.08v-.48l.05-.08v-.52s.02-.05,.06-.05v-.23l.06-.08v-.24s.1-.36,.19-.94c0-.03,.02-.07,.05-.11v-.24s.02-.05,.06-.05v-.15l.16-.45v-.29l.05-.08v-.02s-.01-.08-.03-.11c.02-.02,.03-.05,.03-.1l-.05-.06v-.03l.1-.27v-.29s.02-.05,.06-.05v-.32h-.1c-.09,.06-.26,.12-.52,.18-.2,.14-.51,.26-.92,.37,0,.06-.11,.12-.32,.16l-.39,.18c-.01,.07-.2,.2-.58,.4-.25,.08-.39,.16-.44,.24-.03,0-.06,.02-.1,.05h-.13s-.14,.13-.42,.27c-.04,.07-.15,.12-.32,.18-.03,.05-.16,.13-.37,.23-.15,.08-.23,.12-.23,.15-.04,.08-.12,.11-.23,.11-.03,0-.14,.09-.34,.27l-.4,.13v1.29c.05,0,.08,.02,.08,.05v.29l.05,.08v1.21l.05,.08v.52l.05,.08v1.08l.05,.08v.87l-.05,.06v.9c-.08,.16-.17,.27-.27,.32h-.15s-.12-.06-.27-.18c-.45-.14-.68-.27-.68-.4-.16-.05-.32-.17-.47-.34-.11,0-.2-.07-.27-.21-.24-.14-.38-.27-.42-.39-.03,0-.05-.02-.05-.05v-.05l.13-.13v-.29l.05-.08v-.08l-.05-.06v-.37l.05-.08v-.37l-.05-.08v-.11l.05-.08-.05-.06v-1.18l-.05-.06v-.37c-.05,0-.08-.02-.08-.05v-.53l-.05-.06v-1l-.05-.06v-.4s-.12-.13-.32-.27c-.09-.13-.13-.19-.15-.19l-.36-.45s-.11-.08-.19-.24v-.1c.02-.05,.1-.1,.23-.15,0-.04,.07-.15,.19-.32,0-.06,.1-.13,.31-.21,0-.01,0-.02,.02-.02h.18v-.74l.05-.08v-.61l.05-.08v-.24s.06-.14,.08-.32c.03-.03,.06-.05,.1-.05v-.26h.05v.69l.05,.08v.34l.05,.08v.92h.15s.09-.05,.13-.05v-.15h-.03l-.11,.1-.08-.15v-.08l.05-.08v-.05l-.05-.07v-.35l.05-.06-.05-.08v-.32s.02-.05,.05-.05v.1h.08c0-.06,.02-.1,.05-.1v-.42s.05,.02,.05,.05v.15h.05v-.29l-.05-.08v-.05l.05-.08v-.11c0-.05-.01-.08-.03-.08l.03-.13v-.21l-.05-.08v-.18c.07-.04,.11-.17,.13-.37,.01,0,.02,0,.02-.02v-.18h.03l.06,.05h.03v-.18s.05-.08,.05-.11Zm-.69,1.49h.05v.02h-.05v-.02Zm.05,.23h.05v.05h-.05v-.05Zm.05,9.45v.05h.05v-.05h-.05Zm.18-9.77h.05v.24l-.05,.08v.05l.05,.06v.08h-.05v.42h-.08v-.36s0-.06-.02-.1c0-.16,.03-.24,.1-.24v-.24Zm-.03-1.05l.03,.05s-.02,.05-.05,.05l-.03-.05s.02-.05,.05-.05Zm0,.5l.03,.05s-.02,.05-.05,.05l-.03-.05s.02-.05,.05-.05Zm-.05,2.28v.08h.08v-.08h-.08Zm.08-2.58h.05v.16h-.05v-.16Zm0,1.97v.15h.05v-.15h-.05Zm0,9.2v.05h.05v-.05h-.05Zm.1-11.5h.05v.13s-.03,.05-.08,.08h-.02v-.03s.05-.09,.05-.18Zm-.05,.9h.05v.07h-.05v-.07Zm.05,5.28v1.03l.05,.08v.24l.05,.08v.47l.05,.08v.15c.05,0,.1,.17,.15,.5l.03,.05v.29s.02,.05,.06,.08h.03v-.21l-.03-.11h.08v-.15h-.05l.05-.08v-.69h-.05v.13s-.05,.05-.14,.06l-.05-.06v-.37h-.05v-.05h.05v-.08c-.05,0-.08-.02-.08-.05v-.74h-.05v.11h-.05v-.24h.02s.07,.03,.08,.03v-.27s.02-.05,.05-.05l.03,.05v.79h.05v-.31h.05v.37l-.05,.08v.08h.1v.23h-.05v.42h.05v-.23l.05-.08v-.05l-.05-.07h.05v-.23h-.05v-1.05c-.08-.12-.18-.2-.31-.24h-.07Zm.1-4.34v.45l-.05,.07v1.05h.1v-.08l-.05-.07s.05-.02,.05-.05v-.11l-.05-.06,.05-.08v-1.11h-.05Zm-.05,4.59h.05v.05h-.05v-.05Zm.1-6.62h.03s.05,.02,.05,.05v.08c-.05,.04-.08,.08-.08,.1-.03,0-.05-.02-.05-.05v-.13s.02-.05,.05-.05Zm0,1.66v.23h.08v-.23h-.08Zm.13-1.11v.15h.05v-.15h-.05Zm.05-.42v.1h.05v-.1h-.05Zm0,8.35h.05v.26s-.05-.02-.05-.05v-.21Zm1.94-6.25h.05v.05h-.05v-.05Zm.15-.05h.05v.03h-.05v-.03Zm4.5,4.42h.03v.05h-.03v-.05Zm.42-3.15h.06v.02h-.06v-.02Zm0,9.12v.07h.06v-.07h-.06Zm.9-8.06c0,.06-.02,.1-.05,.1v.15c-.06,.14-.11,.29-.13,.45-.05,.31-.1,.47-.13,.47h-.02v.18c-.03,.05-.09,.32-.18,.79l-.08,.16v.26s-.02,.05-.06,.05v.55l-.05,.06v.53l-.05,.06v1.89l.05,.08v.42h.05v.27h.06v-.27h-.06v-.23s.02-.05,.06-.05v-.05s-.06-.02-.06-.05v-1.71s.02-.05,.06-.05v-.4l.06-.08v-.44l.05-.08-.05-.08v-.07l.05-.08v-.29s.04-.13,.06-.32c.02,0,.03-.01,.03-.03v-.24s.04-.13,.06-.32h.05v-.15s.03-.05,.07-.05v.05h.05v-.05h-.05v-.27s.07-.21,.11-.55c.02-.11,.05-.18,.08-.23v-.29h.05v-.1h-.05Zm-.52,7.69v.23c-.11,.1-.16,.17-.16,.21-.01,0-.02,.01-.02,.03v.1c.14,.1,.24,.18,.29,.24h.08v-.15c-.05-.13-.1-.22-.14-.27,.03,0,.05-.02,.05-.05v-.14l-.05-.08v-.11h-.05Zm.57-7.22v.42l-.1,.29v.26l-.05,.06v.1l.05,.08c-.06,0-.11,.12-.13,.36-.01,0-.02,0-.02,.02v.24s-.06,.13-.08,.26h-.05v.6l-.05,.06v.27l.05,.08v.42s-.05-.02-.05-.05v-.27h-.05v.47l.02,.13s-.04,.02-.06,.06v1.5l-.05,.06v.26h.1v-1.19l.05-.08v-.24h.05v-.65h.06v-.37l.07-.08v-.76c.02-.05,.06-.25,.11-.6,.02-.18,.05-.29,.08-.31v-.29s.05-.07,.05-.08v-.29s.02-.05,.06-.05v-.27l.06-.08v-.05l-.06-.06v-.23h-.06Zm-.57,6.06v.21h.05v-.21h-.05Zm0,.26v.18l.05,.08v.23h.05v-.31s-.05-.09-.05-.18h-.05Zm0,.69v.16h.05v-.16h-.05Zm.05-1.23v.1h.05v-.1h-.05Zm.05-1.79h.05v.18s-.05-.02-.05-.05v-.13Zm.05-2.1v.05h.05v-.05h-.05Zm.1,.94l.02,.05-.05,.03-.02-.06,.05-.02Zm.39-3v.13h.06v-.13h-.06Zm.44-3.71h.05v.02h-.05v-.02Zm1.18,.84h.05s-.02,.05-.05,.05v-.05Z"/></g></g><g id="c"/></svg>