<?xml version="1.0" encoding="UTF-8"?><svg id="a" xmlns="http://www.w3.org/2000/svg" viewBox="0 0 920.9 802.17"><defs><style>.n,.o{fill:#fff;}.p,.q,.o,.r{isolation:isolate;}.s{fill:#fae07f;}.q{fill:#758794;}.q,.r{opacity:.5;}.o{font-family:WindowMarkers, WindowMarkers;font-size:30.01px;}.r,.t{fill:#86aecb;}</style></defs><g id="b" transform="matrix(0.545, 0.839, -0.839, 0.545, 1888.792, 0)"><g id="c" transform="translate(13.947 0)"><rect id="d" class="r" x="91.44" y="173.87" width="767.12" height="456.17" transform="translate(-142.3 323.63) rotate(-33.01)"/></g><g id="e" transform="translate(0 0)"><path id="f" class="t" d="M279.26,792.58L31.65,401.32,671.28,0l249.62,384.28L279.26,792.58Z"/></g></g><g id="g" transform="matrix(0.454, 0.891, -0.891, 0.454, 1900.835, 19.805)"><g id="h" transform="translate(13.947 0)"><rect id="i" class="q" x="61.71" y="171.47" width="766.76" height="455.95" transform="translate(-132.84 245.61) rotate(-27)"/></g><g id="j" transform="translate(0 0)"><path id="k" class="s" d="M209.66,767.27L4.45,352.46,682.24,20.42l207.94,408.1L209.66,767.27Z"/></g></g><path id="l" class="n" d="M257.37,709.23c0,2.5-2.03,4.53-4.53,4.53h-20.37v20.37c0,2.5-2.03,4.53-4.53,4.53s-4.53-2.03-4.53-4.53v-20.37h-20.37c-2.5,0-4.53-2.03-4.53-4.53s2.03-4.53,4.53-4.53h20.37v-20.37c0-2.5,2.03-4.53,4.53-4.53s4.53,2.03,4.53,4.53v20.37h20.37c2.5,0,4.52,2.02,4.53,4.51,0,0,0,0,0,.01Z"/><g id="m" class="p" transform="matrix(0.875, -0.485, 0.485, 0.875, 1583.292, 737.201)"><text class="o" transform="translate(277.24 772.73) rotate(-29)"><tspan x="0" y="0">Get help by posting!</tspan></text></g></svg>