<?xml version="1.0" encoding="UTF-8"?><svg xmlns="http://www.w3.org/2000/svg" viewBox="0 0 571.09 64.44"><defs><style>.d{fill:#202020;}</style></defs><g id="a"/><g id="b"><g><path class="d" d="M34.51,63.84c-1.73,.15-1.07,.5-1.32,.6,2.88-.4,1.23-.7,1.32-.6Z"/><path class="d" d="M62.97,59.86l-.49,.22c1.39-.29,2.78-.57,4.17-.84l-3.68,.61Z"/><path class="d" d="M89.72,57.32c-2.59-.47-9.68,1.03-14.47,1.23l-.8-.09-2.09,.77c5.78-.64,13.27-1.73,17.37-1.92Z"/><path class="d" d="M104.12,57.61c-.9-.2,3.07-.49-3.33,.19l.61,.02c.58-.04,1.37-.11,2.73-.21Z"/><path class="d" d="M101.39,57.82c-2.82,.25,1.86,.08,0,0h0Z"/><path class="d" d="M114.39,56.58l-3.69,.55c.79,.1,4.1-.14,2.88,.08,3.8-.45,3-.55,.81-.64Z"/><path class="d" d="M117.87,55.77l-1.92,.26c.34,.04,.85,.02,1.92-.26Z"/><path class="d" d="M111.89,56.59l4.06-.56c-.55-.07-.62-.3-1.87,.23,.32-.24-.47,.03-2.2,.32Z"/><path class="d" d="M109.57,56.68c-2.1,.02-4.79,.14-1.09-.41-7.1,.69-6.01,1.1,1.09,.41Z"/><path class="d" d="M91.01,56.46l-2.8,.05-2.39,.47c1.19-.23,5.38-.31,5.19-.52Z"/><path class="d" d="M137.55,55.15c.22-.17-1.28-.32-1.57-.49l-2.73,.37c1.42,0,4.1-.09,4.3,.12Z"/><path class="d" d="M135.98,54.67l4.09-.55c-3.67,.23-4.33,.4-4.09,.55Z"/><polygon class="d" points="118.47 54.93 111.77 56.03 119.77 54.81 118.47 54.93"/><polygon class="d" points="153.24 54.06 150.93 54.58 155.04 53.75 153.24 54.06"/><path class="d" d="M163.64,53.32c-1.71,.39,2.39,.35,.58,.64,2.82-.22,5.22-.61,7.38-.97-2.3,.26-4.77,.38-7.97,.33Z"/><path class="d" d="M175.23,52.45c-1.15,.14-2.34,.33-3.63,.54,1.22-.14,2.42-.31,3.63-.54Z"/><path class="d" d="M147.07,53.69c.32,.07,.95,.27,3.26,.2l-1.64-.31c-.49,.03-1.05,.07-1.62,.11Z"/><path class="d" d="M148.63,53.57h.06c1.75-.1,2.97-.18,3.49-.21-.45,.03-1.52,.09-3.55,.21Z"/><path class="d" d="M146.66,53.72l.41-.03c-.16-.03-.25-.04-.41,.03Z"/><path class="d" d="M129.26,54.44c2.4-.41,7.41-1.02,2.51-1.04-1.71,.41,1.09,.42-2.51,1.04Z"/><path class="d" d="M144.62,53.33l-4.37,.21c.09,.11,.89,.21-.29,.42l4.66-.63Z"/><polygon class="d" points="146.75 53.04 144.62 53.33 146.24 53.25 146.75 53.04"/><path class="d" d="M167.73,52.49c1.87-.3,3.94-.44,6.26-.6-2.5,.06-5.09,.17-7.54,.32-.34,.15-1.4,.46,1.28,.28Z"/><path class="d" d="M158.44,52.93l.42-.05c-.26-.02-.47-.02-.42,.05Z"/><path class="d" d="M196.94,50.61l-.37-.06s-.05,.05-.08,.08l.45-.02Z"/><path class="d" d="M166.03,52.15c-1.88,.03-3,.2-4.06,.39,1.4-.13,2.89-.24,4.48-.34,.15-.07,.18-.11-.42-.05Z"/><path class="d" d="M181.62,51.87c-.98-.03-2.1-.04-3.26-.04,.96,.08,2.92,.17,3.26,.04Z"/><path class="d" d="M159.5,52.95l-.28,.04c.62,.06,.54,.01,.28-.04Z"/><path class="d" d="M159.5,52.95c.96-.12,1.71-.27,2.47-.41-1.14,.1-2.2,.21-3.11,.33,.23,.02,.47,.05,.64,.08Z"/><path class="d" d="M203.76,47.54c-.31,.41-5.24,1.01-9.52,.79-4.18,.5-1.37,1.67,2.33,2.22,.12-.18,.11-.34,4.42-.78-1.52-.14-9.61-.05-5.98-.58,5.71-.48,4.7-.08,7.49,0-2.39-.38,7.24-1.06,5.97-1.73l-5.01,.49c-.1-.11,1.71-.37,.31-.41Z"/><path class="d" d="M188.34,50.92l-1.77,.15c2.03-.05,3.48,.01,6.17,.2,2.95-.33,3.55-.51,3.75-.65-2.92,.13-5.83,.22-8.75,.39l.6-.1Z"/><path class="d" d="M178.6,51.55c1.36-.51,5.62-.95,2.98-1.26-5.21,.34-3.63,.58-6.73,.95,8.4-.61-2.4,.38,3.69,.27-1.65,.17-3.13,.28-4.53,.38,1.52-.04,2.98-.06,4.36-.06l-.19-.02h-.03c-.37-.04-.49-.06-.08-.05,.03,0,.13-.02,.17-.02,.05-.06,.21-.12,.37-.18,2.44-.06,.39,.09-.37,.18-.03,.02-.09,.05-.1,.07h.03l8.41-.73c-1.79,.05-4.02,.19-7.97,.47Z"/><path class="d" d="M136.19,52.16c.26,.02,.25,.05,.28,.08,.54-.09,.74-.14-.28-.08Z"/><path class="d" d="M139.68,52.17c-.61,.1-1.11,.31-3.1,.41-1.74,0,0-.21-.11-.34-1.19,.2-4.18,.61-.4,.55l.59-.1c3.4-.09,7.79,.13,7.21,.23-1.02-.32-1.91-.53-4.19-.75Z"/><path class="d" d="M159.37,51.63l7-.63-3.6-.16,.2,.21c-4,.15-3.12,.37-3.6,.57Z"/><polygon class="d" points="197.75 50.79 196.85 51.28 200.87 50.45 197.75 50.79"/><polygon class="d" points="206.87 50.3 206.55 50.71 208.95 50.36 206.87 50.3"/><path class="d" d="M444.44,11.3l-2.07,.07c.98-.01,1.61-.04,2.07-.07Z"/><path class="d" d="M459.4,11.57l.37-.19c-.69,.1-.98,.17-.37,.19Z"/><path class="d" d="M431.01,49.03c2.99,.47,6.33,1.16,5.98,.7l-.91-.47c-2.1,0-3.71-.1-5.07-.24Z"/><path class="d" d="M569.38,27.26l-.2,.87c.1,.74,.19,1.44,.21,2.06,.07-.88,0-1.89-.01-2.93Z"/><path class="d" d="M567.61,25.18c.07-.63,.03-1.24,.03-1.86v-.94l-.09-.92c.07,.83,.09,2.03,.06,3.72Z"/><path class="d" d="M362.73,9.47l-2.42,.36c3.77,.12,2.12-.15,2.42-.36Z"/><path class="d" d="M300.32,47.36c2.6,.14,4.66,.18,6.48,.18-3.13-.21-5.65-.55-6.48-.18Z"/><path class="d" d="M450.41,6.82c-1.26,.05-1.81,.13-1.77,.22,1.3-.05,2.04-.11,1.77-.22Z"/><path class="d" d="M314.29,47.44c-.46-.03-.91-.06-1.37-.09-1.9,.1-3.8,.18-6.12,.18,2.31,.16,4.95,.24,7.49-.09Z"/><path class="d" d="M66.84,7.93h-.67c-.06,.06,.24,.04,.67,0Z"/><path class="d" d="M1.22,36.56c0-.85,.03-2.24,.06-3.54-.05,.64-.07,1.7-.06,3.54Z"/><path class="d" d="M243.58,49c-1.93,.1-.31,.06,0,0h0Z"/><path class="d" d="M234.1,47.62c.41-.06,.72-.14,.77-.24-.16,.11-.42,.19-.77,.24Z"/><path class="d" d="M333.57,44.71h.17c-.58-.08-.48-.07-.17,0Z"/><path class="d" d="M240.66,48.91c.73,.03,1.57,.04,2.48,.04-.4-.02-1.15-.03-2.48-.04Z"/><path class="d" d="M241.06,49.1l-1.69,.02c-.24,.08-.02,.12,1.69-.02Z"/><path class="d" d="M246.27,48.88c-1.11,.05-2.14,.06-3.13,.07,.38,.02,.54,.03,.44,.05,.57-.03,1.37-.06,2.69-.12Z"/><path class="d" d="M225.33,3.87l-.41-.05c-1.96,.14-1.1,.13,.41,.05Z"/><path class="d" d="M481.59,46.82h-.22l.29,.04-.06-.04Z"/><path class="d" d="M488.56,46.9c-2.99,.37-4.67,.2-6.91-.04l2.23,1.38,4.68-1.34Z"/><path class="d" d="M408.61,10.57l4.88,.53c-5.92,.47-10.18,.12-5.61,.8,.36-.67,5.12-.56,9.87-.46,4.75,.07,9.5,.14,9.86-.53l3.22,.36c-.92-.03-1.07,.04-1.99,0,6.25,.79,4.68-.88,12.75-.51,2.81,.17,4.77,.41,2.85,.53l6.28-.2c1.82,.05,1.37,.29-.44,.23h9.57l-.07,.05c1.37-.2,4.47-.49,5.98-.61,2.43,.22-1.22,.13-.6,.31l5.3-.27c2.15,.38-2.24,.67-5.9,.57,4.93,1.41,4.4-.29,15.07,.63l-5.01,.11c3.22,.79,7.13,.61,12.79,1.09-1.34-.21-11.32-1.32-5.57-1.58,1.62,.13,3.76,.2,6.86-.09,.03,.48,3.06,.36,6.85,.33l-.26,.64c4.1-.19,3.78-.52,6.19-.81,4.57,.06,5.52,.55,6.6,.97,7.32,.09-5.06-.79,3.6-.92,3.04,.11,5.63,.13,8.37,0,2.74-.13,5.62-.34,9.26-.6,4.26,.14-.74,.4,.79,.56l3.77-.58c.92,0,.63,.16,.48,.24,3.18-.25,.25-.64,5.25-.91,.67-.36,3.24-.15,6.41,.04,1.59,.09,3.33,.18,5.06,.19,1.75,.02,3.41-.1,4.87-.23,1.41,.26-.7,.36-.28,.63,1.96-.06,3.26,.11,4.23,.35,.98,.24,1.63,.52,2.25,.82,1.17,.67,2.32,1.23,4.18,3.85,.65,1.71,1.12,3.5,1.24,5.36-.04-1.03-.02-1.49,.09-1.53,.13-.05,.36,.33,.59,1,.57,1.32,1,3.88,1.15,6.32,.27-1.53,.48-2.88,.47-3.78,.3,2.62,.32,5.29-.03,7.92-.24,.93-.34,.09-.42-1.21l-.05,1.45c-.38,1.36-.62,1.65-.72,1.36-.12-.29-.08-1.16-.14-2.16,.13-.45,.26-.91,.39-1.35,.12-.45,.2-.91,.31-1.35-.1-.97-.3-1.89-.52-2.51-.2-.62-.4-.95-.59-.75,.06,.48,.17,1.41,.14,2.45-.06-.49-.18-.8-.23-.58-.06,.25,0,1.02,.08,2.26-.28,.54-.62,1.07-.93,1.58l.22,.45c-.67,3.16-1.77,6.24-3.32,8.96-.65,1.53-1.3,3.06-2.26,4.38-.92,1.37-2.15,2.68-3.62,3.84-2.93,2.38-7.24,4.11-13.02,4.4,2.83-.64,.56-.88,.7-1.5,1.53,.25,3.72,0,6.06-.73,2.34-.74,4.8-1.96,7.02-3.58-2.41,1.57-2.05,.91-1.5,.46-2.58,1.9-5.74,3.04-9.08,3.64,.17-.51-2.17-.11-4.86-.34,1.02,.49-.9,.71-3.66,.64-2.76-.09-6.38-.37-8.56-.36-.25-.35,.83-.63,6.11-.17-5.78-1.16-7.64,.65-13.33-.39,1.29,.08,1.99,.18,2.51,.05-3.04,.09-10.41-.66-8.66-.83l1.29,.08c-4.29-.35-10.83-.84-16.46-1.06-5.64-.21-10.36-.24-11.03,.15-.08-.11,1.19-.96,1.72-1.1l-15.5,1.97c1.39-.65-3.7-2.69,3.45-2.69-2.04-.22-4.57-.5-8.9-.47,1.39,.16,3.43,1.25,1.51,1.2-5.2-1.07-3.61-.61-10.04-1.6,2.09,.25-.3,1.29-3.6,1.1,.52-.15-.22-1.14,.99-1.21l-8.29,.74c2.06-.11,.41-.94-1.42-1.34,.85,.26-7.12-.35-9.32-.34l3.48,.42c-9.3-.58-9.25,1.24-18.48,.84,1.12-.19,2.81-1.33-1.88-1.64-2.17,.52-9.62,2.41-17.79,2.64l-1.56-.36-6.27,.23c1.96-.39,5.69-.98,9.68-1.54,3.99-.54,8.24-1.01,11.24-1.27-3.47-.38-.96-.42-6.18-.57-1.83-.37,2.86-.37,4.39-.34-4.05-.2-8.09-.44-12.14-.57,.52,.68-9.31,.46-8.86,1.03l13.21-.39c.51,.67-7.68,1.73-16.28,1.41-2.18-.32,1.66-1.16,1.49-1.39-1.12,.21-8.18,.26-8.97,.07l3.66-.28c-4.79-.35-7.84,.7-13.58-.04-1.99-.06-5.92-.93-6.27-.54,3.23,.8,3.83,3.18,1.66,3.73-.69-.06-10.42-.85-12.68-1.25-3.27-.64,4.93-1.38,2.15-1.93-.12,.18-1.93,.39-2.69,.45-2.09-.18,.87-.56-3.67-.53-.76,.67-9.22-.16-2.15,.55-4.44,.16-4.71-.22-9.92-.18,1.66,.44-4.68,1.5-9.12,1.7,.26-.17-.74-.4-1.22-.5-9.09-.03-13.97-.42-22.45-.3-.78-.16-4.87-.3-3.14-.62-1.22,.14-2.34,.38-4.95,.43-5.07-.53,5.83-.16,1.96-.82-.33,.4-6.76,.63-10.48,.92,1.15,.6,8.61,.01,12.33-.28,.03,.84-6.46,1.81-15.3,2.31-7.03,.3-3.06-.51-4.28-.37-13.22,.11-11.23,1.73-22.21,1.37-4.37-.43-.22-1.06-1.2-1.43,5.73-.34,8.81,.13,12.69,.01l-4.79-.14c1.82-.22,5.64-.45,7.73-.35-1.83-.2-7.41-.09-13.82,.05-6.4,.14-13.63,.27-18.73,.27-1.81,.24-4.93,.54-3.44,.71l3.22-.19c2.98,.33-6.05,.82-1.96,.87-4.32,.46-9.15,1.11-15.25,1.08l-1.17-.57c.14,.17,3.99,.22,5.7-.03-2.53,.36-9.37-.49-12.12,.41l4.29,.27c-4.33,.44-9.67,1.37-15.07,1.43,2.48,.49,1.24-.13,5.1,.4-1.68-.36,1.77-.52,4.97-.66,3.2-.12,6.14-.22,3.46-.59,3.97,.68,6.82,.1,11.99,.62-.17-.2-1.84-.32,2.7-.38,.2-.07,.68-.16,.99-.21h.06c.2-.05,.21-.05-.09-.02-1.08-.05-1.96-.12-2.32-.22,2.23-.54,9.44-.79,11.86-1.12,2.69,0-1.12,.27,.36,.44l3.63-.48c.37,.44,7.16,.57,.84,.99l5.7-.12c3.36,.17,7.98,.16,10.82-.1,2.69,.03,6.78-.66,4.44-.25l8.93-.49,.08,.11c8.82-.05,18.15-.97,28.25-.28,2.97-.17,6.04-.29,11.01-.17l.97,.39c3.81-.14,11.45,.38,13.09-.03,2.06,.53,6.68,.55,11.63,.55,4.95,0,10.22-.1,13.58,.03l.26-.5c4.62,.08,9.04-.02,14.78-.16l-.35-.45c4.95-.28,12.7,.6,20.51,.73-.54,.16-2.52,.07-3.92-.07,4.66,.61,9.58,.54,14.4,.43,4.82-.09,9.53-.15,13.75,.35,2.11-.09,3.64,.02,5.11,.18-.2,0-.37,0-.52,0,.22,0,.54,.02,.87,.04,.93,.11,1.89,.22,2.92,.34-.88-.14-1.72-.26-2.46-.32,1.63,.05,4.1,.08,6.52,.05l1.01,.52h.56c2.37,.26,1.92-.16,.66-.56,1.22-.04,2.34-.09,3.21-.18,1.9,.83,6.35,.02,8.95,.97,1.65-.33,12.16,.26,13.49-.53,.08,.11,.79,.2-.52,.15,2.69,.22,5.38,.44,7.81,.31l1.11,.66c1.98-.19,3.95-.34,5.93-.5,3.55,.58,5.02,.88,1.45,1.15,8.61-.23,6.96,.13,14.29-.16l-.38,.37c2.6,.14,6.8-.15,8.35,.27,2.89,.51,10.09,1.07,18.43,1.66,4.17,.31,8.62,.65,12.97,.97,4.32,.33,8.6,.84,12.51,.92-1.51-.58,.28-.41,2.56-.43,2.28,0,5.1-.4,5.29-.97,.97,.07,3.19-.54,.73,.5,3.98-1.29,6.82-2.92,9.03-4.72,.53-.47,1.05-.93,1.55-1.4,.47-.53,.93-1.05,1.37-1.59,.78-1.12,1.49-2.31,1.98-3.66,.71-.7-.53,1.75,.03,1.1,.14-.31,.42-.92,.73-1.54,.26-.63,.55-1.28,.8-1.64,.48-.72-.24,1.22-.8,2.45,1.02-1.92,1.56-3.48,1.89-4.72,.36-1.23,.41-2.16,.46-2.83,.04-1.36-.34-1.8-.65-2.17,.33-.97,.51-1.86,.66-2.66,.18-.8,.23-1.54,.27-2.24,.1-1.4-.07-2.67-.38-4.13,.07-.72,.13-1.69,.23-1.85,.05-.08,.11,.04,.19,.51,.04,.23,.09,.55,.14,.97,.06,.42,.11,.94,.1,1.58,0-.36,.02-.9-.03-1.58-.07-.68-.04-1.49-.21-2.39-.14-.9-.26-1.88-.57-2.87-.15-.5-.24-1.01-.44-1.51l-.6-1.49c-.17-.5-.5-.95-.74-1.41-.28-.44-.48-.92-.83-1.29-.64-.77-1.2-1.51-1.83-2.01-1.22-1.04-2.22-1.45-2.36-1.35-.37-.33-1.34-.82-2.33-1.14-1-.32-1.99-.45-2.38-.48-1.63-.28-2.87-.3-3.91-.33-1.04-.02-1.88,0-2.71,.01-1.65,.02-3.29,.05-6.29,.13l1.67,.07c-2.36,.81-4.99,.26-9.84,.44l.14-.08c-11.12-.36-4.8,.35-15.77-.09l.6,.47c-1.01,1.09-9.72-.52-16.09-.13l2.3,.27c-3.48,.36-9.72-1.39-13.21-1.51-.76-.09,1.2-.15,2.26-.21-9.13-.6-1.18,.63-7.99,.79-1.25-.34,1.62-.86-2.96-.92-2.28-.25-13.3,.96-19.55,.24,1.38,.28,2.74,.55-.43,.71-4.85,.03-13.09-1.13-17.49-.39-.62-.08-.85-.16-.87-.22-3.71,.13-12.05,.09-14.29,.48-3.39-1.72-23.06,.29-22.94-1.27l-11.4-.25,.3-.15c-7.28-.32-9.87-.03-12.44,.27-1.68-.15-.45-.26-.31-.34-10.64-.63-11.7-.63-20.65-.16l-.91-.53c-2.43,.2-15.37-1.29-25.83-1.07,.1-.05,.32-.14,1.16-.18-11.77,.18-28.09-2.35-32.45-.68l-7.77,.19c10.03,.47-1.52,.73,2.6,1.17-3.95-.02-10.18-.88-5.33-.81l.76,.11c1.81-.88-12.46-.74-12.17-1.37-19.75-.53-38.99-1.63-57.5-1.96l2.12,.77-6.45-.17c-1.69-.2-2.26-.62,2.34-.5-2.42-.46-7.73,.2-7.86,.36-9.01-.47,3.54-.79,.77-.86l-3.76-.02,.85,.1c-3.05,.24-3.32,.55-8.86,.47-3.5-.17-1.79-.47-3.17-.5,0-.05-.46-.08-2.12-.04l-8.14-.13,3.25,.6c-3.61,.26-7.65-.09-3.9,.59-2.75-.5-10.34-.73-17.66-.69-7.32,.04-14.38,.17-16.07,.03-5.05,.47-10.03,.45-16.21,.5,1.54,.08,2.46,.71-2.86,.76,1.92-1.39-9.76-.35-14.09-1.21,3.86,.55-15.14,.52-9.08,1.28-4.45,0-.29-.49-3.67-.73-10.56,.9-23.32,.67-36.39,1.43-.19,.19,2.01,.32-.78,.76l-6.95-.41c-2.57,.26-2.31,1.18-7.06,.89,.68,.1,1.68,.26-.04,.43-6.41,.23-12.88,.58-19.38,1.07-6.49,.65-13.02,1.31-19.56,1.97-3.27,.32-6.54,.64-9.82,.97l-2.46,.23c-.82,.07-1.63,.14-2.53,.28-.89,.14-1.84,.35-2.77,.77-.93,.41-1.83,1.04-2.53,1.83-1.41,1.6-1.99,3.49-2.37,5.22-.36,1.76-.5,3.47-.61,5.14-.2,3.29-.43,6.53-.72,9.78,.43-3.51,.4-1.16,.35,1.52,.13-1.75,.43,.05,.68-.29l-.94,10.86c.61,2-.25,11.67,.35,12.82l-.03-3.45c.63,4.6,1.82-6.37,2.76-5.68-.72-5.15,1.6-13.5,.6-21.95,.24-1.85,.27,1.59,.52,.6-.18-1.07-.27-2.26-.28-3.76,0-1.48,.05-3.31,.58-5.42,0,.17,0,.33,0,.5,.26-1.5,.72-2.78,1.39-3.62,.67-.84,1.55-1.3,2.64-1.55,1.06-.26,2.36-.32,3.62-.42,1.25-.09,2.49-.18,3.73-.27,4.98-.35,10.18-.68,17.68-1.26l-1.15-.37c3.23-.24,3.92-.16,5.44-.19,3.63-1.07-9.05,.82-5.75-.29,2.18,.29,7.86-.29,13.37-.73,5.52-.36,10.87-.69,12.35-.24,4.97-.33-1.49-.45,3.47-.78l1.34,.21,1.23-.47c3.26-.16,4.93,.1,5.06,.34-.79,.02-2.24,.22-3.08,.3,4.24,.07,11.89-.96,13.35-.89-1.6,0-3.19,.08-4.78,.12,3.38-.34,6.96-.49,10.63-.67,3.67-.17,7.42-.34,11.16-.51,7.48-.31,14.89-.82,21.45-1.2l-1-.2c10.01-.65,8.04,.05,19.04-.4l-.4,.06c2.2-.28,5.14-.46,8.15-.51-2.77,.32,5.24,.4,1.6,.76,10.87-.53,5.37-.39,12.55-1.27l1.66,.36c2.45-.35,2.65-.53,8.15-.66-4.51,.35,3.51,.54-1.54,1,5.77,.37,10.05,.13,13.55-.04,3.5-.13,6.23-.22,8.87,.39,5.3-.98-9.98-.65-7.02-.84-2.49-.35,4.38-.73,8-.6,3.69,.05,6.26,1.36,15.53,1.42-.92-.01-.99,.07-1.91,.05,3.47,.29,6.8-.31,11.05,.17,2.39-.57,5.53,.14,6.23-.64l-8.51,.04c4.82-.15,9.36-.96,17.3-.37-.62,.15-2.99,.31-4.62,.4,2.32,.28,4.48-.07,6.88,.22-.7,.78-10.34-.03-15.52,.48,2.49,.38,9.78-.39,7.17,.42,3.75-1.02,9.13,.31,15.43-.4l-.42,.47c.99-.06,3.06-.24,4.89-.19l-3.32,.55c5.09-.44,9.79,.65,14.67,.51-10.21-.26-2.28-.63-6.59-1.1,12.61-.29,7.21,1.44,21.31,1.6-1.91,.01-7.16-.48-4.17-.62,2.68,.17,6.22,.45,7.86,.74,9.34,.16-1.42-.53,2.56-.71,3.16,.67,4.59-.12,8.69-.17v.48c10.65,.66,2.87-.91,12.44-.23l-4.07,.54h5l-1.05,.5c5.45-.23,7.14-.07,12.46,.26-1.23-.38,.72-.85,5.44-.71,3.21,.4-1.82,.4,4.87,.56-1.52,.25-3.19,.57-6.08,.03-.3,.15-1.5,.25-1.81,.4,3.45,.44,8.7,.37,11.12,.45-.93-.05-2.04-.11-2.61-.2l9.71-.33c1.52,.23,.3,.34-.9,.44,1.96,.02,3.33-.16,6.22-.1-.76,.37-.6,.78-4.69,.82l9.25-.12c.61,.19,4.72,.63,3.52,.73,5.11,.41,12.58-.33,19.36,.2,.36-.06,1.07-.11,2.51-.12,6.38,.3,12.01,.98,19.59,.68l4.27,.83c5.93,.01-5.78-1.06,4.09-1.03,6.99-.02,2.59,.68,5.03,.94,3.48-.25,9.54-.8,15.94-.04-2.13,.07-3.79-.08-5.77-.09Zm73.09,1.06c-1.42,.08-4.24,.36-5.28,.07,1.62-.53,2.86-.25,5.28-.07Zm84.69,25.78c.22-1,.77-2.47,1.34-4.17-.1,.64-.29,1.31-.51,2.01-.11,.35-.22,.71-.35,1.07l-.48,1.09Zm-301.61,10.58l.15-.03c3.16,.11,2.04,.06-.15,.03Zm-6.55-.05c-.66,.08-.61,.15-.33,.21,.45-.13,1.92-.18,3.6-.18-.47-.12-1.32-.18-3.27-.03ZM204.68,.34l1.28,.14c-2.88,.12-2.08,0-1.28-.14Z"/><path class="d" d="M567.82,25.45c.08-.38,.17-.49,.26-.58-.09-.53-.18-.53-.26,.58Z"/><path class="d" d="M363.18,9.4h-.22c-.12,.01-.19,.04-.23,.07l.45-.07Z"/><path class="d" d="M359.74,42.93c1.35,.08,2.1,.18,2.6,.28,.07-.12-.54-.22-2.6-.28Z"/><path class="d" d="M223.56,49.93l4.19-.28c-2.03,.1-2.76,.02-3.78-.02,.1,.11,.9,.24-.41,.3Z"/><path class="d" d="M187.03,48.7c-.61,.1-1.3,.08-1.9,.18l.18,.21c2.61-.17,4.42-.46,1.72-.39Z"/><path class="d" d="M219.61,48.49c-.35-.39-2.97-.13-5.91,.09l.52-.02c-.84,.61,2.28,.27,5.39-.06Z"/><path class="d" d="M213.02,48.63c-.9,.06-1.83,.12-2.71,.14-.33,.24,1.1,0,2.71-.14Z"/><path class="d" d="M249.93,48.44c-1.4-.05-.86,.55-1.65,.41-1.54,.57,9.27-.96,1.65-.41Z"/><polygon class="d" points="217.18 47.27 218.25 47.72 219.88 47.24 217.18 47.27"/><path class="d" d="M240.4,46.76l-4.7,.03c.07,.08-.52,.15-1.25,.22,2.89-.09,6.07-.1,5.95-.25Z"/><path class="d" d="M234.45,47c-1.51,.04-2.94,.11-3.78,.22,.82-.03,2.57-.11,3.78-.22Z"/><polygon class="d" points="223.59 46.84 224.98 46.9 228.3 46.81 223.59 46.84"/><path class="d" d="M290.91,45.56l5.13-.21c.52-.18-.88-.27-2.79-.17-1.23,.13-3.13,.22-2.34,.38Z"/><path class="d" d="M275.37,44.49c1.39,.07,1.49,.18,2.27,.33l.14-.62-2.41,.3Z"/><path class="d" d="M290.33,44.05c.51-.18,7.44-.59,.94-.47-.52,.18-5.66,.38-.94,.47Z"/><polygon class="d" points="367.65 44.72 366.35 44.71 366.52 45.74 367.65 44.72"/><path class="d" d="M435.86,44c-6.07-.45-1.47,.58-6.95,.08-1.44,.19,4.48,.4,3.01,.56,3.68-.13,5.6,.08,3.94-.64Z"/><path class="d" d="M431.92,44.64c-.59,.02-1.21,.05-1.88,.09,1.07-.03,1.57-.06,1.88-.09Z"/><polygon class="d" points=".31 50.87 0 54.77 .41 52.26 .31 50.87"/><path class="d" d="M.88,58.39l-.67,.9,.53,2.36c0-.88-.02-2.6,.14-3.27Z"/><path class="d" d="M492.57,12.96l.3-.16c-.61-.17-1.52-.18-3.36-.2l3.06,.36Z"/><polygon class="d" points="439.5 11.82 440.41 11.86 438.72 11.23 439.5 11.82"/><path class="d" d="M394.96,11.42c1.82,.08,3.95,0,5.78,.09-3.96-.01-6.25-.83-5.78-.09Z"/></g></g><g id="c"/></svg>