<?xml version="1.0" encoding="UTF-8"?><svg id="a" xmlns="http://www.w3.org/2000/svg" xmlns:xlink="http://www.w3.org/1999/xlink" viewBox="0 0 94.86 87.48"><defs><style>.w{fill:#8df78d;}.x{clip-path:url(#l);}.y{clip-path:url(#h);}.a`{fill:#fcf;}.aa,.ab{isolation:isolate;}.ab{fill:#fff;font-family:WindowMarkers, WindowMarkers;font-size:23px;}.ac{clip-path:url(#e);}.ad{fill:none;}.ae{opacity:.61;}.af{clip-path:url(#q);}</style><clipPath id="e"><rect class="ad" width="94.86" height="87.48"/></clipPath><clipPath id="h"><rect class="ad" y="0" width="94.86" height="87.48"/></clipPath><clipPath id="l"><rect class="ad" y="0" width="94.86" height="87.48"/></clipPath><clipPath id="q"><rect class="ad" x="50.47" y="6" width="34.51" height="30.33"/></clipPath></defs><g id="b" transform="translate(-1765.057 -21.789)"><g id="c" transform="translate(1765.057 21.789)"><g id="d" transform="translate(0 0)"><g class="ac"><g id="f"><g id="g" transform="translate(0 -0.001)"><g class="y"><g id="i"><g id="j" transform="translate(0 0)"><g id="k"><g class="x"><g id="m"><path id="n" class="w" d="M92.86,40.62l-21.89,15.63,4.33,25.76c.23,1.45-.24,2.93-1.28,3.97-.3,.31-.65,.57-1.03,.79-1.74,.99-3.88,.93-5.56-.16l-22.68-14.95-24.53,11.64c-1.81,.85-3.95,.61-5.52-.63-1.55-1.17-2.2-3.18-1.62-5.04l7.88-24.89L1.47,34.2c-1.14-1.04-1.67-2.6-1.4-4.12,.05-.35,.14-.7,.29-1.02,.8-1.8,2.58-2.96,4.55-2.97l27.56-.41L44.97,2.57c1.43-2.47,4.59-3.31,7.06-1.88,.99,.58,1.77,1.47,2.2,2.53l9.15,24.62,27.21,4.27c1.95,.26,3.57,1.66,4.1,3.56,.5,1.87-.23,3.85-1.83,4.95"/></g></g></g></g><g id="o" class="ae" transform="translate(50.471 5.997)"><g id="p"><g class="af"><g id="r"><path id="s" class="a`" d="M48.74,6.94l3.11,11.8c.33,1.45,1.78,2.36,3.23,2.03s2.36-1.78,2.03-3.23c-.02-.08-.04-.16-.07-.24l-3.11-11.8c-.46-1.42-1.99-2.19-3.4-1.73-1.33,.43-2.11,1.8-1.8,3.17"/><path id="t" class="a`" d="M56.13,29.61c3.47,0,3.48-5.4,0-5.4s-3.48,5.4,0,5.4"/><path id="u" class="a`" d="M85.55,32.84c-5.35-.93-10.68-1.93-16-2.98-1.42-.46-2.94,.31-3.41,1.73-.46,1.42,.31,2.94,1.73,3.41,.08,.03,.16,.05,.24,.07,5.32,1.06,10.65,2.05,16,2.98,1.43,.36,2.89-.47,3.32-1.89,.38-1.43-.46-2.91-1.88-3.32"/></g></g></g></g></g></g></g></g></g></g></g><g id="v" class="aa" transform="translate(1811.689 66.091)"><text class="ab" transform="translate(32.73 44.3)"><tspan x="0" y="0">sign</tspan></text><text class="ab" transform="translate(38.16 59.3)"><tspan x="0" y="0">up</tspan></text></g></g></svg>