<?xml version="1.0" encoding="UTF-8"?><svg xmlns="http://www.w3.org/2000/svg" viewBox="0 0 154.68 154.68"><defs><style>.d{fill:#fff;}.e{fill:#f6aaff;}.f{fill:#f6deff;}</style></defs><g id="a"/><g id="b"><path class="e" d="M82.67,6.8l19.3,39.11c.86,1.75,2.54,2.97,4.47,3.25l43.16,6.27c4.87,.71,6.81,6.69,3.29,10.12l-31.23,30.44c-1.4,1.36-2.04,3.33-1.71,5.25l7.37,42.99c.83,4.85-4.26,8.55-8.61,6.26l-38.6-20.3c-1.73-.91-3.8-.91-5.52,0l-38.6,20.3c-4.35,2.29-9.44-1.41-8.61-6.26l7.37-42.99c.33-1.93-.31-3.89-1.71-5.25L1.8,65.56c-3.52-3.43-1.58-9.42,3.29-10.12l43.16-6.27c1.93-.28,3.6-1.5,4.47-3.25L72.02,6.8c2.18-4.41,8.47-4.41,10.65,0Z"/><path class="f" d="M141.79,57.81c-10.54,.29-21.04-.7-31.33-2.98-3.14-.7-4.47,4.12-1.33,4.82,10.71,2.38,21.69,3.45,32.66,3.16,3.21-.09,3.22-5.09,0-5h0Z"/><path class="f" d="M98.94,57.71c3.22,0,3.22-5,0-5s-3.22,5,0,5h0Z"/><path class="f" d="M92.82,42.94c-1.15-7.12-3.93-13.99-8.04-19.91-.77-1.11-2.19-1.62-3.42-.9-1.1,.64-1.67,2.31-.9,3.42,3.9,5.62,6.45,11.96,7.53,18.72,.21,1.33,1.88,2.08,3.08,1.75,1.42-.39,1.96-1.74,1.75-3.08h0Z"/><g><path class="d" d="M58.17,57.41h.21l.09,.06,.08-.06h1.07l.09,.06h1.24l.08,.06h1.33s.06,.03,.06,.08h.47c.1,.08,.28,.12,.54,.15,.38,.06,.59,.11,.64,.15h.54l.08,.06h.36s.06,.03,.06,.08h.13s.14,.07,.36,.09c0,.03,0,.04,.02,.04h.43s.14,.05,.36,.08c.31,.06,.47,.11,.47,.15-.05,.01-.08,.02-.09,.02v.08h.21v-.08s.06,.04,.06,.13h.19c.05,.04,.23,.08,.53,.11,.06,.12,.12,.19,.17,.19,.2,.1,.3,.19,.3,.26,0,.09,.11,.14,.32,.15,.15,.02,.23,.06,.23,.09-.04,0-.06,.04-.06,.11h-.17l-.09-.06h-.11v.06c.11,.03,.24,.09,.39,.21,.08,0,.18,.08,.32,.23l.36,.17c.06,.14,.11,.21,.13,.21,.09,0,.28,.17,.56,.51,.16,.34,.31,.59,.43,.75,0,.14,.04,.28,.11,.41-.02,0-.08,.17-.15,.51-.12,.09-.22,.19-.28,.32-.08,0-.14,.02-.19,.06h-.13c-.02,.2-.09,.33-.21,.38h-.17c0,.05-.02,.1-.06,.15l.13,.15s-.08,.07-.11,.21l-.08,.06h-.21c-.08-.04-.11-.1-.11-.19h-.09l-.08,.06c-.15-.04-.23-.1-.25-.19-.02,0-.12-.1-.28-.3-.11,0-.25-.06-.41-.19-.04,0-.09-.04-.17-.13h-.02v.13c.08,0,.14,.04,.19,.13l.3,.24v.06h-.06v.06h.06s.04-.11,.11-.17c.01,.05,.06,.13,.15,.23v.08c-.09-.02-.13-.07-.13-.13h-.08v.08h.08v.19h.13v-.13s.06,.03,.06,.06v.08s-.12,.06-.38,.08l-.04-.06s.04-.07,.04-.09c-.15-.26-.25-.41-.3-.45-.03,0-.14-.14-.34-.41-.23-.16-.46-.29-.71-.39l-.3-.23h-.02v.11h-.15c0-.1-.09-.17-.28-.21-.13-.14-.48-.28-1.07-.43,0-.03-.07-.08-.21-.15v-.02h-.17l-.09-.06h-.28s-.16-.07-.38-.09c0-.01-.01-.02-.04-.02h-.51s-.06-.02-.06-.08h.28v-.06h-.28v-.08h-.47s-.27-.09-.7-.17c-.08-.06-.26-.11-.55-.15v-.06h-.81l-.09-.06h-1.26s-.08-.06-.09-.06h-1.58l-.09,.06h-.9l-.08,.06h-.7s-.02,.08-.06,.08h-.28c-.09,.09-.34,.16-.75,.21-.21,.03-.33,.06-.36,.09h-.28c0,.05-.12,.11-.36,.17-.16,.06-.39,.12-.68,.17,0,.03-.01,.04-.04,.04h-.26c0,.09-.29,.21-.87,.38-.08,.09-.24,.18-.49,.26v1.03l.06,.08v.36s.07,.15,.09,.38c.01,0,.02,0,.02,.02v.3l.06,.08v.24c.06,0,.09,.02,.09,.06v.28s.06,.16,.08,.32c.03,0,.06,.05,.09,.15v.13s.06,.04,.06,.11h.04s.05-.02,.08-.08v-.04h-.11v-.19s.03-.08,.06-.08h.09c.08,.13,.14,.21,.21,.25-.03,.04-.04,.06-.04,.08,.03,.04,.15,.07,.38,.09,.08,.03,.11,.08,.11,.15h.15c.11,.12,.26,.19,.45,.19,.39,.09,.7,.19,.94,.32l.13-.02c0,.05,.07,.11,.21,.17,.04,.05,.14,.09,.32,.11v.06h.26l.08,.06h.26l.09,.06h.02l.15-.02c.04,.1,.11,.17,.21,.21h.28l.09,.06h.54s.06,.03,.06,.08h.21c.11,.05,.17,.09,.17,.11h-.11v.06h.11v-.06l.21,.13h.49l.07,.06h.41s.06,.03,.06,.08h.26s.06,.03,.06,.06h-.11v.06c.08,0,.11,.02,.11,.06h.43l.09,.08h.49s.14,.05,.34,.08v.06h.15v-.06h.06c.01,.08,.04,.11,.08,.11h.04v-.11h.06c.06,.08,.09,.15,.09,.23h.49l.08,.06h.41l.08,.08h.3s.06,.02,.06,.06c-.04,0-.06,.02-.06,.06v.02h.08l.09-.06h.15c.05,.14,.17,.21,.38,.21,.36,.05,.54,.11,.54,.17,0,.11,.03,.17,.08,.17l.09-.06h.04c.08,.08,.24,.12,.49,.15,.25,.21,.43,.32,.54,.32v.08h.02l.09-.06h.04s.08,.06,.11,.06v.15s-.06,.02-.06,.06h-.06v-.06h-.15v.11h.02l.09-.06h.04c.05,.2,.18,.3,.38,.3,0,.1,.12,.18,.38,.25,.11,.23,.36,.42,.73,.58,.04,0,.09,.07,.15,.21,.08,.01,.15,.06,.23,.15,.09,0,.13,.03,.13,.08,0,.09,.14,.19,.43,.32,0,.11,.12,.24,.38,.38,0,.13,.1,.23,.3,.32,.06,.18,.15,.28,.26,.32,.08,0,.16,.11,.26,.32,.05,0,.19,.14,.43,.43,.15,.19,.29,.33,.41,.43,0,.09,.06,.21,.19,.38,.1,.09,.2,.24,.3,.45,.05,0,.12,.11,.21,.32,.2,.38,.3,.59,.3,.64l.24,.7c0,.11,.02,.19,.06,.23v.21l-.06,.09v.34s-.09,.19-.11,.47c-.04,0-.07,.11-.09,.34-.23,.35-.41,.58-.55,.7,0,.09-.12,.21-.38,.38,0,.1-.1,.19-.3,.28,0,.09-.13,.22-.38,.41-.04,.11-.21,.24-.51,.39-.06,.14-.24,.26-.53,.36-.09,.14-.24,.25-.45,.34,0,.04-.11,.11-.32,.21-.29,.18-.43,.29-.43,.34,0,.14-.24,.28-.73,.41l-.19,.17c-.18,.04-.33,.09-.45,.17h-.19v-.06h-.06v.06h.06c0,.14-.28,.26-.85,.36-.2,.04-.37,.11-.51,.23h-.3l-.08,.06h-.43l-.09,.06h-.64l-.08,.06s-.03-.06-.08-.06h-.3l-.09,.06h-.47s-.06,.06-.08,.06h-.3l-.08,.06h-.75c0,.06-.02,.09-.06,.09h-1.33s-.06-.03-.06-.09h-.54s-.15-.05-.38-.08v-.04h.26v-.06h-.26v.06h-.26c-.06-.04-.28-.09-.66-.15,0-.01-.01-.02-.04-.02h-.28s-.05-.06-.15-.11c0-.06-.16-.12-.49-.17,0-.02,0-.04-.02-.04h-.21v-.06c.11,0,.17-.04,.17-.11h.06v.06h.15c.17,.1,.44,.21,.81,.32v.06h.06v-.09h-.06s.02-.06,.06-.06c.05,.1,.09,.15,.11,.15,.04,0,.06,.02,.06,.06h.17l.09-.06s.06,.04,.06,.11h.81v-.06h-.32c-.14-.05-.23-.1-.26-.15-.69-.15-1.06-.23-1.13-.23-.15-.14-.39-.23-.71-.28-.21-.05-.35-.13-.41-.24-.44-.15-.67-.23-.68-.23-.14-.23-.39-.39-.75-.49,0-.05-.11-.12-.32-.21,0-.03-.18-.14-.53-.34,0-.03-.18-.14-.53-.36,0-.09-.13-.18-.39-.26-.16-.2-.31-.3-.43-.3-.15-.09-.24-.19-.28-.3-.26-.1-.4-.18-.41-.23,0-.09-.08-.16-.23-.21-.11-.16-.24-.27-.38-.32,0-.03-.07-.08-.21-.17h.06v-.06h-.06v.06s-.06-.02-.06-.06v-.15c-.11,0-.24-.14-.38-.43-.21-.29-.32-.47-.32-.54-.01,0-.08-.07-.21-.21v-.17h-.06v.09h-.06s-.06-.16-.17-.36l.06-.08v-.47c.06-.11,.11-.17,.15-.17h.08c0-.06,.07-.2,.21-.41,.04,0,.06-.04,.06-.13,.05,0,.12,.03,.21,.08h.09s.09-.11,.11-.32c.06,0,.11-.04,.13-.13l-.06-.09,.21-.15h.43c.15,.24,.31,.38,.47,.43,0,.15,.11,.26,.32,.32,0,.14,.13,.28,.4,.41,0,.11,.14,.23,.41,.34,0,.14,.15,.26,.45,.36,.04,.1,.11,.16,.21,.17,0,.06,.18,.19,.54,.38,0,.05,.09,.1,.26,.15,.18,.23,.33,.34,.45,.34,0,.08,.14,.19,.41,.34,0,.11,.2,.23,.6,.36,.05,.11,.19,.21,.41,.28,.12,0,.24,.09,.34,.26,.44,.09,.68,.19,.73,.32,.55,.15,.83,.28,.83,.38h.21l.34,.11h.26v.06h.21v-.06h-.21s-.06-.07-.17-.09c-.06,0-.21-.04-.43-.11-.33-.19-.53-.28-.6-.28-.1,0-.15-.03-.15-.09h-.21c-.14-.15-.26-.23-.38-.23-.08,0-.11-.02-.11-.06h.06v-.06s-.06-.03-.06-.09h-.06v.09h.06v.06h-.06s-.06-.04-.11-.11v-.04h.06v-.06h-.06v.06h-.09s-.06-.04-.11-.11h.06v-.06h-.06v.06c-.18-.08-.34-.16-.49-.26-.08,0-.11-.02-.11-.06v-.06h.11c.11,.08,.24,.12,.38,.15v.11h.02s.04-.02,.09-.06c.08,.03,.11,.08,.11,.17h.06l.15-.02v.08h.04l.08-.06s.22,.11,.58,.32c.34,.06,.57,.14,.7,.23,.04,0,.06,.03,.06,.09h.11v-.06h.06s.05,.08,.15,.11h.28l.09,.06h.43c.11,.06,.29,.11,.54,.15v.11h.21l.08,.06h1.11l.08,.06,.09-.06h2.39l.09-.06h.38l-.04-.15h.26l.09-.06h.34l.09-.06h.51l.09-.06h.15v-.11h.06v.11h.11v-.15s.13-.07,.39-.13c0-.02,.01-.04,.04-.04h.28s.11-.06,.19-.06v-.17h.06v.11h.06c0-.12,.12-.21,.38-.26,0-.01,0-.02,.02-.02,.04,.01,.07,.02,.09,.02,.06-.14,.14-.23,.23-.28,.02,0,.06,.03,.09,.08v.09l-.06,.09s.03,.05,.08,.08h.04v-.26l.06-.08v-.11s-.06-.08-.06-.09v-.28s-.07-.16-.09-.32c-.04-.14-.08-.25-.13-.32v-.15c-.06,0-.15-.16-.26-.49-.29-.29-.43-.48-.43-.58,0-.09-.09-.15-.26-.19,0-.16-.09-.28-.26-.36-.16-.26-.31-.39-.43-.39,0-.09-.08-.19-.23-.3,0-.09-.09-.18-.26-.28-.21-.21-.32-.33-.32-.34-.15-.25-.31-.38-.49-.38-.18-.25-.34-.38-.49-.38-.25-.24-.44-.36-.58-.36-.04-.04-.13-.06-.28-.08,0-.14-.29-.26-.86-.36-.09-.15-.19-.23-.32-.23-.14-.03-.21-.06-.21-.09v-.02c.48,.1,.71,.19,.71,.28,.08,.03,.16,.06,.26,.11h.15v-.06c-.08,0-.14-.05-.21-.15l-.64-.23c0-.11-.29-.23-.88-.34-.18-.06-.26-.12-.26-.17h-.15s-.31-.11-.81-.19c-.08-.08-.17-.12-.28-.13v-.06h-.26l-.09-.08h-.28l-.09-.06h-.34l-.09-.06h-.28c-.25-.11-.48-.18-.7-.19v-.06h-.38l-.08-.08h-.3s-.39-.12-1.03-.24c-.05-.09-.23-.17-.54-.24-.08,0-.14-.02-.19-.06h-.34l-.09-.06h-.28s-.06-.02-.06-.08h-.21c-.06-.06-.37-.15-.92-.26-.24-.08-.37-.13-.39-.17-.43-.09-.82-.19-1.17-.32,0-.06-.25-.17-.75-.32-.02-.1-.16-.2-.39-.3-.08-.08-.13-.16-.17-.24-.21-.06-.32-.17-.32-.32-.03,0-.08-.08-.15-.24l.06-.08c-.13-.12-.19-.31-.21-.54-.04,0-.06-.11-.08-.32-.03,0-.06-.06-.09-.19v-.28l-.06-.09v-.3c-.06,0-.09-.02-.09-.06v-.19h-.06v.36l.06,.08v.24c.06,0,.09,.02,.09,.06v.32h-.04s-.08-.23-.17-.68c-.03,0-.07-.22-.13-.66-.02,0-.04-.01-.04-.04v-.94s.06-.14,.09-.36c.01,0,.04-.06,.08-.17l-.06-.09v-.13s.03-.06,.06-.06v.13h.06v-.13h-.06v-.06s.07-.12,.21-.3c.19-.4,.28-.67,.28-.81,.06,0,.14-.17,.24-.51,.09-.05,.16-.18,.23-.38,.11,0,.19-.05,.23-.15l-.06-.09c.11,0,.26-.12,.43-.38,.02,0,.13-.06,.32-.19l.06-.09v-.09h-.02c-.06,.06-.16,.12-.3,.19h-.06v-.19s.03-.06,.06-.06h.21l-.04-.13h.04l.09,.06h.02v-.04l-.02-.13s.09-.09,.25-.26h.04l.09,.06h.02c0-.15,.09-.23,.26-.23,.08-.1,.17-.15,.28-.15v-.06h-.13v-.06c.41-.11,.62-.24,.62-.38,.06,0,.19-.13,.38-.38,.41-.08,.73-.18,.94-.32,.25-.08,.49-.13,.71-.17,0-.02,.08-.07,.23-.13,0-.06,.1-.1,.3-.11,0-.01,0-.02,.02-.02h.28s.16-.07,.38-.09c.04,.03,.08,.04,.13,.04h.19c.08-.08,.19-.12,.36-.15,0-.01,.04-.04,.11-.09h.38s.02-.08,.06-.08h.9l.08-.06h.73l.08-.06Zm-9.42,4.79l.04,.06v.02s-.02,.06-.06,.06l-.04-.06v-.02s.03-.06,.06-.06Zm0,.43l.04,.06v.13c0,.05-.02,.08-.06,.08l-.04-.08v-.13s.03-.06,.06-.06Zm.09-.19h.04v.04s-.02,.06-.06,.06h-.04v-.02c0-.05,.02-.08,.06-.08Zm-.06,4.12s.06,.02,.06,.06v.06h-.06v-.11Zm.06-4.34h.06v.09h-.06v-.09Zm.21,14.66c.08,.04,.11,.07,.11,.09v.06h-.09v.06h.09v-.06c.04,.08,.09,.11,.17,.11v.04s-.04,.06-.11,.06v.11c.08,0,.11,.02,.11,.06h-.06v.06h.06v-.06h.06c0,.08,.02,.13,.06,.17h-.06v.09h.06v-.09c.2,.2,.34,.31,.43,.32l-.06,.09v.08s.05,.08,.15,.15c-.06,0-.09,.02-.09,.06h-.06s-.13-.12-.32-.38c-.29-.33-.43-.5-.43-.51,0-.05-.08-.19-.23-.43v-.04c.11,0,.18-.01,.21-.04Zm-.04-.66v.06h.06v-.06h-.06Zm.06,.11v.15h.09s.02-.06,.06-.11v-.04h-.15Zm.09-14.87h.06v.04h-.06v-.04Zm.06,14v.11h.06v.09l-.11,.21v.23h.06v-.15l.11-.19v-.19s-.06-.04-.06-.11h-.06Zm.06-14.19v.08h-.06v-.02s.02-.06,.06-.06Zm0,.19h.06v.04h-.06v-.04Zm0,14.49v.15h.06v-.15h-.06Zm.11-1.13s.06,.04,.06,.08l-.06,.02s-.06-.02-.06-.06l.06-.04Zm0-7.09v.08h.06v-.08h-.06Zm.06,8.85v.11h.06v-.11h-.06Zm.11-15.39h.04c0,.05-.02,.08-.06,.08h-.04s.03-.08,.06-.08Zm.15-.19v.13s-.06,.02-.11,.06v-.08s.04-.06,.11-.11Zm-.11,16.82v.06h.06v-.06h-.06Zm.11-17.01v.13s-.06-.02-.06-.06c0-.05,.02-.08,.06-.08Zm.38-.24h.06v.19c-.11,.04-.24,.12-.38,.24h-.06v-.06h.06v-.13h-.06s.03-.06,.06-.06h.06v.06h.06v-.06h-.06v-.02l.26-.17Zm-.38,17.31v.06h.06v-.06h-.06Zm.26,.32h.06s.08,.11,.17,.32c.14,.05,.21,.09,.21,.11v.06h-.06v-.06h-.09v.06c.06,0,.09,.04,.09,.11v.04h.06v-.15h.06s.06,.03,.06,.06v.15s-.06,.04-.06,.11h-.06s-.06-.02-.06-.06h.06v-.06h-.06v.06h-.09s-.06-.02-.06-.06h.06v-.06s-.06-.06-.08-.17c-.04,0-.14-.11-.3-.32v-.09c.06,0,.09-.02,.09-.06Zm-.06-3.99h.02v.06h-.02v-.06Zm.06,.87v.06h.06v-.06h-.06Zm.17-.54v.06h.06v.11c-.08,.04-.13,.06-.17,.06v.26h.11v-.06h.06c.04,.06,.06,.1,.06,.11h.09v-.06l-.15-.06v-.06s.06-.05,.06-.15h.15v.15h.06v-.06h.06v.11h.06v-.26h-.02l-.09,.06h-.06s-.07-.11-.21-.19v-.04h-.06Zm-.11,0v.06h.06v-.06h-.06Zm0,.11v.06h.06v-.06h-.06Zm.11,.11h.06v.15s-.06,.02-.06,.06c-.04,0-.06-.02-.06-.06v-.02s.06-.09,.06-.13Zm-.06,.32v.06h.06v-.06h-.06Zm0,3.7h.06v.06s-.06-.02-.06-.06Zm.06,.06h.06v.06s-.06-.02-.06-.06Zm.06-4.13s.06,.03,.06,.06h-.06v-.06Zm.11,3.76v.06h-.06s.03-.06,.06-.06Zm.15,.55h.06c0,.08,.04,.11,.11,.11v.09h-.06s-.06-.05-.11-.15v-.06Zm.06-.11c.11,.05,.17,.09,.17,.11v.11h-.06c0-.08-.03-.11-.08-.11h-.04v-.11Zm1.62-19.62s-.06,.09-.17,.13v.04h-.23s-.11,.07-.26,.21c-.28,.16-.43,.24-.47,.24-.15,.24-.29,.36-.43,.36v.13h.04c.12-.04,.29-.18,.51-.43,.19-.08,.34-.2,.47-.38l.09,.08c.16-.11,.31-.2,.45-.26,0-.04,.02-.06,.06-.06v-.06h-.06Zm-1.56,16.62v.06s.06,.02,.06,.06h.06v-.06s-.06-.02-.06-.06h-.06Zm.06-.92v.06h.06v-.06h-.06Zm0,.23v.09h.06v-.09h-.06Zm0,4.02h.06v.06s-.06-.02-.06-.06Zm.06-3.65v.09c.06,0,.09,.02,.09,.06h.06v-.06s-.06-.03-.06-.09h-.09Zm.09,3.48h.06c0,.11,.09,.21,.28,.28,.1,.16,.31,.31,.62,.43,.12,.13,.19,.21,.19,.26,.1,0,.15,.04,.15,.11h.06v-.06h.11l-.06,.09v.02h.15c.06,.03,.12,.11,.17,.26h-.06s-.23-.13-.54-.38c-.1,0-.18-.05-.23-.15-.36-.25-.59-.38-.68-.38,0-.03-.02-.06-.06-.11v-.06h.06v.06h.06v-.06s-.06-.02-.06-.06h-.06v.06h-.06s-.06-.02-.06-.06h.06v-.06h-.06v.06h-.09s-.06-.02-.06-.06h.09v-.06h-.09v-.09c.06,0,.09-.03,.09-.08Zm-.06-10h.02v.06h-.02v-.06Zm.06,6.24v.06h.06v-.06h-.06Zm.06,.11v.06h.06v-.06h-.06Zm0,.43v.06h.06v-.06h-.06Zm.06-.64v.09h.11v-.09h-.11Zm.04,3.82h.02l.32,.26v.04c-.21-.04-.32-.1-.32-.19l-.02-.11Zm.08-3.67v.06c.09,.01,.18,.09,.26,.23v.09l-.28-.26h-.04v.09c.09,.16,.23,.28,.43,.34l-.06,.09c.01,.06,.08,.11,.21,.15v.02h.06v-.06s-.08-.04-.11-.11c-.05-.1-.1-.15-.15-.15v-.06h.11c.09,.18,.21,.3,.36,.38h.02v.06h-.11v-.06h-.06v.06s.12,.09,.28,.26l.26,.15c.01,.09,.04,.13,.09,.13h.11v-.02l-.06-.09h.06s.06,.03,.09,.09c-.03,.04-.04,.08-.04,.11h.11c0-.06,.02-.09,.06-.09,0,.05,.03,.1,.09,.15h-.15v.04s.11,.14,.32,.3c.2,.2,.34,.34,.41,.41,.05,0,.08,.04,.08,.11h.21c0,.05,.07,.11,.21,.17,.06,.11,.19,.21,.39,.3,.14,.06,.21,.11,.21,.13,.06,.11,.13,.18,.21,.21h.17c.16,.2,.33,.33,.49,.38,.16,.04,.29,.14,.38,.32h.11v-.04l-.11-.17h.06s.09,.07,.21,.21h-.09v.06h.09v-.06h.08v.11c.14,.04,.21,.11,.21,.21h.09v-.09s-.11-.04-.21-.11c0-.04,.02-.06,.06-.06,.14,.06,.28,.15,.43,.26h.09v.06h-.09v.06c.06,0,.21,.08,.43,.23,.06,0,.09,.03,.09,.09h.17s.04,.07,.11,.09v.02h.21c0,.05,.09,.11,.28,.17h.15v.09h.11v-.09h.15s.06,.03,.06,.06c-.04,.03-.08,.04-.11,.04v.06h.13l.09-.06h.04v.02s-.04,.07-.04,.09h.09l.08-.06h.06v.02s-.02,.08-.02,.09h.08l.09-.06h.06l.34,.11h.3v.06h.23v-.06h-.23v-.06h-.21c-.12-.08-.36-.13-.71-.17,0-.05-.07-.09-.21-.11-.19-.1-.46-.2-.81-.3v-.06h-.15c-.14-.15-.3-.24-.49-.26,0-.01,0-.02-.02-.02h-.15s-.04-.08-.11-.09c0-.09-.16-.18-.49-.28-.11,0-.2-.09-.26-.26-.09,0-.19-.04-.3-.11h-.13c-.06-.16-.26-.29-.58-.39-.06-.14-.24-.26-.54-.38,0-.06-.04-.09-.11-.09,0-.09-.16-.18-.47-.28,0-.12-.11-.24-.34-.36,0-.06-.18-.24-.54-.54-.09-.06-.17-.09-.25-.09,0-.1-.11-.19-.34-.28-.11-.19-.22-.28-.32-.28-.11-.01-.23-.14-.36-.38-.12,0-.23-.1-.3-.3-.09,0-.17-.06-.24-.17h-.06Zm.26,1.24v.06h.06v-.06h-.06Zm.17,.17v.09c.16,0,.24,.07,.24,.21l.24,.23h.04v-.11c-.25-.21-.38-.35-.38-.41h-.15Zm.04,2.63s.06,.03,.06,.06h-.06v-.06Zm.34-3.18h.15v.11h-.15v-.11Zm.04-6.73h.23l.09,.06h.28c.09,.09,.32,.16,.7,.21v.06h.23s.15,.07,.38,.09c.05,0,.25,.07,.6,.21,.12,.1,.5,.18,1.13,.25,0,.04,.19,.09,.58,.15,0,.1,.17,.17,.53,.23,.04,.01,.06,.03,.06,.06h-.09v.06h.09v-.06h.06l.08,.06s.04-.02,.09-.06h.11v.06h-.06v.08h.11l.09-.08h.17l.09,.08h.6s.06,.02,.06,.06l-.06,.02h-.17v.06h.28v.06h.15v-.06h-.15c.1-.05,.15-.09,.15-.11h.06c0,.1,.05,.15,.15,.15-.03,.04-.04,.06-.04,.08h.09l.08-.06s.03,.06,.06,.06h.47l.08,.06h.36s.06,.04,.06,.08h-.06v.08h.06v-.08s.17,.11,.39,.19h.21v.06h-.23l-.09-.06h-.28c-.08-.06-.22-.11-.43-.13v-.06h-.26l-.09-.08h-.51l-.09-.06h-.49l-.08-.06h-.3s-.19-.08-.45-.11c-.03-.04-.04-.06-.04-.08h-.32l-.08-.08h-.3l-.08-.06h-.36c-.49-.16-.78-.24-.86-.24v-.06h-.32l-.08-.08h-.3c-.28-.11-.58-.19-.92-.24,0-.06-.11-.11-.32-.15-.23-.09-.36-.16-.4-.21h-.36s-.06-.05-.08-.15h.08v.08h.21v-.08h-.21v-.06h-.17v-.06h-.17v-.06Zm.08,.11h.09s-.02,.06-.06,.06h-.04v-.06Zm.04,6.73h.06s.06,.04,.11,.11v.04s-.02,.06-.06,.06c0-.04-.04-.06-.11-.06v-.15Zm.06-11.69h.06v.04h-.06v-.04Zm0,12.71v.04c.26,.3,.45,.46,.55,.49,0,.03,.07,.07,.21,.13,0,.09,.14,.19,.43,.3,.11,.18,.22,.26,.32,.26,.18,.06,.33,.17,.45,.34,.11,0,.28,.12,.51,.38h.08v-.04c-.08-.12-.15-.19-.23-.19,0-.06-.05-.1-.15-.11-.24-.2-.53-.39-.86-.56,0-.08-.03-.11-.08-.11-.13-.06-.28-.19-.45-.38-.16-.04-.28-.11-.34-.23-.1-.12-.21-.2-.32-.23v-.09h-.11Zm.06,2.71h.06v.04h-.06v-.04Zm.17-3.51h.09v.11h-.04s-.08-.06-.11-.06c.01-.04,.03-.06,.06-.06Zm.53-17.57s-.02,.05-.06,.11h-.09v-.06h-.06c-.04,.12-.14,.19-.32,.19v.08h.15s.06-.09,.17-.13v-.08h.06v.08h.09c0-.09,.04-.13,.11-.13v-.06h-.06Zm-.53,6.79v.06h.09v-.06h-.09Zm.06,14.29v.06h-.06s.03-.06,.06-.06Zm.38,.38c.1,.12,.15,.2,.15,.23h.06v-.06c.05,.08,.09,.11,.11,.11v.09h-.06c-.08-.08-.18-.13-.32-.17,0-.05-.04-.1-.11-.15,.08,0,.13-.02,.17-.06Zm.09,.28v.06h-.06s.02-.06,.06-.06Zm0-4.42h.11v.06h-.06s-.06-.02-.06-.06Zm0,.7h.06s.06,.04,.11,.11h-.11s-.06-.02-.06-.06v-.06Zm.06,3.59h.06v.02h-.06v-.02Zm.11-21.73c0,.05-.02,.08-.06,.08v.06h.06s.02-.06,.06-.06v-.08h-.06Zm-.06,17.5h.11s-.02,.06-.06,.06-.06-.02-.06-.06Zm.06-6.47v.06h.06v-.06h-.06Zm0,7.22c.1,.05,.15,.09,.15,.11v.04h-.09s-.06-.02-.06-.06v-.09Zm.11-.81l.04,.06h-.09s.03-.06,.06-.06Zm0,4.36l.04,.06h-.09s.03-.06,.06-.06Zm.04,.06c.06,.09,.14,.14,.23,.17,0,.05,.07,.09,.21,.13,.08,.06,.11,.12,.11,.17h.06v-.09c.08,.14,.13,.21,.17,.21l.04,.06h-.15s-.11-.09-.26-.26c-.03,0-.15-.08-.38-.23-.08,0-.11-.02-.11-.06,.06,0,.09-.03,.09-.09Zm0-3.46c.38,.36,.59,.54,.66,.54v.06h-.11s-.09-.12-.26-.21c0-.04-.09-.15-.28-.34v-.06Zm.11-7.31v.06s.06,.02,.06,.06h.06v-.06s-.06-.02-.06-.06h-.06Zm.23,.06v.06h.15v-.06h-.15Zm.04,10.86s.06,.02,.06,.06h-.06v-.06Zm.06,.06h.02v.06h-.02v-.06Zm.11-22.37v.06h.06v-.06h-.06Zm0,11.5v.08h.06v-.08h-.06Zm0,10.96h.06v.08h-.06v-.08Zm.06-14.49v.06h.11v-.06h-.11Zm0,10.38h.04c.05,.06,.11,.09,.19,.09v.06h-.11s-.06-.04-.11-.11v-.04Zm.06,.96h.15v.06h-.15v-.06Zm.06-19.36v.06h.15v-.06h-.15Zm.06,22.69v.06h-.06s.03-.06,.06-.06Zm.21,.15v.08h-.11s-.06-.02-.06-.06l.17-.02Zm-.11-3.37s.06,.03,.06,.06v.04s-.06-.02-.06-.06v-.04Zm.06,.09h.17c.01,.08,.06,.11,.15,.11v.06h-.15s-.04-.06-.11-.08l-.06-.09Zm.04-.96h.02s.06,.03,.06,.06v.06h-.06l-.02-.11Zm.02-6.9v.11h.21v-.06c-.08,0-.13-.02-.17-.06h-.04Zm0,11.2h.15s.05,.03,.08,.09v.02h-.06c-.11-.05-.17-.09-.17-.11Zm0,.15h.06v.02h-.06v-.02Zm.06-23.14v.08h.06v-.08h-.06Zm.21,18.78h.06v.06s-.02,.06-.06,.06h-.11v-.06c.08,0,.11-.02,.11-.06Zm-.11,4.04h.02v.06h-.02v-.06Zm0,.38h.02v.06h-.02v-.06Zm.06-23.27v.08h.11v-.08h-.11Zm.06,19.06h.02s.07,.03,.09,.08h-.06s-.06-.02-.06-.06v-.02Zm.06,.88h.06c.11,.05,.22,.14,.32,.26h-.09c-.15-.1-.23-.16-.23-.17,0-.03-.02-.04-.06-.04v-.06Zm.06,3.23s.06,.05,.11,.15h-.06s-.06-.04-.11-.11l.06-.04Zm0-4.04h.11v.09h-.02s-.07-.03-.09-.09Zm.06,4.25h.06s-.03,.06-.08,.09h-.04v-.04s.02-.06,.06-.06Zm-.02-4.42h.06v.06h-.06v-.06Zm.08,4.36h.04v.06h-.04v-.06Zm.11-4.08h.09s.06,.03,.06,.06l-.09,.08c-.08-.04-.11-.07-.11-.09l.06-.04Zm-.06,1.71v.06c.21,.03,.32,.09,.32,.21,0,.03,.09,.08,.28,.17h.15c.05,.1,.18,.19,.38,.26,0,.04,.05,.06,.15,.08,.15,.06,.23,.11,.23,.15h.06v-.06c-.19-.08-.28-.13-.28-.17-.05,0-.21-.09-.47-.26-.28-.15-.48-.28-.6-.38-.04,0-.06-.02-.06-.06h-.15Zm.06,2.48h.15v.06h.06v-.06h.21v.06h-.15v.06c.1,0,.15,.02,.15,.06v.04h.06v-.09h-.06v-.06h.11l.09,.06h.17v.15h-.21v-.06h-.06v.06s.06,.02,.06,.06h.21s-.02,.06-.06,.06h-.15c-.08-.04-.22-.09-.43-.15,0-.03-.07-.08-.21-.17,.01-.04,.03-.06,.06-.06Zm.09-14.89v.06h.17v-.06h-.17Zm0,11.65h.11v.06h-.11v-.06Zm.06-8.4h.06v.04h-.06v-.04Zm0,11.62h.06v.02h-.06v-.02Zm.09-4.04h.02v.08h-.08v-.02s.02-.06,.06-.06Zm.02,.08h.15v.06h-.09s-.06-.02-.06-.06Zm.06-19.62v.06h.15v-.06h-.15Zm.04,20.49s.06,.03,.06,.06h-.06v-.06Zm.06,.06h.06s.06,.03,.06,.06v.09s-.06-.05-.11-.15Zm.11,.15h.06s.06,.02,.06,.06h-.11v-.06Zm.11-20.75v.06h.15v-.06h-.15Zm0,20.81h.15v.06h-.15v-.06Zm.04-21.18h.08v.06h-.08v-.06Zm.11,21.24h.06s.06,.02,.06,.06h-.11v-.06Zm.02-18.01h.06v.06h-.06v-.06Zm.06,21.18h.06v.06h-.06v-.06Zm.21-.11v.06h.06v-.06h-.06Zm.04,.17h.06c.11,.05,.17,.09,.17,.11v.04h-.15s-.06-.05-.08-.15Zm.11-11.63v.06h.11v-.06h-.11Zm.11,11.79h.09v.06h-.04s-.06-.02-.06-.06Zm.06-15.17v.06h.06v-.06h-.06Zm.21,13.03v.04c.11,.08,.17,.12,.17,.13v.04h.21v-.09h-.21c0-.08-.03-.11-.09-.11h-.08Zm.06-12.97v.08h.17v-.08h-.17Zm.06,12.37v.06h.06v-.06h-.06Zm.26,.06h.11v.06h-.11v-.06Zm.06,.75v.06c.08,0,.11,.02,.11,.06h.06v-.06s-.06-.02-.06-.06h-.11Zm.06-.7h.09v.06h-.09v-.06Zm.17,2.54h.04s.06,.03,.06,.06l-.06,.04h-.09v-.04s.02-.06,.06-.06Zm.06-2.48l.09,.11h-.15v-.06s.03-.06,.06-.06Zm-.06,.75v.06h.09v-.06h-.09Zm.15-1.77v.09h.06v-.09h-.06Zm0,1.13h.08v.06h-.08v-.06Zm0,.7v.06s.06,.02,.06,.06h.11v-.06c-.08,0-.11-.02-.11-.06h-.06Zm.11-22.8v.06h.06v-.06h-.06Zm.06,22.2h.06s-.02,.06-.06,.06v-.06Zm.11-12.48v.06h.09v-.06h-.09Zm.06,11.15h.11v.06h-.17s.03-.06,.06-.06Zm0,1.39h.06v.06h-.11s.03-.06,.06-.06Zm-.06,.66v.09h.09v-.09h-.09Zm.15-13.14v.06h.11v-.06h-.11Zm.26,12.59h.06s.06,.02,.06,.06h-.11v-.06Zm.06-12.54v.08h.17v-.08h-.17Zm.06,12.59h.06s.06,.03,.06,.06h-.06s-.06-.02-.06-.06Zm0,.64v.06h.06v-.06h-.06Zm.11-.58h.06s.06,.03,.06,.06h-.11v-.06Zm.06,2.2v.06h.06v-.06h-.06Zm.21-14.77v.06h.11v-.06h-.11Zm.11,11.71v.06c.08,0,.11,.02,.11,.06h.15v-.06c-.1,0-.15-.02-.15-.06h-.11Zm.06,3.12v.06h.11v-.06h-.11Zm.32-3.01v.09h.26v-.09h-.26Zm.06,1.07v.06h.06v-.06h-.06Zm.21,1.99v.06h.23v-.06h-.23Zm.06-14.7v.06h.06v-.06h-.06Zm0,12.76v.06h.06v-.06h-.06Zm.06-13.14h.02v.06h-.02v-.06Zm0,12.1v.06h.49v-.06h-.49Zm.17-11.67v.06h.09v-.06h-.09Zm.26,0v.06h.06v-.06h-.06Zm.32,11.73v.06h1.73v-.06h-1.73Zm.06-11.67v.06h.26v-.06h-.26Zm0,12.71v.09h.17v-.09h-.17Zm.43-12.65v.08h.11v-.08h-.11Zm.02,3.5h.13s.06,.03,.06,.06h-.19v-.06Zm.19-3.55v.06h.06v-.06h-.06Zm0,3.61h.17c.11,.05,.21,.12,.28,.21h.06v.06h-.08c-.05-.02-.16-.05-.32-.08l-.11-.19Zm.23-3.48v.08h.06v-.08h-.06Zm.26,.08v.06h.06v-.06h-.06Zm.11-7.12s.06,.02,.06,.06l-.06,.02s-.06-.02-.06-.06l.06-.02Zm.11,7.18v.06h.21v-.06h-.21Zm.11-7.11h.06v.06h-.06v-.06Zm.11-.32h.09s.06,.04,.06,.08h-.15v-.08Zm.04,7.48v.06h.06v-.06h-.06Zm.11-7.41h.21l.28,.11h.23v.06h-.34c-.11-.07-.24-.12-.38-.15v-.02Zm.15,7.46v.06h.11v-.06h-.11Zm.32,0v.06h.06v-.06h-.06Zm.23,3.87v.06h.06v-.06h-.06Zm0,7.37v.06h.11v-.06h-.11Zm.11-11.35v.06h.15v-.06h-.15Zm0,4.04v.06h.15v-.06h-.15Zm.15-11.22h.06s.06,.02,.06,.06l-.06,.02h-.06s-.06-.02-.06-.06l.06-.02Zm-.06,7.48v.08s.06,.02,.06,.06h.23v.06h.26v-.06h-.26v-.06h-.23v-.08h-.06Zm0,11.05v.06h.43v-.06h-.43Zm.45-18.46h.3v.06h-.3v-.06Zm.15,7.54v.11h.26v.06h.17v-.06h-.17v-.06h-.15l-.09-.06h-.02Zm.26,10.83v.09h.23v-.09h-.23Zm.17-.38v.09h.06v-.09h-.06Zm.21-17.69h.11s.06,.02,.06,.06l-.06,.02h-.11s-.06-.02-.06-.06l.06-.02Zm-.06,7.48v.06s.02,.05,.08,.08h.15s.05,.08,.15,.09v.02h.23v.06h.15v-.06c-.1,0-.2-.04-.3-.11l-.08,.06s-.08-.09-.25-.11c-.01-.04-.02-.06-.02-.08h-.11Zm.49,4.38v.06c.11,.04,.17,.08,.17,.11h.15v-.06c-.1,0-.19-.03-.26-.08v-.04h-.06Zm.26,.23v.06h.06v-.06h-.06Zm.06-4.3v.08h.06v-.08h-.06Zm.06,10.06v.06h.17v-.06h-.17Zm.06-9.98v.13h.06v-.13h-.06Zm.11-7.97v.06h.06v-.06h-.06Zm0,12.52v.06s.07,.04,.09,.11c.03,0,.08,.09,.17,.26,.17,.05,.36,.23,.54,.54,.19,.14,.37,.33,.54,.58l.23,.32c.16,.11,.24,.24,.24,.38h.06v-.17c-.05-.14-.13-.21-.24-.21-.05-.19-.11-.28-.19-.28l-.19-.32c-.09-.02-.14-.08-.17-.15-.05,0-.08-.04-.08-.11-.41-.38-.66-.63-.73-.75-.05,0-.08-.04-.08-.11-.1-.08-.15-.13-.15-.15h-.06Zm.21-4.42h.06s-.02,.06-.06,.06v-.06Zm.06-8.04v.06h.06v-.06h-.06Zm0,7.99h.06c.14,.05,.3,.14,.49,.28,.1,0,.15,.03,.15,.08-.1,0-.15,.02-.15,.06v.02h-.11s-.11-.08-.17-.08c0-.06-.09-.11-.26-.13,.04-.04,.06-.06,.06-.08v-.09h-.06v-.06Zm.17-7.93v.08h.15v-.08h-.15Zm.26-4.68s.06,.02,.06,.06l-.09,.06h-.02v-.06s.02-.06,.06-.06Zm-.06,17.57v.06s.09,.05,.11,.15h.06v-.06c-.05,0-.09-.05-.11-.15h-.06Zm.11-12.76v.06h.06v-.06h-.06Zm.21,8.16h.06s.06,.02,.06,.06c-.04,0-.06,.02-.06,.06v.02h.19s.11,.08,.24,.24v.08h-.06v.06h.06v-.06h.23v.06s-.12,.03-.28,.09c0-.01-.04-.06-.13-.15h.08v-.08h-.08v.08h-.08c-.05-.1-.09-.15-.11-.15-.14-.08-.23-.11-.26-.11v-.11c.1,0,.15-.02,.15-.06v-.02Zm.06,9.17v.06h.06v-.06h-.06Zm.17-.06v.06h.15v-.06h-.15Zm.21-.09v.09h.06v-.09h-.06Zm.17-16.5h.06v.11h-.04s-.05-.03-.08-.09l.06-.02Zm0,8.04h.21v.06c-.1,0-.15,.02-.15,.06h-.09v-.02s.04-.07,.04-.09Zm0-8.29v.08h.06v-.08h-.06Zm.06-3.61v.08h.09v-.08h-.09Zm0,12.01h.15v.08h.06v-.08c.11,.13,.2,.19,.26,.19l.02,.06v.02h-.23s-.12-.09-.26-.26Zm.15-8.16s.06,.02,.06,.06v.02s-.06-.02-.06-.06v-.02Zm0,8.1s.06,.03,.06,.06h-.06v-.06Zm.06-8.03h.06s.06,.03,.06,.06h-.06s-.06-.02-.06-.06Zm0,16.2v.06h.11s.05-.06,.15-.06v-.11h-.08c-.06,.08-.13,.11-.19,.11Zm.17-7.8h.09s.06,.03,.06,.06h-.21s.02-.06,.06-.06Zm.15-12.39h.06v.06s-.06-.02-.06-.06Zm0,12.44h.06v.06h.06v-.06c.12,.1,.23,.21,.32,.32v.11c-.06-.1-.17-.18-.32-.24,0-.04-.04-.06-.11-.06v-.13Zm0,7.48v.06h.06v-.06h-.06Zm.11-7.54v.06h-.06s.02-.06,.06-.06Zm.19-11.96v.06h.08v-.06h-.08Zm.26,12.42c.12,.03,.19,.06,.19,.09v.08c-.06,0-.09,.02-.09,.06h-.09l.04-.13h-.17v-.08c.06,0,.11,0,.13-.02Zm-.08-12.29v.06h.06v-.06h-.06Zm.26,12.46s.06,.03,.06,.06v.06h-.09s-.06-.02-.06-.06c.06,0,.09-.02,.09-.06Zm0-12.35v.02s.06,.09,.17,.15v.02h.19v.08h.13v-.08c-.09,0-.13-.02-.13-.06h-.19c0-.09-.03-.13-.09-.13h-.08Zm.06,12.46h.06s.06,.04,.06,.11h.11c0-.08,.02-.11,.06-.11l.02,.06v.06s-.08,.11-.08,.19h-.04s-.09-.08-.19-.24v-.06Zm.49,8.23s-.03,.08-.09,.11h-.02v.06h.06c0-.08,.04-.11,.11-.11v-.06h-.06Zm-.04-7.8h.09c.11,.13,.17,.21,.17,.26h-.06s-.09-.08-.21-.23v-.04Zm.09-8.29v.08h.06v-.08h-.06Zm.26,8.67h.06s.06,.03,.06,.06c0,.04-.02,.06-.06,.06s-.06-.02-.06-.06v-.06Zm.06,7.1v.06h.11v-.06h-.11Zm.11-6.95h.06v.11s-.06-.02-.06-.06v-.06Zm.06-13.1h.11v.06h-.06s-.06-.02-.06-.06Zm0,.17h.08c.06,.05,.19,.11,.38,.17,0,.06,.02,.09,.08,.09,0,.04-.03,.06-.08,.06h-.02c-.25-.12-.39-.23-.43-.3v-.02Zm0,13.04h.06v.06s-.06-.02-.06-.06Zm.11,.17h.04v.06h-.04v-.06Zm.09-.06h.02v.06h-.08s.02-.06,.06-.06Zm.25,.36h.04s.06,.02,.06,.06v.02h-.02c-.05,0-.08-.02-.08-.06v-.02Zm.13-13.31h.02v.06h-.08s.02-.06,.06-.06Zm0,.17v.02s-.02,.06-.06,.06v-.02s.02-.06,.06-.06Zm.06-.06c.11,.11,.19,.17,.24,.17,.09,.04,.13,.07,.13,.09,0,.04-.02,.06-.06,.06h-.15s-.11-.09-.21-.26h-.02s.02-.06,.06-.06Zm0,13.38v.06h-.06s.02-.06,.06-.06Zm0-.02h.06v.02h-.06v-.02Zm.06,.23s.06,.03,.06,.06v.04h-.04s-.06-.04-.08-.04c0-.04,.02-.06,.06-.06Zm0-.21s.06,.03,.06,.06h-.06v-.06Zm.26,.47h.06v.06h-.06v-.06Zm.06,.06s.06,.02,.06,.06v.06h-.06v-.11Zm.06-13.48h.08s.06,.02,.06,.06v.02h-.08s-.06-.02-.06-.06v-.02Zm.06,13.65h.02s.06,.03,.06,.06v.06h-.02s-.06-.02-.06-.06v-.06Zm.08-13.57h.09v.04s-.02,.06-.06,.06h-.04v-.09Zm0,13.68s.06,.04,.06,.08h-.06v-.08Zm.3-13.31h.06s-.02,.06-.06,.06v-.06Zm.08,14.06h.04v.06h-.04v-.06Zm.06-14.06h.08v.04h-.08v-.04Zm.08,.38h.06v.04h-.06v-.04Z"/><path class="d" d="M72.93,67.45h.58l.09,.06h.13s.07,.09,.21,.15c0,.06,.11,.13,.32,.21l.17,.51v.15c-.11,.31-.22,.51-.32,.58v.28s-.08,.25-.13,.6c-.03,0-.04,.01-.04,.04v.28l-.06,.09v.34s-.03,.06-.09,.06v.38s-.02,.04-.06,.09v.49l-.06,.09v.88l-.06,.09v.81l-.06,.09v1.15l-.06,.09v3.91l.06,.09v.41l.06,.08v.36l.06,.08v.36l.06,.08v.3l.06,.08v.26l-.06,.09v.02l.06,.09v.28c.06,0,.09,.02,.09,.06-.13,.03-.25,.06-.36,.11-.04-.01-.06-.02-.08-.02-.11,.14-.23,.21-.36,.21-.03-.02-.06-.04-.11-.04v.21s-.02,.06-.06,.06c-.06,0-.1-.07-.11-.21h-.06v.21h-.26v.23h-.06c0-.08-.03-.11-.08-.11-.15,.06-.24,.13-.26,.21-.1,0-.17,.02-.21,.06h-.11v-.04s.02-.06,.02-.08h-.13l-.09,.06h-.21l-.23-.21v-.17c-.11,0-.17-.08-.17-.23-.1-.24-.17-.57-.23-1-.02,0-.04,0-.04-.02v-.32c-.06,0-.09-.02-.09-.06v-.49l-.06-.09v-.34l-.06-.09v-.71l-.06-.09v-.71l-.06-.09v-.26l.06-.08-.06-.09v-.26l.06-.08v-.26l-.06-.09v-.96l-.06-.08v-.79l.06-.08v-.96l.06-.09v-.92l.06-.08v-.85l.06-.08v-.3s.07-.15,.09-.38c.06,0,.11-.12,.15-.38,.04,0,.08-.12,.11-.38,.05-.04,.09-.14,.11-.32,.05-.04,.09-.06,.11-.06v-.43c.06-.17,.11-.28,.15-.32,.05-.04,.09-.06,.13-.06v-.02l-.06-.09c.25-.15,.38-.28,.38-.39,.04,0,.06-.02,.06-.06v-.15l-.06-.09v-.19c.08-.15,.2-.27,.38-.36h.38c0-.14,.1-.21,.3-.22,0-.01,.04-.04,.13-.09Zm-.26-8.42h.04s.06,.02,.06,.08h.32c.11,.12,.24,.19,.38,.21,.14,.16,.25,.34,.34,.53v.13c.09,0,.16,.23,.21,.7,.06,.08,.12,.28,.17,.6,.08,0,.13,.17,.15,.51,.04,0,.07,.11,.09,.34,.01,0,.02,.01,.02,.04v.34l.06,.09v.34l.06,.09v.7c.06,0,.09,.02,.09,.06v1.11c0,.05-.03,.08-.09,.08v.13c-.21,.2-.32,.38-.32,.54-.29,.16-.46,.25-.51,.25-.16,.15-.37,.22-.62,.22,0,.03,0,.04-.02,.04h-.47l-.08-.08h-.3c-.23-.06-.34-.14-.34-.23-.18-.2-.26-.38-.26-.54,0-.05-.02-.1-.06-.15v-.34l-.15-.32c0-.14-.02-.23-.06-.26v-.28s-.07-.28-.13-.7c-.04-.21-.07-.33-.09-.34v-.19c-.08,0-.13-.16-.15-.49-.04-.2-.08-.33-.11-.38v-.28l-.06-.09v-.4s.04-.06,.11-.06v-.49c.1-.2,.23-.41,.38-.62,0-.05,.06-.09,.17-.13h.15v-.09l.15,.04c.23-.09,.34-.21,.34-.36l.41-.26s.09-.03,.13-.08Zm-1.47,22.95v.06h.06v-.06h-.06Zm.43-13.51h.06v.02h-.06v-.02Zm.26-9.04h.06v.04h-.06v-.04Zm.77,22.67l.04,.06s-.02,.06-.06,.06l-.04-.06s.03-.06,.06-.06Zm.64-.75v.11h.06v.09h-.11v.06h.11s.03-.06,.09-.06v-.09c-.06,0-.09-.04-.09-.11h-.06Zm.06,.38h.06v.06s-.06-.02-.06-.06Zm.32-15.56h.06v.04h-.06v-.04Zm0,15.07v.23h.06v-.23h-.06Zm.53-13.72h.02v.06h-.02v-.06Z"/><path class="d" d="M74.49,74.07h.06v.17l-.06,.09v.34s-.05,.15-.08,.38c-.03,0-.04,0-.04,.02v.08l.06,.08v.09h-.06v-.09h-.06v.85l.06,.08v.49l.06,.09v.41l.11,.34s.03,.06,.09,.11v.26h.06v.11s-.06,.02-.06,.06h-.04c-.06-.06-.12-.28-.17-.66-.04,0-.06-.1-.08-.3-.03,0-.04,0-.04-.02v-.49l-.06-.09v-1.24l.06-.08v-.3s.09-.25,.15-.6c.01,0,.02-.01,.02-.04v-.13Zm10.71-4.89h.15c.11,.04,.17,.09,.17,.17h1.13l.09,.06h.13l.09-.06s.06,.03,.06,.06h-.06v.09h.06v-.09s.06,.03,.06,.09h.21c0-.06,.02-.09,.06-.09,.04,.01,.06,.03,.06,.06-.04,.01-.06,.04-.06,.08v.02s.16,.06,.32,.17c.29,.13,.43,.23,.43,.32,.17,.14,.26,.25,.26,.32,.03,0,.06,.04,.11,.11v.38l-.06,.09v.58l.06,.08v.73s.05,.15,.08,.38c.02,0,.04,0,.04,.02v.34l.06,.09v.47l.06,.08v.26c.06,0,.09,.02,.09,.06v.3l.06,.08v.36l.06,.08v.6l.06,.09v.47l.11,.23v.23c.08,0,.11,.12,.11,.36,.03,0,.04,0,.04,.02v.49l.06,.09v.58l.06,.08v1.01l-.06,.09v1.15l-.06,.09v.34s-.07,.15-.09,.38h-.06v.32c-.03,.06-.08,.25-.15,.55l-.17,.53h-.06v.17c-.11,.23-.22,.56-.32,1.01-.04,0-.11,.16-.21,.49-.15,.33-.26,.55-.34,.66-.05,.19-.31,.6-.79,1.24,0,.05-.19,.31-.56,.79-.25,.14-.38,.27-.38,.39-.06,0-.26,.14-.58,.41-.25,.13-.45,.25-.6,.38-.45,.11-.7,.21-.73,.28-.1,.05-.37,.11-.81,.17,0,.03,0,.04-.02,.04h-.41l-.08,.06h-1.33l-.09-.06h-.28c-.06-.04-.34-.09-.83-.17,0-.09-.24-.19-.73-.3-.01,0-.25-.09-.71-.28-.33-.09-.65-.23-.96-.43-.18,0-.38-.09-.6-.26-.2-.11-.33-.17-.38-.17,0-.04-.09-.12-.26-.25,0-.04-.09-.08-.26-.11-.01-.06-.12-.15-.32-.26-.05-.09-.18-.19-.38-.3v-.04s.03-.06,.06-.06c.03,.04,.04,.07,.04,.09h.11v-.06h.06v.06h.06v-.21l.06-.09v-.07s-.16-.09-.38-.26v-.06h.04c.08,.06,.22,.11,.43,.13,0,.09,.06,.13,.17,.13v.06h.15c.11,.04,.17,.07,.17,.11h.17l.09,.06h.06c0-.08,.02-.11,.06-.11h.06l.09,.06h.13v.06h-.11v.06h.21c.19,.1,.4,.19,.64,.26l.08-.06h.15s.06,.02,.06,.06h-.17v.02c0,.06,.09,.1,.28,.11,0,.02,.01,.04,.04,.04h.86s.06,.03,.06,.09h.23c0-.06,.02-.09,.06-.09h.92l.09-.06h.28c.15-.08,.43-.15,.85-.23,0-.05,.16-.13,.47-.24,.26-.12,.58-.31,.94-.56,.48-.48,.73-.76,.75-.85,.14-.14,.26-.32,.38-.54,.08-.08,.19-.33,.36-.75,.02-.11,.06-.18,.11-.21,.15-.51,.28-.77,.38-.77v-.15c.08-.1,.17-.4,.28-.9,.04-.01,.07-.02,.09-.02v-.32l.11-.21v-.28l.06-.09v-1.03h-.06c0,.11-.1,.27-.3,.47-.05,.18-.14,.34-.28,.51,0,.05-.12,.19-.38,.41,0,.09-.12,.23-.38,.43-.14,.1-.21,.16-.21,.17-.16,.1-.33,.23-.49,.38-.11,0-.28,.07-.49,.21-.23,.08-.52,.14-.88,.19-.21,.04-.33,.07-.36,.09h-.34c-.05,0-.09,.01-.11,.04l-.08-.04s-.02,.01-.02,.04l-.15-.04h-.38l-.08-.06h-.36l-.32-.11h-.28s-.19-.08-.47-.11c-.01-.04-.02-.07-.02-.09h-.15c-.15-.08-.46-.17-.94-.28,0-.06-.12-.12-.36-.19-.04-.04-.14-.08-.32-.11-.06-.02-.11-.08-.15-.17-.41-.16-.64-.29-.68-.38-.12-.08-.24-.12-.36-.15,0-.01-.06-.06-.17-.13v-.06h.06l.09,.06h.06l.08-.06h.09v.06h-.06v.06h.06v-.06h.11c.01,.08,.04,.11,.09,.11h.08v-.04s-.09-.09-.28-.17c0-.08-.14-.14-.43-.21-.1,0-.19-.08-.26-.23h-.15c-.12-.05-.19-.12-.19-.23-.06,0-.11-.04-.15-.11v-.04h.06v-.06h-.06v-.11h.11c.04,.11,.08,.17,.11,.17s.06,.03,.06,.09h.21v-.06h.06v.06s-.04,.06-.11,.06v.06c.11,0,.17,.02,.17,.06v.06h-.06v-.06h-.11v.06c.08,0,.11,.02,.11,.06h.06v-.06h.15c.19,.06,.28,.14,.28,.23v.04h.09c0-.08,.03-.11,.08-.11,.03,0,.04-.02,.04-.06h.06v.11h.21c.08,.08,.24,.13,.49,.15,0,.03,.03,.05,.09,.08l.08-.06h.09s.06,.07,.11,.21h.06v-.06h-.06v-.04s.02-.06,.06-.06c.06,.05,.15,.1,.26,.15h.43l.26,.11h.23v-.06c-.33-.08-.49-.14-.49-.21h-.32c-.45-.15-.81-.24-1.09-.28-.03-.04-.04-.07-.04-.09h-.15c-.31-.11-.57-.24-.77-.38-.05,0-.17-.08-.38-.22-.09-.04-.16-.06-.21-.06v-.17c-.2-.25-.34-.46-.43-.64-.03-.02-.08-.13-.17-.32-.06,0-.09-.02-.09-.06s.03-.06,.09-.06v-.15c-.06,0-.1-.07-.11-.21-.04-.16-.07-.26-.09-.28v-.28l-.06-.09v-.34l-.06-.09v-1.33l.06-.08v-.26h-.06c0,.05-.02,.1-.06,.15v.66s-.03,.06-.09,.06v.06c.06,0,.09,.02,.09,.06v.32c-.06,.05-.09,.09-.09,.11h-.06v-.64l.06-.08v-.11l-.06-.09,.06-.09v-.28s.03-.06,.09-.06v-.34h.06v.19h.11v-.23s.07-.15,.09-.38c.03-.08,.06-.11,.11-.11v-.21s.07-.14,.09-.32c0-.12,.11-.38,.34-.77,0-.16,.02-.26,.06-.3v-.17h-.06s.06-.06,.17-.06v-.21s.08-.06,.09-.17c.14-.05,.21-.12,.21-.21,.15-.16,.24-.24,.28-.24,0-.08,.06-.14,.17-.21,0-.08,.08-.12,.23-.15,0-.04,.07-.11,.21-.21,0-.04,.02-.06,.06-.06v-.06h-.06s.03-.06,.06-.06h.09l.08,.06h.04v-.11l.09,.06h.02v-.08l-.06-.09,.06-.04h.06v.09h.06v-.09h-.06c.06-.06,.29-.14,.7-.23,0-.04,.12-.06,.36-.08,0-.03,0-.04,.02-.04h1.03v.06h-.92v.06h.98l.09-.06h.32c.15,.05,.23,.1,.23,.15v.02h.17l.09-.06h.06s.06,.03,.06,.06h-.06v.06h.06v-.06h.32s.06,.04,.11,.11h-.06v.09h.06c0-.08,.06-.11,.17-.11,0-.02,.01-.04,.04-.04l.09,.06h.34s.07,.05,.09,.15h-.53v.06h.38l.09,.06s.02,0,.02-.02l.15,.02h.02l.09-.06h.02v.11c.21,.06,.33,.09,.36,.09,0,.09,.18,.16,.54,.21,.12,.03,.2,.05,.23,.08h.09v-.06h.11l-.06,.09v.02h.15c.08,.1,.31,.19,.7,.26,0,.04,.02,.06,.06,.06h.23c0,.08,.04,.13,.11,.17v.04h.15l.19,.11h.09v-.06h.09l.13,.11h.04v-.88l-.06-.09v-1.07l.23-.43Zm-10.6,4.53h.04v.21s-.02,.06-.06,.06l-.04-.06v-.15s.03-.06,.06-.06Zm-.06,2.31h.04s.06,.03,.06,.06v.26s-.02,.06-.06,.06l-.04-.06v-.32Zm.15-2.48v.11s-.02,.06-.06,.06v-.11s.02-.06,.06-.06Zm-.06,3.01h.06v.13h-.06v-.13Zm.06,1.41s.09,.06,.11,.06l-.06,.09v.02c.08,.17,.14,.26,.21,.26h.06v.09s-.03,.06-.09,.06v.06c.08,0,.12,.06,.15,.17h.06v-.06h.06v.11h-.06v.09h.06v-.09s.06,.03,.06,.06v.09s-.06,.02-.06,.06c-.1-.06-.17-.15-.21-.26-.09-.1-.17-.28-.24-.53-.04,0-.07-.02-.09-.08v-.15s.06-.02,.06-.06Zm0-4.64h.06v.17s-.02,.06-.06,.06v-.23Zm.11,.49v.17s-.02,.06-.06,.06-.06-.02-.06-.06c.05-.11,.09-.17,.11-.17Zm-.11,3.95h.06v.04s-.02,.06-.06,.06v-.09Zm.06-4.68h.06v.13h-.06v-.13Zm.11,.47v.21s-.02,.06-.06,.06v-.21s.03-.06,.06-.06Zm-.06,1.94v.11h.06v-.11h-.06Zm0,.17v.36l.06,.08v.3l.06,.08v.43c.06,0,.09,.02,.09,.06v.21h.06v-.47l-.06-.08v-.21l.11-.21v-.17h-.11v.21s-.02,.06-.06,.06l-.04-.06v-.49s-.03-.07-.08-.09h-.04Zm.06-2.71h.06v.11s-.06-.02-.06-.06v-.06Zm0,.32h.06v.23s-.02,.06-.06,.06v-.28Zm0,1.95v.11h.06v-.11h-.06Zm.06-2.16h.09v.06s-.02,.06-.06,.06l-.04-.06v-.06Zm.15-.41v.15c-.05-.04-.09-.06-.11-.06v-.06s.05-.01,.11-.04Zm-.06,.36h.06s-.02,.06-.06,.06v-.06Zm0,2.22v.32h.06v-.32h-.06Zm0,.43v.21h.06v-.21h-.06Zm.06-2.86s.06,.02,.06,.06v.04h-.06v-.09Zm0,1.99v.21h.06v-.21h-.06Zm0,2.42v.17c0,.06,.04,.09,.11,.09v.06h-.06v.06h.06v.21s.06,.04,.06,.11h.06c0-.08,.03-.11,.09-.11v-.15h-.09v.15h-.06v-.21h.06v-.06s-.05-.02-.11-.06v-.26h-.11Zm0,1.28h.06v.06s-.06-.02-.06-.06Zm0,.19h.06v.04h-.06v-.04Zm.17-6.15v.09s-.03,.06-.08,.09h-.04v-.04c.05-.1,.09-.15,.11-.15Zm-.11,1.99v.15s.1,.02,.15,.06h.02v-.11c-.08,0-.11-.03-.11-.09h-.06Zm0,.64v.38h.06v-.38h-.06Zm0,1.35v.09h.06v-.09h-.06Zm0,.38v.15h.06v-.15h-.06Zm.06-2.65v.23h.04s.05-.02,.08-.08v-.06s-.03-.07-.08-.09h-.04Zm0,.6v.21h.06v-.21h-.06Zm0,2.69h.06v.06h-.06v-.06Zm0,1.5h.06v.06s-.06-.02-.06-.06Zm.11-6.67v.11s-.02,.06-.06,.06v-.11s.03-.06,.06-.06Zm-.06,.92v.06h.06v-.06h-.06Zm.06,.38v.21h-.06v.15c.1,.12,.15,.2,.15,.22h.06v-.21h.06v-.06h-.06v.06s-.06-.02-.06-.06v-.06c.08,0,.11-.03,.11-.09v-.17h-.02l-.08,.04s-.06-.04-.11-.04Zm-.06,1.62v1.18h.06v-1.18h-.06Zm0,1.24v.09h.06v-.09h-.06Zm.11,2.41l.04,.06v.06h-.15v-.06s.08-.02,.11-.06Zm-.11,.17h.15v.11h-.09s-.06-.02-.06-.06v-.06Zm.11-6.94h.04v.15s-.02,.06-.06,.06h-.04v-.15s.03-.06,.06-.06Zm.21,.26v.15c-.11,.33-.2,.49-.26,.49v.11h.15v-.15l.17-.38v-.22h-.06Zm-.26,1.45h.04s.06,.02,.06,.06h-.04s-.06-.02-.06-.06Zm0,2.86v.17h.09v-.17h-.09Zm.09,1.13c0,.08-.03,.11-.09,.11v.06h.09v.21s.06,.04,.06,.11h.06v-.11h-.06v-.09l.06-.08v-.04h-.11v-.06h.06v-.11h-.06Zm.06-5.81v.06s-.02,.06-.06,.06v-.06s.02-.06,.06-.06Zm.11,1.24v.21l-.08-.06h-.04c0,.08-.02,.11-.06,.11v.06h.06v-.06l.09,.06h.02c0-.08,.02-.11,.06-.11v-.21h-.06Zm-.17,1.5v.06h.06v-.06h-.06Zm0,.21v.06h.06v-.06h-.06Zm0,4.04s.06,.02,.06,.06h-.06v-.06Zm0,.17h.06v.06s-.06-.02-.06-.06Zm.02-.43h.08v.06h-.08v-.06Zm.04-4.25v.15h.06v-.15h-.06Zm.17,10.92l.26,.17v.04s-.04,.06-.11,.11c-.01-.08-.03-.11-.06-.11-.04,.01-.07,.02-.09,.02-.05-.08-.08-.13-.08-.17l.08-.06Zm-.06-13.8h.06v.13s-.06-.02-.06-.06v-.08Zm.49,.08v.04l.06,.08v.09s-.06,.02-.06,.06h-.06v-.06h-.06c-.09,.26-.14,.41-.17,.43h-.04v.26l-.11,.26v.17h-.06v.11h.06c0-.06,.09-.24,.26-.53l-.06-.08v-.04s.02-.06,.06-.06c.04,.08,.06,.14,.06,.21h.06v-.15h-.06v-.06c.09,0,.14-.11,.15-.32,.01,0,.02,0,.02-.02v-.09h-.06v-.06c.1-.03,.17-.08,.21-.15v-.11h-.21Zm-.49,2.09v.34h.06v-.34h-.06Zm0,5.17h.06v.11h-.06v-.11Zm2.48-8.55h-.23c0,.05-.05,.08-.15,.09-.08,.01-.11,.04-.11,.08h-.06s-.06-.02-.06-.06h.06v-.06h-.06s-.07,.1-.21,.15v.06h-.17v-.09s.09-.02,.17-.06v-.06h-.06s-.09,.1-.26,.15c0,.06-.15,.18-.45,.34,0,.1-.12,.24-.36,.41,0,.08-.06,.16-.17,.26,0,.04-.04,.09-.11,.17l-.15,.21v.13h-.06v.21h.06v-.21s.12-.11,.26-.34c.01-.11,.08-.22,.21-.32,.05,0,.11-.09,.17-.26,.05,0,.16-.11,.34-.32,.08,0,.16-.06,.25-.17,.08,0,.13-.02,.17-.06,0,.04,.03,.07,.09,.09,0,.05-.03,.08-.09,.08v.06s.06,.02,.06,.06h.06v-.06h-.06v-.06h.11v-.17h.32c0-.06,.04-.1,.11-.11v-.04h.15v.06h.11v-.06h-.11v-.06h.11l.09,.06h.02v-.11h.09l.08,.06h.09v-.02l-.02-.06s.02-.07,.02-.09h-.09c-.11,.04-.17,.08-.17,.11Zm-2.42,3.12v.11h.06v-.11h-.06Zm0,5v.06h.06v-.06h-.06Zm0,.54h.09v.06h-.09v-.06Zm.11-5.86s-.02,.06-.06,.06v.15h.06c0-.1,.02-.15,.06-.15h.04v-.06h-.09Zm0,6.24v.06h.09v-.06h-.09Zm.09-6.56v.15h.06v-.15h-.06Zm0,6.28h.06v.06h-.06v-.06Zm.11-8.06v.06s-.02,.06-.06,.06v-.06s.02-.06,.06-.06Zm-.06,1.15h.06v.21h-.06v-.21Zm.06,13.5h.04v.02s-.02,.06-.06,.06h-.04v-.02s.02-.06,.06-.06Zm.06-14.7h.06s-.02,.06-.06,.06h-.06s.02-.06,.06-.06Zm-.06,.92h.06s.02,.06,.06,.06c0,.02-.02,.06-.08,.09h-.04v-.15Zm.17-1.02v.04s-.02,.06-.06,.06v-.04s.03-.06,.06-.06Zm-.02,8.38h.08v.06h-.08v-.06Zm.08-8.5h.09s-.04,.08-.11,.11h-.04v-.06s.03-.06,.06-.06Zm-.06,1.5v.11h.09v-.11h-.09Zm.06,7.65h.04s.06,.02,.06,.06v.04h-.09s-.06-.02-.06-.06l.06-.04Zm-.02-.54h.11s.06,.02,.06,.06h-.17v-.06Zm.34-8.23s-.02,.06-.06,.06v.06h.06v.15h-.06c0-.1-.02-.15-.08-.15h-.04c0,.1-.04,.2-.11,.3v.02h.17v-.08l-.06-.09h.11v.06h.06s.03-.06,.09-.06v-.15h-.09v-.06h.09v-.06h-.09Zm-.28,.81v.06h.06v-.06h-.06Zm.11-1.24h.06v.06h-.11s.02-.06,.06-.06Zm-.06,8.35v.06h.06v-.06h-.06Zm.06,.38h.09v.06h-.04s-.06-.02-.06-.06Zm.11-8.83h.06s-.04,.06-.11,.11v-.06s.03-.06,.06-.06Zm.21-.15h.06s-.06,.1-.06,.15h-.15v-.04s.05-.06,.15-.11Zm.23,.75c-.08,.21-.17,.34-.28,.38,0,.08-.03,.11-.09,.11v.09h.09c.01-.11,.08-.22,.21-.32,.03,0,.06-.07,.11-.21h.02v-.06h-.06Zm-.38,7.91v.06h.09v-.06h-.09Zm.06,.38h.06l-.02,.15h-.09v-.09s.03-.06,.06-.06Zm.38-8.78s-.02,.06-.06,.06v.06h.06v.06l-.23,.15v-.06h-.06v.06s.06,.04,.06,.11h.04c.15-.06,.23-.15,.23-.26h.06v-.06h-.09v-.06h.09v-.06h-.09Zm-.28,.49v.06h.06v-.06h-.06Zm0,7.97v.09s.06,.02,.06,.06h.06v-.06s-.06-.03-.06-.09h-.06Zm.11-8.78h.06v.06h-.11s.02-.06,.06-.06Zm0,15.17h.15v.06h-.21s.02-.06,.06-.06Zm.06-6.24v.06s.06,.02,.06,.06h.06v-.06s-.06-.02-.06-.06h-.06Zm0,.43v.02s.03,.07,.09,.09h.11v-.06s-.06-.02-.11-.06h-.09Zm.21,.32v.06h.06v-.06h-.06Zm0,.11v.06h.32l.08,.06h.26v-.06h-.17l-.09-.06h-.39Zm.06,5.49v.06h.06v-.06h-.06Zm.11-14.7s-.02,.06-.06,.06v.06h.06s.04-.06,.11-.06v-.06h-.11Zm.11-.64v.06h.09v-.06h-.09Zm0,.32v.06h.09v-.06h-.09Zm.09,.17v.06h.06v-.06h-.06Zm.06-.17v.06h.06v-.06h-.06Zm.02,15.02h.13v.06h-.13v-.06Zm.04-15.45v.11h.04s.05-.02,.08-.08v-.04h-.11Zm0,.54v.06h.06v-.06h-.06Zm3.82,.86h-.3l-.08,.06h-.21c0,.08-.11,.11-.34,.11-.31,.09-.53,.21-.64,.36-.1,0-.23,.09-.38,.28-.06,0-.19,.12-.38,.36-.2,.15-.34,.34-.43,.56-.06,0-.17,.19-.32,.56-.04,0-.07,.08-.09,.22-.09,0-.18,.26-.28,.77-.05,.04-.1,.19-.15,.47-.05,0-.09,.16-.13,.49-.03,0-.04,.01-.04,.04v.45l-.06,.09v1.5l.06,.08v.38s.06,.14,.09,.36c.01,0,.02,0,.02,.02v.15c.08,0,.16,.17,.26,.53,.08,.06,.11,.14,.11,.23h.15l.09,.06h.34l.09,.06h.62l.09-.06h.28l.09-.06h.28s.04-.02,.09-.06h.17c0-.06,.14-.12,.41-.17,0-.06,.15-.13,.45-.21,0-.06,.02-.09,.06-.09h.15c0-.08,.04-.12,.11-.15,0-.04,.12-.11,.38-.23,.1-.13,.24-.25,.43-.38,0-.05,.09-.16,.26-.32,0-.06,.09-.21,.26-.45,.2-.39,.33-.62,.39-.7,.15-.33,.24-.5,.26-.53v.15c-.08,.14-.13,.27-.17,.4l-.11,.21h-.04v.15l-.06,.08v.15h-.06v.09h.06c.01-.06,.12-.24,.32-.53,.04-.2,.11-.36,.21-.49l.23-.64c0-.15,.05-.32,.15-.51,.21-.71,.32-1.12,.32-1.22h.06v-.21l.06-.08v-.47l.06-.08s-.07-.16-.09-.38c-.01,0-.02-.01-.02-.04,0-.04,.04-.06,.11-.06v-.15s.06-.09,.06-.13h.02c.06,0,.09,.04,.09,.13h.04s.08-.06,.11-.06v-.06h-.06v-.06h.17c.15,.18,.24,.26,.26,.26,0,.04,.02,.15,.06,.34h.06v-.26s-.06-.06-.06-.08v-.32h-.26c-.05-.04-.16-.07-.32-.09v-.06h-.17c-.11-.1-.38-.21-.81-.32v-.06h-.15c-.08-.06-.22-.11-.43-.13-.26-.08-.44-.12-.53-.15h-.28s-.06-.03-.06-.09h-.21l-.08-.06h-.36l-.08-.06h-.19l-.08,.06Zm-3.7-1.03s-.02,.06-.06,.06v.06h.06s.02-.06,.06-.06v-.06h-.06Zm-.06,16.37v.06h.06v-.06h-.06Zm.11-16.84v.09h.09v-.09h-.09Zm.09,10.21v.02h.21s.05-.03,.08-.08v-.04h-.21s-.05,.03-.08,.09Zm.11-.64v.06h.06v-.06h-.06Zm0,6.18h.06v.02h-.06v-.02Zm.17-15.86v.06h.06v-.06h-.06Zm0,.11v.09h.06v-.09h-.06Zm.06,10.22v.09h.64v-.09h-.64Zm.11-.86h.08v.06h-.08v-.06Zm.04-9.59v.06h.06v-.06h-.06Zm.17,9.64h.21s.06,.03,.06,.06l-.06,.04h-.21s-.06-.02-.06-.06l.06-.04Zm-.06,6.5h.09v.06h-.04s-.06-.02-.06-.06Zm.21-15.83s-.05,.06-.15,.06v.06h.15s.02-.06,.06-.06v-.06h-.06Zm-.09-.15v.06h.09v-.06h-.09Zm.09,10.17v.06h.23v-.06h-.23Zm.21,5.81h.06v.06h-.06v-.06Zm.83-6.5h.21s.06,.03,.06,.06c-.13,.03-.21,.06-.26,.09h-.34l-.09,.06h-.06l-.09-.06h-.19v-.06h.71c0-.06,.02-.09,.06-.09Zm-.71-6.35h.06s-.02,.06-.06,.06v-.06Zm.06,7.05v.06h.17l.09,.06h.17v-.06s-.06-.02-.11-.06h-.32Zm.06-10.23v.11h.45c.06,0,.09,0,.09-.02l.15,.02h.55v-.06h-.38l-.09-.06h-.56s-.09,.01-.11,.04c-.05-.03-.08-.04-.09-.04Zm.17,16.47v.06h.06v-.06h-.06Zm.21,.06v.06h.17v-.06h-.17Zm.06-6.24v.06h.17v-.06h-.17Zm1.79,5.86v.06h-.38c0,.06-.02,.09-.06,.09h-.39l-.09,.06h-.86v.06h1.47l.09-.06h.23c0-.1,.02-.15,.06-.15h.09v-.06h-.15Zm-1.62-16.26v.06h.21v-.06h-.21Zm.06,10.34v.06h.15v-.06h-.15Zm0,6.35v.09h.32v-.09h-.32Zm.41-7.1h.08v.06h-.08v-.06Zm.43,7.2v.06h.06v-.06h-.06Zm.21-7.37h.02s.06,.02,.06,.06h-.08v-.06Zm.02,7.37v.06h.21v-.06h-.21Zm.32-.09v.09h.06v-.09h-.06Zm.17,0v.09h.32v-.09h-.32Zm.21-.11v.06h.11v-.06h-.11Zm4.85-7.31v.21l-.06,.09v.4l-.17,.53c-.1,.08-.18,.26-.24,.54-.05,.05-.09,.2-.13,.45-.04,0-.07,.08-.09,.24-.05,0-.12,.14-.21,.43-.15,.25-.32,.65-.51,1.2-.04,0-.12,.12-.24,.36-.05,.2-.34,.59-.86,1.18-.19,.12-.28,.2-.28,.23,0,.06-.16,.17-.47,.34,0,.03-.06,.08-.17,.15l-.23,.17,.06,.09h-.11v.02l.06,.09v.04h-.17l-.21,.11c-.05-.04-.08-.06-.09-.06h-.02c0,.08-.02,.11-.06,.11h-.04l-.08-.06h-.15v.06h.09v.06h-.15v-.06h-.11c-.05,.04-.1,.06-.15,.06v.15h.21c0-.1,.02-.15,.06-.15v.06h.21l.43-.15c.17-.09,.29-.13,.34-.13v-.06l-.06-.09h.06l.09,.06h.11s.06-.08,.17-.11c0-.04,.08-.09,.23-.15,.14-.09,.29-.2,.47-.34,.05,0,.2-.16,.45-.49,.09,0,.13-.05,.13-.15,.08,0,.17-.11,.28-.32,.2-.25,.36-.52,.47-.81,.04-.04,.08-.06,.11-.06v-.17c.18-.41,.3-.66,.38-.75,0-.05,.04-.15,.11-.3v-.13c.08,0,.13-.12,.17-.36,.04,0,.06-.02,.06-.06v-.17h.09v-.17h-.09v.17s-.06,.05-.11,.15v-.47s.06-.14,.09-.34l.28-.47v-.26h.06c.04,.11,.06,.18,.06,.21h.09v-.11h-.09v-.15l-.06-.08v-.3l.15,.04v-.21c-.06,0-.09-.02-.09-.06v-.26h-.06Zm-4.68,7.26v.06h.15v-.06h-.15Zm.09,.11v.06h.23v-.06h-.23Zm.11,.21v.06h.06v-.06h-.06Zm.64-.53h-.15v.06l.06,.09v.06h-.15l-.08,.06h-.15v.11h.04c.15-.05,.26-.1,.34-.15v-.02h.26v-.06h-.17v-.06c.09,0,.14-.04,.17-.13v-.02h-.09l-.07,.06Zm-.43-15.83h.17s.06,.03,.06,.06h-.23v-.06Zm.17,15.92v.06h.06v-.06h-.06Zm0,.38v.06h.06v-.06h-.06Zm.06-16.24h.11s.15,.07,.38,.09v.02l-.06,.04h-.43v-.15Zm.06,15.34v.06h.06v-.06h-.06Zm.11-.06v.06h.09v-.06h-.09Zm3.7-3.35c-.04,.11-.09,.17-.17,.17-.02,0-.06,.05-.09,.15v.23s-.06,.04-.06,.11c-.04,0-.06-.02-.06-.06v-.17c.08-.21,.13-.32,.17-.32h.06v-.06h-.11s-.06,.08-.17,.19c0,.06-.05,.16-.15,.3-.14,.34-.29,.63-.47,.88,0,.09-.11,.26-.34,.53,0,.06-.08,.16-.23,.28,0,.08-.05,.14-.15,.21,0,.02-.09,.11-.26,.26,0,.06-.09,.14-.26,.23-.04,.09-.11,.15-.23,.19-.08,.08-.11,.13-.11,.17h-.17c0,.08-.09,.14-.26,.21,0,.06-.11,.12-.34,.19l-.04,.06v.04h.09l.39-.23h.06v.06h.09v-.06h-.09v-.04s.07-.06,.21-.11h.11v.06h.06v-.06s-.08-.04-.11-.11c.31-.05,.47-.16,.47-.32,.11,0,.29-.16,.54-.49h.06v.11h-.06v.15h.06v-.15h.06l.11,.21h.06v-.06l-.17-.15v-.11h.06v.06h.06s.07-.09,.21-.21c0-.08,.06-.19,.17-.34,0-.03,.09-.13,.26-.32,.04-.2,.09-.3,.17-.3,0-.05,.03-.08,.09-.08v-.15s.04-.06,.11-.15v-.08c-.08,0-.13-.04-.15-.11-.04,0-.06-.02-.06-.06l.06-.04h.09s.06,.05,.06,.15h.06v-.21s.06-.04,.08-.11c.05,0,.09-.09,.13-.26,.08,0,.11-.03,.11-.09v-.13h.06v-.06h-.06Zm-3.44,3.93v.06h.06v-.06h-.06Zm.11-.7h.11v.06h-.11v-.06Zm.04-14.96h.02v.06h-.02v-.06Zm.23,15.39c0,.08-.03,.11-.09,.11h-.02v.06h.11s.02-.06,.06-.06v-.11h-.06Zm-.06-.47h.02s.07,.03,.09,.09c-.04,0-.06,.02-.06,.06-.04,0-.06-.02-.06-.06v-.09Zm.6-8.25v.11h.09v.11c-.06,0-.09,.04-.09,.11v.04h-.06v-.15h-.06v.15h.06v.11h-.06v-.06h-.06v.06h.06v.11h-.06v-.06h-.06c-.05,.14-.08,.21-.09,.21h-.06v.06h.09v.11s-.11,.04-.21,.11v.09h.06c0-.06,.07-.14,.21-.24,0-.04,.04-.1,.11-.19,.06-.17,.13-.3,.21-.38,.06-.21,.12-.32,.17-.32v-.06h-.06v.06l-.09-.06s-.09,.06-.11,.06Zm-.49,8.18h.06v.02h-.06v-.02Zm0,.71v.09h.06v-.09h-.06Zm.11-.17v.06h.09v-.06h-.09Zm.09-7.97h.06v.06h-.06v-.06Zm0,8.08v.06h.06v-.06h-.06Zm.06-8.23h.06v.15h-.06v-.15Zm.11,7.31v.06s-.04,.06-.11,.11v-.11s.06-.02,.11-.06Zm-.09-14.42h.09s.14,.07,.32,.09v.02l-.06,.04h-.32l-.04-.15Zm.04,15.02v.09c.06,.04,.1,.06,.11,.06v.06c-.06,.04-.1,.06-.11,.06v.06h.06c.01-.08,.05-.11,.11-.11v-.06c-.08,0-.11-.05-.11-.15h-.06Zm.06-.64h.06v.04h-.06v-.04Zm.06-8.91h.06v.08s-.02,.06-.06,.06v-.13Zm0,8.95h.06v.02h-.06v-.02Zm.11-9.25l.04,.06v.09s-.02,.06-.06,.06l-.04-.06v-.09s.03-.06,.06-.06Zm0,9.04l.04,.06v.04h-.04s-.06-.02-.06-.06l.06-.04Zm.04,.09s.06,.02,.06,.06v.06h-.15c.06-.05,.09-.09,.09-.11Zm0-7.73h.06v.04h-.06v-.04Zm0,8.33v.06h.06v-.06h-.06Zm0,.38v.06h.06v-.06h-.06Zm.06-10.38h.06v.06h-.06v-.06Zm0,1.33v.11h.06v-.11h-.06Zm.02,7.91h.04v.06h-.04v-.06Zm.09-8.08s-.02,.06-.06,.06v.06h.06v-.06h.06v.11h-.06v.11h.06c0-.08,.02-.11,.06-.11v-.11s-.06-.02-.06-.06h-.06Zm-.06,7.99h.02s.07,.04,.09,.04c0,.04-.02,.06-.06,.06h-.06v-.09Zm0,.15s.06,.02,.06,.06v.09s-.06-.02-.06-.06v-.09Zm0,.64v.06h.06v-.06h-.06Zm0,.17v.09h.06v-.09h-.06Zm.06,.21v.06h.06v-.06h-.06Zm.11-1.24v.06s-.02,.06-.06,.06v-.06s.02-.06,.06-.06Zm0-8.29v.06h.09v-.06h-.09Zm.21,8.1l.06,.09v.04c-.08,0-.13,.02-.17,.06h-.09v-.09s.07-.07,.21-.09Zm-.11,.79s-.03,.06-.09,.06v.09h.09c0-.06,.04-.09,.11-.09v-.06h-.11Zm0-9.04v.06h.06v-.06h-.06Zm.02-5.28h.09s.06,.02,.06,.06h-.15v-.06Zm.04,5.11v.11h.06v-.11h-.06Zm0,.87v.06h.06v-.06h-.06Zm.11-1.35v.17h-.06v.21h.06v-.21h.06v-.17h-.06Zm0,1.09c0,.1-.02,.15-.06,.15v.06h.06s.02-.06,.06-.06v-.15h-.06Zm-.06,8.5v.06h.06v-.06h-.06Zm.02-.81h.09s-.02,.06-.06,.06h-.04v-.06Zm.04-13.34h.21c.05,.08,.09,.11,.11,.11,0,.04-.02,.06-.06,.06-.1-.05-.19-.09-.26-.11v-.06Zm.06,4.79v.06h.06v-.06h-.06Zm0,.7v.11h.06v-.11h-.06Zm.06,7.74v.06s-.02,.06-.06,.06v-.06s.02-.06,.06-.06Zm0,1.3s-.02,.06-.06,.06v.06h.06s.03-.06,.09-.06v-.06h-.09Zm.06-1.39h.04v.04s-.02,.06-.06,.06h-.04v-.04s.02-.06,.06-.06Zm-.06,.9v.06h.09v-.06h-.09Zm.09-10.06v.06h.06v-.06h-.06Zm0,1.24v.06h.06v-.06h-.06Zm.06-1.13v.09h.06v-.09h-.06Zm0,.96v.06h.06v-.06h-.06Zm.06-.26v.06h.06v-.06h-.06Zm0,8.89h.06v.04h-.06v-.04Zm0,.73v.06h.06v-.06h-.06Zm.06-12.16v.06h.06v-.06h-.06Zm.06,10.6v.08h-.06v-.02s.02-.06,.06-.06Zm.11,.6v.09s-.06,.09-.06,.17h-.06c0-.08-.02-.13-.06-.17l.17-.09Zm-.11-9.04v.06h.06v-.06h-.06Zm0,9.85v.06h.06v-.06h-.06Zm.06-1.52h.06s-.02,.06-.06,.06v-.06Zm.21,.6v.11h-.15s.05-.06,.15-.11Zm-.11-.92h.06s.06,.02,.06,.06v.08h-.06s-.02-.08-.06-.08v-.06Zm.06-10.43v.11h.11v-.11h-.11Zm0,1.82v.06h.06v-.06h-.06Zm0,9.91v.06h.06v-.06h-.06Zm.11-1.5v.11s-.06-.02-.06-.06,.02-.06,.06-.06Zm0,.92s.02,.1,.06,.15c-.04,0-.06,.02-.06,.06h-.06v-.15s.02-.06,.06-.06Zm.06,.7c0,.14-.04,.21-.11,.21v.06h.06c.01-.08,.05-.11,.11-.11v-.15h-.06Zm-.06-13.35v.06h.06v-.06h-.06Zm.11,11.47s.06,.02,.06,.06c-.09,.14-.14,.21-.17,.21v-.06c.05-.14,.09-.21,.11-.21Zm-.11,.38s.06,.02,.06,.06h-.06v-.06Zm.06,.7v.06s-.02,.06-.06,.06v-.06s.02-.06,.06-.06Zm.32-.49v.11c-.13,.2-.21,.33-.26,.38h-.06v-.06c.16-.28,.27-.42,.32-.43Zm-.26,.86v.06s.06,.05,.06,.15h.09v-.15c-.06,0-.09-.02-.09-.06h-.06Zm.21-1.73v.11s-.04,.06-.11,.11l-.04-.06v-.06s.05-.06,.15-.11Zm.11-.32h.06v.17s-.06,.05-.06,.15h-.11v-.15c.05-.11,.09-.17,.11-.17Zm-.06,1.79c0,.1-.02,.15-.06,.15v.06h.06s.02-.06,.06-.06v-.15h-.06Zm.17,.15c-.11,.12-.17,.21-.17,.26,0,.04-.02,.06-.06,.06v.06h.06c.08-.21,.16-.32,.26-.32v-.06h-.09Zm-.17-.92h.06v.11s-.02,.06-.06,.06v-.17Zm.06-14.19v.26h.06v.21h.06v.49h.09v.17h.06v-.17h-.06v-.49h-.09v-.21h-.06v-.26h-.06Zm.17,12.74h.04v.17s-.03,.06-.09,.06v.15s-.02,.06-.06,.06v-.21c.05-.15,.09-.23,.11-.23Zm-.11,1.2h.06v.09s-.06-.02-.06-.06v-.04Zm.06,.15v.17h-.06v-.11s.02-.06,.06-.06Zm0-.06h.06v.06h-.06v-.06Zm.09,.58s-.03,.06-.09,.06v.11h.09c0-.08,.02-.11,.06-.11v-.06h-.06Zm0-14.47v.23h.06v-.23h-.06Zm.11,12.33v.26h-.11v-.09c.05-.11,.09-.17,.11-.17Zm.06-.17h.06v.06s-.04,.06-.11,.11v-.11s.02-.06,.06-.06Zm-.06,1.99v.06h.06v-.06h-.06Zm.06-.15v.09h.06v-.09h-.06Zm.26-.54c0,.08-.05,.13-.15,.17v.21h-.06v.11h.06c0-.06,.05-.16,.15-.28,0-.06,.02-.09,.06-.09v-.11h-.06Zm.17-13.83h.26s.11,.06,.23,.06c0,.04-.02,.06-.06,.06h-.7s-.06-.02-.06-.06v-.02l.15,.02h.08l.09-.06Zm.21,12.33c-.06,.06-.09,.13-.09,.21-.04,0-.07,.06-.09,.17-.01,0-.02,0-.02,.02v.25s-.06,.02-.06,.06h-.06v-.32s.08-.05,.11-.15v-.08h-.04s-.05,.03-.08,.08v.15l-.15,.06v.06c.06,0,.09,.02,.09,.06-.04,.03-.07,.04-.09,.04v.17h-.06v.21h.06v-.21s.1-.02,.15-.06c0,.11,.02,.17,.08,.17h.04v-.09l-.06-.08c.05,0,.11-.08,.17-.23v-.26c.06,0,.09-.04,.09-.11,0-.02,.02-.04,.06-.04v-.06h-.06Zm-.47-.49v.06h.09v-.06h-.09Zm.15,0c0,.08-.02,.11-.06,.11v.21h.06v-.21h.06v-.11h-.06Zm.11,.49v.06h.06v-.06h-.06Zm0,1.01v.06h.06v-.06h-.06Zm.06-2.09v.09h.06v-.09h-.06Zm0,1.94v.09h.06v-.09h-.06Zm.06-3.4v.17h.09v-.17h-.09Zm0,2.05v.11h.15v-.11h-.15Zm0,1.18v.11h.09v-.11h-.09Zm.09-2.86v.11h.06v-.11h-.06Zm0,2.74v.06h.06v-.06h-.06Zm.06-.15v.06h.06v-.06h-.06Zm.06-3.4v.06h.06v-.06h-.06Zm.06,2.37v.11h.06v-.11h-.06Zm0,.54v.21h.06v-.21h-.06Zm.43-1.73v.28h-.06v.32h-.06v.32h-.06v.17h-.06v.21h-.09v.26h-.06v.11h.06c0-.08,.03-.11,.09-.11v-.26h.06v-.21h.06v-.17h.06v-.32h.06v-.32h.06v-.28h-.06Zm-.38,.06v.11h.06v-.11h-.06Zm.11-10.6h.06v.06h-.11s.02-.06,.06-.06Zm.15,9.74v.28l-.11,.36,.06,.08v.09l-.06,.08v.09h.11v-.49l.06-.09v-.39h-.06Zm.06-.64v.17h.06v-.17h-.06Zm.54-8.78h.23v.06s-.08,.01-.11,.04c-.03-.02-.08-.04-.17-.04,0-.04,.02-.06,.06-.06Zm.49,.23h.06v.06h-.06v-.06Z"/><path class="d" d="M91.21,67.45h.06v.08h.02l.09-.06h.38s.15,.07,.38,.09c0,.05,.09,.11,.26,.19,0,.05,.14,.13,.43,.24,0,.04,.12,.17,.38,.4,0,.05,.06,.16,.17,.32v.15c.06,0,.13,.06,.21,.17v.06s-.04,.06-.11,.06v.15s-.03,.06-.09,.06v.21l-.06,.08v.36l-.06,.08v.21h.08l.09-.06h.15c0-.11,.02-.17,.06-.17v.06h.06v-.06h.17l.09-.06h.17c0-.06,.11-.12,.32-.19,0-.05,.11-.11,.32-.19h.17c0-.08,.08-.11,.23-.11,.1-.04,.15-.09,.15-.15h.17c.17-.1,.28-.17,.32-.21h.21c0-.1,0-.15,.02-.15,.04,.02,.07,.04,.09,.04,0-.04,.08-.07,.23-.09,.21-.19,.36-.28,.43-.28l.58-.23h.15c0-.09,.23-.16,.7-.21,0-.04,.08-.07,.24-.09,.21-.02,.33-.05,.36-.08h.51s.15,.05,.3,.08c.54,.09,.81,.21,.81,.36,.24,.1,.4,.21,.49,.34,.41,.21,.8,.48,1.15,.79,.28,.29,.43,.43,.47,.43,.26,.39,.4,.66,.4,.81,0,.08,.02,.13,.06,.17v1.77l-.06,.08v.41l-.06,.08v.36s-.03,.06-.08,.06v.21c-.04,.06-.09,.28-.15,.66-.1,.28-.16,.49-.17,.64h-.06v.13s-.07,.15-.09,.3c-.03,.2-.05,.31-.08,.34v.47l-.08,.08v.3s-.05,.14-.08,.32h-.06v.26l-.06,.08v.28l-.11,.32v.3s-.02,.04-.06,.08v.36l-.08,.08v.56l-.06,.08v.79s-.03,.06-.08,.06v1.45s.08,.02,.08,.06v.75s-.03,.06-.08,.06v.38c-.06,.18-.12,.29-.17,.34v.26h-.08v-.06h-.19c-.06-.08-.19-.13-.38-.15,0-.03-.14-.14-.43-.34,0-.05-.14-.18-.43-.38,0-.08-.03-.11-.09-.11h-.06l-.09,.06c-.12-.29-.28-.43-.45-.43-.08-.18-.12-.35-.15-.53-.01,0-.02-.01-.02-.04v-.34l-.06-.09v-.28l-.08-.09v-.32s-.08-.02-.08-.06v-.43l-.06-.08v-.24s-.01-.08-.04-.11c.03-.02,.04-.06,.04-.11l-.06-.08v-2.09l.06-.09v-.56l.06-.09v-.6s.03-.06,.08-.06v-.26l.08-.09v-.28c.04-.05,.11-.41,.23-1.09,0-.04,.02-.08,.06-.13v-.28s.02-.06,.08-.06v-.17l.19-.53v-.34l.06-.09v-.02s-.01-.09-.04-.13c.02-.02,.04-.06,.04-.11l-.06-.08v-.04l.11-.32v-.34s.02-.06,.08-.06v-.38h-.11c-.1,.08-.3,.14-.6,.21-.24,.16-.59,.31-1.07,.43,0,.08-.12,.14-.38,.19l-.45,.21c-.01,.08-.24,.23-.68,.47-.29,.09-.46,.18-.51,.28-.04,0-.08,.02-.11,.06h-.15c0,.05-.16,.16-.49,.32-.05,.08-.18,.14-.38,.21-.04,.06-.18,.15-.43,.26-.17,.09-.26,.14-.26,.17-.05,.09-.14,.13-.26,.13-.04,0-.17,.11-.4,.32l-.47,.15v1.5c.06,0,.09,.02,.09,.06v.34l.06,.09v1.41l.06,.09v.6l.06,.09v1.26l.06,.09v1.01l-.06,.08v1.05c-.09,.19-.19,.31-.32,.38h-.17s-.14-.07-.32-.21c-.53-.16-.79-.32-.79-.47-.19-.06-.37-.19-.55-.39-.12,0-.23-.08-.32-.25-.28-.16-.44-.31-.49-.45-.04,0-.06-.02-.06-.06v-.06l.15-.15v-.34l.06-.09v-.09l-.06-.08v-.43l.06-.09v-.43l-.06-.09v-.13l.06-.09-.06-.08v-1.37l-.06-.08v-.43c-.06,0-.09-.02-.09-.06v-.62l-.06-.08v-1.17l-.06-.08v-.47s-.14-.16-.38-.32c-.1-.15-.16-.23-.17-.23l-.41-.53s-.12-.09-.23-.28v-.11c.03-.06,.11-.12,.26-.17,0-.05,.08-.18,.23-.38,0-.08,.12-.16,.36-.24,0-.01,0-.02,.02-.02h.21v-.86l.06-.09v-.71l.06-.09v-.28s.07-.16,.09-.38c.04-.04,.08-.06,.11-.06v-.3h.06v.81l.06,.09v.39l.06,.09v1.07h.17s.1-.06,.15-.06v-.17h-.04l-.13,.11-.09-.17v-.09l.06-.09v-.06l-.06-.08v-.41l.06-.08-.06-.09v-.38s.02-.06,.06-.06v.11h.09c0-.08,.02-.11,.06-.11v-.49s.06,.02,.06,.06v.17h.06v-.34l-.06-.09v-.06l.06-.09v-.13c0-.06-.01-.09-.04-.09l.04-.15v-.24l-.06-.09v-.21c.08-.05,.12-.19,.15-.43,.01,0,.02,0,.02-.02v-.21h.04l.08,.06h.04v-.21s.06-.09,.06-.13Zm-.81,1.73h.06v.02h-.06v-.02Zm.06,.26h.06v.06h-.06v-.06Zm.06,11v.06h.06v-.06h-.06Zm.21-11.37h.06v.28l-.06,.09v.06l.06,.08v.09h-.06v.49h-.09v-.41s0-.08-.02-.11c0-.19,.04-.28,.11-.28v-.28Zm-.04-1.22l.04,.06s-.02,.06-.06,.06l-.04-.06s.02-.06,.06-.06Zm0,.58l.04,.06s-.02,.06-.06,.06l-.04-.06s.02-.06,.06-.06Zm-.06,2.65v.09h.09v-.09h-.09Zm.09-3.01h.06v.19h-.06v-.19Zm0,2.29v.17h.06v-.17h-.06Zm0,10.71v.06h.06v-.06h-.06Zm.11-13.38h.06v.15s-.03,.06-.09,.09h-.02v-.04s.06-.11,.06-.21Zm-.06,1.05h.06v.08h-.06v-.08Zm.06,6.15v1.2l.06,.09v.28l.06,.09v.54l.06,.09v.17c.06,0,.12,.19,.17,.58l.04,.06v.34s.02,.06,.08,.09h.04v-.24l-.04-.13h.09v-.17h-.06l.06-.09v-.81h-.06v.15s-.06,.06-.17,.08l-.06-.08v-.43h-.06v-.06h.06v-.09c-.06,0-.09-.02-.09-.06v-.86h-.06v.13h-.06v-.28h.02s.08,.04,.09,.04v-.32s.02-.06,.06-.06l.04,.06v.92h.06v-.36h.06v.43l-.06,.09v.09h.11v.26h-.06v.49h.06v-.26l.06-.09v-.06l-.06-.08h.06v-.26h-.06v-1.22c-.09-.14-.21-.23-.36-.28h-.08Zm.11-5.06v.53l-.06,.08v1.22h.11v-.09l-.06-.08s.06-.02,.06-.06v-.13l-.06-.08,.06-.09v-1.3h-.06Zm-.06,5.34h.06v.06h-.06v-.06Zm.11-7.71h.04s.06,.02,.06,.06v.09c-.06,.05-.09,.09-.09,.11-.04,0-.06-.02-.06-.06v-.15s.02-.06,.06-.06Zm0,1.94v.26h.09v-.26h-.09Zm.15-1.3v.17h.06v-.17h-.06Zm.06-.49v.11h.06v-.11h-.06Zm0,9.72h.06v.3s-.06-.02-.06-.06v-.24Zm2.25-7.27h.06v.06h-.06v-.06Zm.17-.06h.06v.04h-.06v-.04Zm5.24,5.15h.04v.06h-.04v-.06Zm.49-3.67h.08v.02h-.08v-.02Zm0,10.62v.08h.08v-.08h-.08Zm1.05-9.38c0,.08-.02,.11-.06,.11v.17c-.08,.16-.12,.34-.15,.53-.06,.36-.11,.55-.15,.55h-.02v.21c-.04,.06-.11,.37-.21,.92l-.09,.19v.3s-.03,.06-.08,.06v.64l-.06,.08v.62l-.06,.08v2.2l.06,.09v.49h.06v.32h.08v-.32h-.08v-.26s.02-.06,.08-.06v-.06c-.05,0-.08-.02-.08-.06v-1.99s.02-.06,.08-.06v-.47l.08-.09v-.51l.06-.09-.06-.09v-.08l.06-.09v-.34s.05-.15,.08-.38c.02,0,.04-.01,.04-.04v-.28s.05-.15,.08-.38h.06v-.17s.04-.06,.08-.06v.06h.06v-.06h-.06v-.32s.08-.25,.13-.64c.02-.12,.06-.21,.09-.26v-.34h.06v-.11h-.06Zm-.6,8.95v.26c-.13,.11-.19,.19-.19,.24-.01,0-.02,.01-.02,.04v.11c.16,.11,.28,.21,.34,.28h.09v-.17c-.06-.15-.12-.26-.17-.32,.04,0,.06-.02,.06-.06v-.17l-.06-.09v-.13h-.06Zm.66-8.4v.49l-.11,.34v.3l-.06,.08v.11l.06,.09c-.08,0-.12,.14-.15,.41-.01,0-.02,0-.02,.02v.28s-.07,.15-.09,.3h-.06v.7l-.06,.08v.32l.06,.09v.49s-.06-.02-.06-.06v-.32h-.06v.54l.02,.15s-.05,.03-.08,.08v1.75l-.06,.08v.3h.11v-1.39l.06-.09v-.28h.06v-.75h.08v-.43l.08-.09v-.88c.02-.06,.07-.29,.13-.7,.02-.21,.06-.33,.09-.36v-.34s.06-.08,.06-.09v-.34s.03-.06,.08-.06v-.32l.08-.09v-.06l-.08-.08v-.26h-.08Zm-.66,7.05v.24h.06v-.24h-.06Zm0,.3v.21l.06,.09v.26h.06v-.36s-.06-.11-.06-.21h-.06Zm0,.81v.19h.06v-.19h-.06Zm.06-1.43v.11h.06v-.11h-.06Zm.06-2.09h.06v.21s-.06-.02-.06-.06v-.15Zm.06-2.44v.06h.06v-.06h-.06Zm.11,1.09l.02,.06-.06,.04-.02-.08,.06-.02Zm.45-3.5v.15h.08v-.15h-.08Zm.51-4.32h.06v.02h-.06v-.02Zm1.37,.98h.06s-.02,.06-.06,.06v-.06Z"/><path class="d" d="M59.09,102.9h.06v.21h-.06v-.21Zm3.51-11.73c.11,0,.21,.06,.3,.17,.23,.04,.34,.17,.34,.41l.06,.09v.23c.06,0,.09,.02,.09,.06v.21s-.03,.06-.09,.06v.13l-.06,.09v.71l-.06,.09v1.03l-.06,.09v.58l-.06,.08v.87l-.06,.09v.53l-.06,.08v.54s-.03,.06-.09,.06v.45l-.06,.08v.28l-.06,.09v.6l-.06,.09v.21l.06,.08v.43l-.06,.09v1.03l-.06,.09v.49l.06,.09v.24l-.06,.09,.06,.09v.81l.06,.08v.47l.06,.08v1.11l.06,.08v.64c.06,0,.09,.02,.09,.06v.41l.06,.08v.47s.09,.29,.17,.77c.04,0,.08,.14,.11,.43,.08,0,.11,.1,.11,.3,.19,.68,.44,1.2,.75,1.58,.46,.58,.75,.91,.85,1,.02,.08,.17,.25,.43,.51l.17,.21c0,.06,.12,.12,.38,.17,.3,.05,.56,.16,.79,.32,.51,.11,.77,.22,.77,.32h.15c.11,.08,.24,.13,.38,.15,.11,.03,.2,.07,.26,.13,.05,0,.08,.03,.08,.09h.15l.26,.11h2.5c.15-.04,.33-.16,.53-.38,.04,0,.11-.09,.21-.28,.09,0,.18-.16,.28-.49,.03,0,.11-.11,.26-.32,.06,0,.11-.1,.15-.3,.06,0,.16-.19,.28-.56,.11-.06,.21-.22,.28-.47,.11-.09,.17-.19,.17-.32,.09,0,.19-.25,.32-.75,.09-.11,.15-.17,.19-.17v-.15c.08-.11,.18-.4,.3-.87h.08v-.19c.06-.18,.11-.38,.13-.62,.05-.05,.11-.21,.17-.49h.08v-.15c.06-.1,.14-.31,.23-.62,.04,0,.06-.1,.08-.3,0-.05,.04-.16,.13-.34,.08-.25,.12-.47,.13-.66l.09-.21v-.3l.06-.08v-.3s.03-.06,.09-.06v-.24c.04-.05,.1-.32,.19-.81,.05-.11,.09-.28,.11-.51h.06v-.24l.08-.09v-.34l.06-.09v-.28s.05-.16,.08-.38c.02,0,.04-.01,.04-.04v-.88l.06-.09v-.26h.06v1.03h.09v-.23h.06v.36l-.06,.08v.49s-.03,.06-.09,.06v.49l-.06,.09v.28s-.07,.16-.09,.38c-.01,0-.02,.01-.02,.04v.34l-.06,.09v.28h-.06v.3l.06,.08v.04h-.04s-.07-.04-.09-.04v.38s-.03,.06-.08,.06v.26s-.06,.14-.09,.36c-.01,0-.02,0-.02,.02v.15s.02,.05,.08,.08h.04c0-.08,.03-.11,.08-.11v-.13c.06-.12,.11-.19,.13-.19v.11h.06c0-.08,.02-.11,.06-.11v-.06h-.06v.06h-.06v-.06c.12-.09,.19-.19,.19-.32h.06s.08,.03,.08,.06v.08s-.03,.06-.09,.06v.19s-.04,.06-.11,.06v.09l.06,.09v.11h-.06v-.09h-.06v.49l-.06,.09v.15h.02c.09-.06,.16-.23,.23-.51h.08v-.17c.06-.15,.12-.42,.19-.81,.02,0,.04,0,.04-.02v-.36s.06-.14,.08-.32h.06v-.19c.04-.08,.09-.28,.15-.62,.02,0,.04,0,.04-.02v-.3l.06-.08v-.3l.06-.08v-.28s.02-.08,.08-.08v-.38s.08-.06,.08-.08v-.41s.06-.06,.06-.08v-.09l-.06-.08v-.51l.06-.08v-.68l.06-.08v-1.45s-.06-.08-.06-.09v-.54l-.06-.08v-.36l-.08-.08v-.24c-.08,0-.11-.11-.11-.34-.03-.18-.07-.31-.13-.41v-.19c-.16,0-.33-.12-.49-.38,.08-.06,.11-.11,.11-.15,.06,0,.12-.07,.17-.21,.19-.01,.28-.09,.28-.23,.04,.03,.07,.04,.09,.04v-.21h-.64v-.04c.1-.08,.15-.13,.15-.17,.25-.05,.38-.1,.38-.15s.04-.09,.11-.13h.15c0-.13,.02-.19,.06-.19,.04,.05,.08,.08,.11,.08v.17h.06v-.17h-.06l.17-.15s.04,.06,.04,.08h.11c.01-.12,.05-.19,.11-.19h.13s.08,.11,.13,.32h.02s.04-.02,.09-.06c.04,0,.06,.06,.06,.17h.15v-.04l-.04-.13s.08-.07,.15-.21h.06c.17,.04,.26,.14,.26,.32,.08,.23,.14,.5,.19,.83,.03,0,.04,.01,.04,.04v.26s.08,.02,.08,.06v.34l.08,.09v.77l.06,.09v.39l.06,.09v1.39l-.06,.08v.21l.06,.09-.06,.08v.6l-.06,.09v1.24l.06,.09v.02l-.06,.09v.28l-.08,.09v.39s-.03,.06-.08,.06v.32l-.06,.09v.4l-.06,.09v.28l-.11,.36v.34s-.07,.16-.09,.38h-.06v.38s-.06,.14-.09,.36c-.01,0-.02,0-.02,.02v.28l-.06,.09v.09l.06,.08v.06l-.06,.09v.34s-.08,.24-.11,.56c-.05,0-.08,.02-.08,.06v.28s-.03,.06-.08,.06v.17c-.08,.2-.16,.51-.26,.92,0,.21-.04,.32-.11,.32v.26c-.08,.12-.18,.43-.32,.92-.04,0-.09,.12-.17,.36-.04,.04-.12,.26-.26,.66-.08,0-.15,.16-.23,.47-.16,.1-.31,.34-.43,.71,0,.11-.05,.24-.15,.38,0,.12-.08,.2-.23,.23v.15c-.08,.15-.14,.23-.21,.23v.15c-.09,.12-.16,.28-.23,.47-.18,.08-.26,.14-.26,.19,0,.08-.14,.18-.43,.32-.03,.08-.15,.18-.38,.32-.05,.05-.16,.12-.32,.21-.16,.15-.36,.28-.6,.38-.31,.19-.61,.33-.9,.43,0,.04-.14,.11-.41,.21-.23,.23-.37,.34-.43,.34-.34,.09-.52,.14-.54,.17h-.17c0,.09-.27,.16-.81,.21,0,.04-.21,.09-.64,.15,0,.01,0,.02-.02,.02h-.32c0,.06-.02,.09-.06,.09h-.38s-.06-.03-.06-.09h-1.71c0,.06-.02,.09-.06,.09h-.43s-.06-.03-.06-.09h-.21c-.06-.04-.3-.11-.71-.21-.08-.03-.16-.08-.26-.17l-.75-.26c-.04-.1-.21-.21-.53-.34-.09-.1-.28-.17-.56-.23l-.62-.26s-.12-.05-.24-.15c-.04,0-.11-.07-.21-.21-.19-.16-.65-.68-1.39-1.54-.29-.31-.43-.5-.43-.56-.18-.2-.26-.31-.26-.34-.24-.54-.44-1.06-.6-1.56v-.21c-.06,0-.1-.09-.11-.28-.05-.11-.09-.28-.11-.49-.03-.23-.08-.4-.15-.53v-.43c-.06,0-.1-.09-.11-.28-.02,0-.04-.01-.04-.04v-.49l-.06-.09v-.56l-.06-.09v-.75h.06v-.81h-.06v.15h-.06v-.26h.04s.06,.04,.08,.04v-.09l-.06-.09v-2.39h.04s.06,.02,.08,.02v-.17l-.06-.08,.06-.09v-.6l.06-.09v-.39h-.17v.23h-.06v-1.22l.06-.08v-.43l.06-.09v-.39l.06-.09v-.54l.06-.09v-.39s.03-.06,.09-.06v-.32l.06-.09v-.34l.06-.09v-1.15l.06-.09v-.28s.03-.06,.06-.06v.3h.06v.08h-.06v.43h.04c.05-.04,.09-.06,.11-.06v-.21c-.06,0-.09-.02-.09-.06v-.11h.09v-.08h-.09v-.13s.03-.06,.06-.06c.03,.02,.04,.07,.04,.13h.06v-.34l-.06-.09v-.08c.08-.05,.12-.19,.15-.43,.01,0,.02-.01,.02-.04v-.28l.06-.09v-.23h.06v.34l-.06,.09,.06,.09v.06h-.06v.49h.06v-.49h.09v-.32l.06-.09s-.01-.02-.04-.02c0-.16,.05-.26,.15-.3,0-.05,.04-.14,.11-.26,.04-.12,.11-.24,.21-.34,.11-.36,.22-.54,.32-.54,.11-.08,.25-.13,.4-.15,0-.01,.01-.02,.04-.02h.64c.2-.19,.37-.29,.51-.3Zm-3.46,13.46h.06v.11s-.06-.02-.06-.06v-.06Zm.06-5.32v.06h.06v-.06h-.06Zm.06,2.31v.62h.06v-.62h-.06Zm0,.81v.7h.06v-.7h-.06Zm0,2.48v.43h.06v-.43h-.06Zm.26-6.35v.32l-.06,.09v.32l.06,.08v.21s-.02,.06-.06,.06v-.19h-.09v.19h-.06v.11h.06v-.11h.09v.92s-.03,.08-.09,.08v2.35c.06,0,.09,.02,.09,.08v.66l.06,.08v.81h.06v-1.09l-.06-.08v-.47l-.06-.09v-1.99l.06-.08v-.81l.06-.09v-.75l-.06-.08,.06-.09v-.41h-.06Zm-.21,.56v.08h.06v-.08h-.06Zm.06-1v.06h.09v-.06h-.09Zm0,.56v.13h.09v-.13h-.09Zm0,5.41v.06h.09v-.06h-.09Zm0,.38v.26h.09v-.26h-.09Zm.09,.38v.9l.06,.09v.56h.06v-.66l-.06-.09v-.81h-.06Zm.43-8.83v.38l-.06,.09v.58s-.03,.06-.09,.06v.38s-.05,.15-.08,.38c-.03,0-.04,0-.04,.02v.41h-.06v.13h.06c0-.09,.04-.16,.11-.23v-.39s.03-.08,.09-.08v-.43l.06-.08v-.49l.06-.09v-.45l.06-.09v-.17h-.02s-.07,.03-.09,.08Zm-.32,8.78v.17h.06v-.17h-.06Zm0,.32v.17h.06v-.17h-.06Zm0,1.41v.26h.06v-.26h-.06Zm.06,.38v.15h.06v-.15h-.06Zm.06-12.72h.06v.04s-.02,.06-.06,.06v-.09Zm.32,.77c0,.1-.02,.17-.06,.21v.04h.11v-.24h-.06Zm-.06,.32v.56h.06v-.56h-.06Zm.11-1.18v.06h.06v-.06h-.06Zm1.65,18.31h.02v.06h-.02v-.06Zm5.11-1.13h.06s-.02,.06-.06,.06v-.06Zm5.28,2.52v.11h.06v-.11h-.06Zm3.55-9.68v.06h.06v-.06h-.06Zm.23-10.77h.02s.08,.04,.08,.08-.03,.06-.08,.06h-.02s-.06-.02-.06-.06c0-.05,.02-.08,.06-.08Zm.09,10.6v.11h.06v-.11h-.06Zm.06-1.5h.06v.21h-.06v-.21Zm.11-.34h.06v.08c-.05,.18-.09,.26-.11,.26v-.19s.06-.1,.06-.15Zm0-1.6v.19h.06v-.19h-.06Zm0,2.41h.06v.08s-.06-.02-.06-.06v-.02Zm.06-2.65v.13h.06v-.13h-.06Zm0,2.73s.06,.04,.06,.08v.08s-.06-.02-.06-.06v-.09Zm.11-1.79l.04,.06v.19s-.03,.06-.08,.06l-.02-.06v-.19s.02-.06,.06-.06Zm.04,1.77h.06v.26h-.04c-.08-.04-.11-.07-.11-.09h.09v-.17Zm-.09,2.33v.11h.09v-.11h-.09Zm.09-4.44h.06v.23h-.06v-.23Zm0,4.27v.06h.06v-.06h-.06Zm.02-2.63h.06v.06h-.06v-.06Zm.04,2.37v.11h.06v-.11h-.06Zm.75-10.84v.13h.06v.19l-.06,.08v.24h.06v.34c.03,.06,.07,.28,.13,.66,.03,0,.04,.01,.04,.04v.28l.06,.09v.88c.06,0,.09,.03,.09,.08v.68s-.03,.06-.09,.06v.7l-.06,.09v.39l-.06,.09v.06l.06,.09v.45l-.06,.09v.45l-.06,.09v.28l-.06,.09v.34l-.06,.09v.28s-.07,.16-.09,.38h-.06v.26s-.07,.15-.09,.3c-.03,.2-.05,.31-.08,.34v.43s-.09,.27-.15,.66h-.06v.32h-.06v.19h-.06v.3h-.06v.26h.06v.17h.06v-.17h-.06v-.26s.06,.03,.06,.06v.15h.06v-.26h.08v-.32s.08-.06,.09-.17c.11-.5,.17-.77,.17-.81,.03,0,.04,0,.04-.02v-.36s.02-.06,.08-.06v-.26s.1-.24,.15-.62c.02-.14,.06-.23,.09-.26v-.3l.06-.08v-.3l.06-.08v-.36s.03-.06,.09-.06v-.45l.06-.09v-1.26l.06-.09v-.54s.06-.08,.06-.09v-1.24l-.06-.09v-.66s-.07-.15-.09-.38c-.01,0-.02,0-.02-.02v-.24c-.06,0-.09-.02-.09-.06v-.28c-.04-.08-.09-.29-.15-.64-.05-.1-.08-.19-.08-.28h-.06Zm-.7,8.25h.06v.15h-.06v-.15Zm0,2.78v.13h.06v-.13h-.06Zm.02-2.99h.04s.06,.03,.06,.06v.04h-.04s-.06-.02-.06-.06v-.04Zm.09,.26h.06v.04h-.06v-.04Zm0,1.92s.06,.02,.06,.06v.19s-.06-.02-.06-.06v-.19Zm.11-10.9l.06,.09v.04h-.06s-.06-.02-.06-.06c0-.05,.02-.08,.06-.08Zm0,8.72l.02,.06s-.02,.06-.06,.06l-.02-.06s.02-.06,.06-.06Zm-.06,1.99h.02s.06,.03,.06,.06v.06h-.02s-.06-.02-.06-.06v-.06Zm.08-.23h.08v.09h-.08v-.09Zm.19-.98h.06v.11h-.06v-.11Zm.06-.38h.06v.06h-.06v-.06Zm.06-8.76v.13h.08v-.13h-.08Zm.06,8.46l.02,.08s-.02,.06-.06,.06l-.02-.06s.02-.08,.06-.08Zm.02-9.02v.11h.08v-.11h-.08Zm0,8.74h.08v.09h-.08v-.09Zm.08-.23h.06v.06h-.06v-.06Zm.06-8.57v.11h.11v-.04s-.03-.05-.09-.08h-.02Zm0,1.47h.06v.02s-.02,.08-.06,.08v-.09Zm0,6.73h.06v.06h-.06v-.06Zm.11-6.13h.06v.09h-.06v-.09Zm.06-2.07v.06h.06v-.06h-.06Zm0,6.95h.06v.06h-.06v-.06Zm.11-1.41l.04,.06s-.03,.06-.08,.06l-.02-.06s.02-.06,.06-.06Zm-.04-2.74h.04v.06h-.04v-.06Zm.13-2.74v.02s.03,.07,.08,.09h.04v-.11h-.11Zm.17-.7v.06l.06,.09h-.11v.06h.11s.03-.06,.08-.06v-.15h-.13Zm0,.26v.02s.02,.06,.08,.09h.06v-.11h-.13Zm0,.38v.06h.13v-.06h-.13Zm.21,.54v.08h.06v-.08h-.06Zm.06-.54v.06h.06v-.06h-.06Zm0,.68v.13h.06v-.13h-.06Zm.06,.25v.17s.02,.06,.08,.09h.04v-.09s-.06-.09-.06-.17h-.06Zm.06,.38v.26h.06v.49s.08,.02,.08,.06h.08v-.06h-.08v-.06l.08-.09v-.06s-.08-.08-.08-.09v-.19h-.08v-.08s.03-.06,.08-.06v-.13h-.13Zm.06,5.73v.19h.08v-.19h-.08Zm.08-1.18v.15c.05,.05,.08,.09,.08,.11h.06v-.11s-.06-.1-.06-.15h-.08Zm0,.7v.43h.08v-.43h-.08Zm.08-4.98v.11h.06v-.11h-.06Zm0,.68v.08h.06v-.08h-.06Zm0,2.99v.49s.06,.09,.06,.13h.06v-.17l-.06-.08v-.38h-.06Zm.06-5.49v.13h.06v-.13h-.06Zm0,2.26v.19h.06v-.19h-.06Zm0,2.48v.55s.06,.1,.06,.15h.06v-.3l-.06-.08v-.32h-.06Zm.06-2.05v.11h.06v-.11h-.06Zm.06,.75v.25l-.06,.09v.38l.06,.09-.06,.08v.15s.06,.11,.06,.21h.06v-1.24h-.06Zm.06-3.55v.11h.06v-.11h-.06Zm0,.43v.06h.06v-.06h-.06Zm0,.26v.08l.06,.09v.13c.08,0,.12,.19,.15,.56,0,.03,.02,.06,.06,.11v.39l.06,.09v.54l.06,.09v.55l.06,.08h-.06v.13h.06v-.13h.02s.06,.06,.06,.19h.08v-.36l-.08-.08,.08-.09v-.15l-.08-.08v-.3s-.08-.02-.08-.06v-.02s.03-.06,.08-.06v-.06s-.08-.02-.08-.06v-.3l-.06-.08v-.3l-.09-.17s.04-.07,.04-.09c-.06-.06-.11-.25-.15-.55-.06-.09-.11-.13-.15-.13h-.02Zm.13,1.73v.26h.08v-.26h-.08Zm.08,.56v.19h.06v-.19h-.06Zm0,4.47v.26h.06v-.26h-.06Zm.06-.36v.24h.06v-.24h-.06Zm.06-1.07v.88h.06v-.88h-.06Zm.19-2.24c0,.09-.03,.13-.08,.13v.13l-.06,.09v.23s.02,.04,.06,.09v.83l-.06,.09v.53s.06,.02,.06,.06h.08v-.06h-.08v-.38c0-.05,.03-.08,.08-.08v-1.43l.08-.09v-.15h-.08Z"/><path class="d" d="M80.52,101.21h.06v-.06h-.06v-.04c.1,0,.15-.04,.15-.11h.06v.15h-.06v.11h.06v-.11h.06v.17h.06c0-.08,.02-.11,.06-.11v.11h.06v-.11h.04c.11,.05,.17,.09,.17,.11v.21h.06v-.15s.02-.06,.06-.06h.06s.06,.02,.06,.06v.15h.06c.12-.14,.19-.21,.21-.21h.02c.08,.25,.14,.38,.21,.38h.06l.09-.06,.08,.06,.09-.06h.04c.08,.05,.11,.09,.11,.11l-.06,.09v.06h.11v-.15s.06-.09,.06-.11c.04,0,.06,.04,.06,.11h.06v-.09c.18-.01,.28-.04,.32-.08h.15s-.03,.06-.09,.06v.06h.11l.47-.17v-.06h-.06v.06h-.19l-.08,.06h-.17c0-.1-.05-.15-.15-.15v-.02c.15-.03,.23-.06,.23-.09,.29-.04,.57-.11,.85-.23h.17v-.06c.16-.02,.27-.06,.32-.09h.53l.08,.06h.06l.09-.06h.43s.06,.05,.06,.15h.32s.02,0,.02,.02c.23,.03,.35,.06,.38,.09h.3l.08,.06h.3l.07,.06h.15v.06h-.06v.09h.11v.06c-.08,0-.11,.02-.11,.06h-.06s-.06-.02-.06-.06h.06v-.06h-.06s-.04,.08-.11,.11l-.09-.06h-.23v.06c.26,.04,.41,.08,.45,.11,.05,0,.08-.04,.09-.11h.15l.24,.11h.21v.06c-.05,0-.1,.02-.15,.06h-.02l-.09-.06h-.13v.06c.08,0,.11,.03,.11,.09h.13c.16,.05,.27,.14,.32,.26,.16,0,.24,.04,.24,.11h.24c0,.08,.03,.11,.09,.11h.04v-.11h.11c.21,.09,.32,.14,.32,.17,0,.04-.02,.06-.06,.06h-.09l-.09-.06h-.19v.06c.24,.05,.38,.12,.43,.21,.01,0,.04-.01,.08-.04,.11,.05,.17,.11,.17,.17,.16,.08,.24,.14,.24,.19h.21v-.06h.06v.02c.11,.06,.17,.11,.17,.15h-.17v.02l.02,.06c.2,.1,.3,.18,.3,.24h.06c0-.1,.02-.15,.06-.15h.02l-.02,.15v.17h.02c.11,.08,.21,.11,.3,.11v.17c.25,.26,.38,.43,.38,.49,.11,0,.17,.1,.17,.3,.1,0,.19,.16,.28,.49,.03,.14,.09,.29,.21,.45l.23,.56c.03,.2,.08,.34,.15,.43v.17s.08,.02,.08,.06v.28s.02,.06,.06,.06c.05,.38,.09,.58,.13,.62v.28l.06,.09v.68l-.06,.09v.58l-.06,.08v.56s-.07,.13-.09,.34c-.01,.18-.05,.26-.11,.26v.21c-.19,.58-.31,.86-.38,.86v.13l-.23,.41c0,.08-.12,.29-.38,.64-.21,.23-.32,.36-.32,.39-.25,.14-.39,.28-.41,.41-.08,0-.17,.04-.28,.11l-.3,.23-.43,.15h-.13c0,.06-.11,.12-.32,.17-.21,.03-.33,.06-.36,.09h-1.03l-.08,.06h-.32l-.09-.06h-.71l-.09-.08h-.43l-.09-.06h-.28l-.09-.06h-.45s-.06-.03-.06-.08h-.43v.06s.05,.08,.08,.08l.09-.06h.11v.06h-.11v.06h.38v.08h.32v.06h.23l.09-.06h.06c.19,.08,.29,.11,.32,.11,.15,.01,.23,.06,.23,.13h.21l.19,.13h.15l.09-.08c.05,.05,.09,.08,.13,.08v.06h-1.15l-.09-.06h-.77l-.09-.08h-.11l-.08,.08h-.19c0-.06-.04-.11-.13-.15,0-.02-.1-.08-.3-.17h-.34v.06c.25,.03,.38,.07,.38,.13h.26s-.02,.06-.06,.06h-.26c-.05-.04-.09-.06-.11-.06-.15,0-.26-.04-.32-.13-.38-.04-.58-.08-.62-.11h-.34v.13h-.06v-.21c-.05,0-.1-.02-.15-.06h-.02v.26l.06,.09v1.64l-.06,.09v1.3l.06,.09v1.24l.06,.08v1.17l.06,.08v.43l-.06,.09v.28s-.01,.04-.04,.04c-.01,.19-.04,.28-.08,.28h-.15c0,.12-.02,.19-.06,.19s-.06-.02-.06-.08l.06-.08v-.04h-.15c-.08,.08-.13,.11-.17,.11v.08c.06,0,.11,0,.15,.02,0,.04-.02,.06-.06,.06h-.15s-.06-.02-.06-.08h-.11v.06c-.18,.03-.28,.05-.32,.08h-.28l-.09,.06h-.23l-.15,.04-.09-.11c-.11-.01-.17-.05-.17-.11h-.06c0,.05-.02,.08-.06,.08h-.06s-.06-.02-.06-.08h-.15c-.08-.06-.18-.11-.32-.15-.29-.04-.45-.09-.49-.15v-.13c-.08,0-.11-.03-.11-.08v-.3l.06-.09v-.28l.06-.09v-1.45l-.06-.08v-1l.06-.07v-.04l-.06-.08v-.06l.06-.09v-.15l-.06-.08v-.13l.06-.08v-.92s.03-.06,.09-.06v-1.3h-.06v-.08h.06v-6l.06-.09v-1.13l-.06-.08v-.7l.06-.09v-.23l-.06-.09v-1.37l.06-.09v-.98l.06-.09v-.6l.06-.09v-1.95c.08-.11,.11-.2,.11-.26,0-.02,.09-.06,.26-.11h.21l.08,.06,.09-.06h.06l.09,.06h.11v-.09h.02c.09,.05,.16,.15,.21,.3Zm-1.3,8.4v.26h.06v-.26h-.06Zm.17-8.29v.38h.09v-.38h-.09Zm.6-.43h-.06v-.06h.06v.06Zm.68,.11h-.11v-.06h.06s.04,.02,.06,.06Zm.28,.15v.06h-.06s-.04-.06-.11-.06c.04-.05,.06-.09,.06-.11h.06s.02,.06,.06,.11Zm-.06,4.96v.06s.08,.09,.23,.21h.09v-.17c-.11,0-.17-.03-.17-.09h-.15Zm.21-5.06h-.06v-.02h.06v.02Zm-.06,.9v.06h.06v-.06h-.06Zm0,.23v.09h.06v-.09h-.06Zm.06,5.64v1.03h.06v-1.03h-.06Zm.26-1.45h-.04v.17c.02,.06,.06,.09,.09,.09h.02c.06-.04,.09-.07,.09-.09v-.11c-.08,0-.13-.02-.17-.06Zm-.04,3.87v.17h.06v-.17h-.06Zm.06-.94v.13h.09v-.13h-.09Zm0,8.72v.06h.09v-.06h-.09Zm.09-8.04v1.62h.06v-1.62h-.06Zm.56-3.55l-.08,.06h-.32v.11c.04,.05,.06,.1,.06,.15h.06c0-.09,.01-.14,.04-.17,.04,0,.06,.04,.06,.11h.08c.09-.04,.16-.12,.21-.24v-.02h-.09Zm-.34,.38v.38l-.06,.08,.06,.09v.04l-.06,.08v.17l.06,.09v.58h.15v-.06c-.06,0-.09-.02-.09-.06v-1.39h-.06Zm0,3.5v.02l.06,.09v.08l-.06,.09v.06l.04,.15s-.04,0-.04,.02c.04,.05,.06,.11,.06,.19h.09v-.7h-.15Zm.06-.11v.06h.09v-.06h-.09Zm.11-8.81h-.08v-.06h.08v.06Zm-.02,10.22v1.07h.06v-1.07h-.06Zm0,2.69v2.42h.06v-2.42h-.06Zm0,2.5v2.24h.06v-2.24h-.06Zm.06,2.48v.32h.06v-.32h-.06Zm.06-4.92v.13c.09,0,.16,.02,.21,.06h.06v-.11c-.1,0-.15-.03-.15-.08h-.11Zm0,2.88v.11h.06v-.11h-.06Zm0,.56v.06h.06v-.06h-.06Zm.06-11.03v.06h.06v-.06h-.06Zm.11,5.98v.06h.09v-.06h-.09Zm0,1.94v.06h.09v-.06h-.09Zm4.21-11.52h-.32c-.16,.08-.26,.11-.28,.11-.43,.05-.71,.16-.86,.34-.11,.01-.17,.04-.17,.09h-.09c-.03,.1-.05,.15-.08,.15h-.04v-.09h-.06v.09h.06v.08c-.11,.06-.17,.11-.17,.15h-.11s-.03-.06-.09-.06v-.06s.11-.04,.21-.11v-.09h-.06c0,.06-.03,.11-.09,.15-.11,.04-.17,.11-.17,.23h-.06v-.06h-.06c-.01,.08-.15,.2-.41,.38-.14,.19-.23,.28-.26,.28-.08,.24-.16,.41-.24,.53h-.04v-.11h-.06v.11h.06v.08c-.04,.09-.09,.15-.17,.19v-.06h-.06c-.04,.11-.07,.17-.09,.17-.04,0-.11,.11-.21,.34-.03,.18-.05,.28-.08,.32l.06,.09v.88h-.06v-.88h-.04c-.05,.03-.08,.05-.08,.08v1.33l.06,.09v1.13l-.06,.08v.21l.06,.09v2.01l.06,.09v1.03l.06,.09-.11,.13v.17h.17v-2.33l-.06-.09v-2.33h.06v2.1l.06,.09v1.3l.06,.08v.94l-.06,.08v.32c.03,.06,.06,.09,.09,.09h.28v-.06h.06l.09,.13h.38l.08,.06h1.17v-.06h-1.02s-.06-.02-.06-.08h-.23v-.06h.23l.08,.06h1.01l.09-.06h.49s-.02,.06-.06,.06h-.38v.08h.58v-.06c.38-.06,.56-.11,.56-.13,.17,0,.29-.06,.36-.19h.17v-.06c.14-.01,.21-.07,.21-.17,.12-.04,.29-.18,.49-.43,.18-.04,.26-.11,.26-.21,.36-.39,.55-.66,.55-.83l.17-.21c.04-.19,.09-.28,.15-.28,.06-.38,.12-.56,.19-.56v-.24s.01-.04,.04-.04c.02-.23,.06-.35,.09-.38v-.39l.06-.09v-1.01l-.06-.08v-.41l-.06-.08v-.3l-.08-.08v-.21h-.06c-.01-.24-.04-.36-.08-.36-.08-.36-.15-.59-.23-.68v-.15c-.11,0-.2-.25-.26-.75-.14-.14-.21-.24-.21-.32-.19-.24-.28-.39-.28-.47-.18-.05-.26-.16-.26-.34-.2-.1-.31-.18-.32-.23v-.15c-.21-.06-.37-.14-.47-.23Zm-3.99,9.85s-.08,.05-.08,.08v.04h.11v-.11h-.04Zm-.02,.81v.06h.06v-.06h-.06Zm.17,2.27h-.06v-.26l-.06-.09,.06-.08v-.47h.06v.9Zm-.06,.92h-.06v-.75h.06v.75Zm0,1.01h-.06v-.09h.06v.09Zm0,.75h-.06v-.53h.06v.53Zm.06-12.42h-.06v-.06h.06v.06Zm1.62-2.18c-.09,.19-.18,.28-.26,.28,0,.08-.06,.11-.17,.11l.04,.15h-.08c-.09,.05-.19,.18-.3,.38-.23,.44-.36,.66-.41,.66-.04,.28-.08,.44-.11,.49v.17h-.06s-.04-.12-.11-.28h-.09v.06h-.06v-.17s.02-.06,.06-.06v.11h.06s.06-.02,.06-.06l.21-.53c.1-.01,.15-.04,.15-.08,.15-.28,.23-.43,.23-.47,.21-.2,.38-.38,.49-.53,.17-.11,.26-.21,.26-.28h.11v.04Zm-1.56-2.26v.06h.09v-.06h-.09Zm.09,3.99s-.02,.06-.06,.06h-.04v-.21h.09v.15Zm0,7.1l-.04,.06s-.06-.02-.06-.06l.04-.08s.04,.03,.06,.08Zm-.04-6.67h-.02v-.06h.02v.06Zm.15-.64s-.06,.02-.11,.06v-.11s.06-.04,.06-.11h.06v.17Zm.02,7.99h-.13v.06c.05,0,.09,.03,.13,.08h.09v-.04c-.02-.06-.06-.09-.09-.09Zm-.02-11.92s-.02,.06-.06,.06v.09h.06c0-.06,.04-.09,.11-.09v-.06h-.11Zm.06,11.26l.06,.09h-.11s-.06-.02-.06-.06v-.06s.02-.06,.06-.08h.08s0,.06-.02,.09Zm-.04-11.48h-.06v-.06h.06v.06Zm.3,11.52s-.02,.06-.06,.06h-.09s.04-.07,.11-.09h.04v.04Zm.11,.92v.08h.11v-.08h-.11Zm.21,.64v.06h.11v-.06h-.11Zm.17-13.23v.09h.06v-.09h-.06Zm.17,3.01s-.06-.02-.06-.06h.06v.06Zm.09-.06h-.09v-.06h.09v.06Zm.06-.06h-.06v-.06h.06v.06Zm0-3.06v.06h.38v-.06h-.38Zm.06,3.01h-.06v-.09h.06v.09Zm0,.49h-.04v-.06h.09s-.02,.06-.06,.06Zm.11-.11s-.02,.06-.06,.06v-.04s.02-.06,.06-.06v.04Zm1.01-.85v.04c-.19,.19-.33,.3-.43,.34h-.15c0,.12-.14,.27-.43,.43v-.06c.12-.15,.21-.23,.26-.23,.04,0,.09-.07,.17-.21h.15s-.01-.06-.04-.09c.08-.14,.2-.23,.38-.28h.04s.02,.06,.06,.06Zm-.96,.32s-.06-.02-.06-.06h.06v.06Zm0,.32s-.06-.02-.06-.06h.06v.06Zm-.06,9.91v.06h.15v-.06h-.15Zm.09-10.17h-.04v-.06h.09s-.02,.06-.06,.06Zm.06,.21h-.09s.02-.06,.06-.06h.04v.06Zm.06-.06h-.06s.02-.06,.06-.06v.06Zm.11-.15v.09h-.11v-.04s.06-.09,.06-.11c.03,0,.04,.02,.06,.06Zm-.06-.23v.06h.06v-.06h-.06Zm.06,10.96v.06h.06v-.06h-.06Zm.6-.32h-.17s.02-.04,.06-.06h.11v.06Zm.04-10.9h-.04s-.06-.02-.06-.06h.09v.06Zm.02-.06h-.02v-.06h.02v.06Zm.15,.11s-.02,.06-.06,.06h-.06s-.02-.06-.06-.06v-.06h.11s.02,.06,.06,.06Zm0-.06h-.06v-.04h.06v.04Zm.02,10.98h-.08s.02-.06,.06-.08h.02v.08Zm.13-10.92h-.15v-.06h.21s-.02,.06-.06,.06Zm.81,9.15v.02c-.05,.06-.16,.12-.32,.19h-.3l-.08,.06h-.21v-.06s.09-.07,.26-.09c.21,0,.39-.06,.54-.17h.02s.06,.02,.08,.06Zm-.75-9.27h-.13v-.06h.13v.06Zm.11,.06h-.11v-.06h.17s-.02,.06-.06,.06Zm0-2.63v.09h.11v-.09h-.11Zm0,.21v.06h.11v-.06h-.11Zm.11,13.57v.08h.06v-.08h-.06Zm.26-11.37s-.02,.06-.06,.06h-.15v-.04s.02-.06,.06-.06h.09l.06,.04Zm.23-.09s-.06,.02-.11,.06h-.04v-.02c.04-.06,.07-.09,.09-.09h.06v.06Zm0,11.47h-.06s.02-.06,.06-.06v.06Zm.58-2.16c-.09,0-.2,.04-.32,.11-.04,0-.06,.04-.06,.13h-.06l-.06-.02s.06-.1,.06-.15c0-.08,.09-.14,.28-.21h.15v.13Zm-.36-9.3h-.11v-.06h.11v.06Zm-.06,11.47h-.06v-.06h.06v.06Zm.47-2.35s-.02,.06-.06,.06v-.02s.02-.06,.06-.06v.02Zm0-.02v-.06h.06s-.02,.06-.06,.06Zm.26-.17c-.05,.08-.09,.11-.13,.11h-.08v-.06c.05-.08,.09-.11,.11-.11h.04s.04,.02,.06,.06Zm.38-.32s-.02,.06-.06,.06c0-.04-.05-.06-.15-.06,0-.04,.02-.06,.06-.06h.15v.06Zm-.06,.08l-.04,.06-.06-.02s.02-.06,.06-.06h.04v.02Zm0-10.3v.06h.06v-.06h-.06Zm.34,9.75h-.06v-.06h.06v.06Zm.06-.28h-.04v-.06h.04v.06Zm.26-9.3v.04s-.06,.02-.06,.06h-.06c0-.06-.02-.09-.06-.09,0-.04,.02-.06,.06-.06h.06s.04,.02,.06,.06Zm.34,.15h.15v.06c-.08,0-.11,.02-.11,.06h-.06l-.09-.06h-.23s-.02-.06-.06-.06v-.06s.06-.02,.06-.06h.08l.26,.11Zm.17,.17h-.08s-.06-.02-.06-.06h.08s.06,.02,.06,.06Zm.13,.06v.04h-.13v-.09h.08s.04,.02,.06,.06Zm.75,.38c.11,.06,.17,.11,.17,.15s-.02,.06-.06,.06h-.06c-.1-.08-.17-.11-.21-.11,.05-.05,.08-.09,.08-.11h.08v.02Zm.06,11.24v.06h.11v-.06h-.11Zm1.69-2.05h-.02v.24c-.05,.12-.08,.19-.09,.19-.23,.28-.34,.48-.34,.6-.08,.01-.11,.05-.11,.11-.17,.12-.26,.21-.26,.26-.09,.04-.21,.13-.38,.26-.15,.21-.26,.32-.32,.32v.06h.08v-.04c.14-.05,.21-.1,.21-.15,.31-.26,.47-.43,.47-.51,.25-.14,.38-.28,.38-.43h.06v.06h.08v-.06h-.08l.15-.21c.06,0,.12-.07,.17-.21l-.06-.08,.24-.19v-.11s-.06-.07-.17-.13Zm-1.09-8.61s-.06-.02-.06-.06h.08l-.02,.06Zm.38,.26s-.02,.06-.06,.06h-.04l.04-.11h.06v.06Zm.58,.71h-.06v-.02h.06v.02Zm.71,6.13h-.04c-.09,.19-.16,.39-.23,.6-.12,.46-.22,.7-.28,.7v.08h.13v-.17h.08v.17l-.08,.09v.09h.04s.08-.06,.15-.19c.05-.38,.11-.56,.19-.56v-.21l.13-.32v-.21s-.07-.08-.09-.08Zm-.47,1.73v.02h-.02l-.06-.02,.02-.06s.06,.02,.06,.06Zm.25-.73s-.02,.08-.06,.08v-.13h.06v.06Zm.06-6.32h-.06v-.02h.06v.02Zm.06,5.13v.08h.08v-.08h-.08Zm.06,.68h-.04v-.06h.04v.06Zm.02-1.13v.22c.09,.18,.13,.31,.13,.41h.06v-.24l-.11-.25v-.15h-.08Zm.08-.73v.19h.02c.06-.04,.09-.07,.09-.09v-.09h-.11Zm0,.24v.11l.06,.09v.17h.06v-.38h-.11Zm.06-1.13v.38h.06v-.38h-.06Zm0,.58v.17h.06v-.17h-.06Zm.06,1.24v.11h.06v-.11h-.06Zm.06-1.62v.6h.06v-.6h-.06Z"/></g></g><g id="c"/></svg>