<?xml version="1.0" encoding="UTF-8"?><svg xmlns="http://www.w3.org/2000/svg" viewBox="0 0 154.68 154.68"><defs><style>.d{fill:#f6aaff;}.e{fill:#f6deff;}</style></defs><g id="a"/><g id="b"><path class="d" d="M82.67,6.8l19.3,39.11c.86,1.75,2.54,2.97,4.47,3.25l43.16,6.27c4.87,.71,6.81,6.69,3.29,10.12l-31.23,30.44c-1.4,1.36-2.04,3.33-1.71,5.25l7.37,42.99c.83,4.85-4.26,8.55-8.61,6.26l-38.6-20.3c-1.73-.91-3.8-.91-5.52,0l-38.6,20.3c-4.35,2.29-9.44-1.41-8.61-6.26l7.37-42.99c.33-1.93-.31-3.89-1.71-5.25L1.8,65.56c-3.52-3.43-1.58-9.42,3.29-10.12l43.16-6.27c1.93-.28,3.6-1.5,4.47-3.25L72.02,6.8c2.18-4.41,8.47-4.41,10.65,0Z"/><path class="e" d="M141.79,57.81c-10.54,.29-21.04-.7-31.33-2.98-3.14-.7-4.47,4.12-1.33,4.82,10.71,2.38,21.69,3.45,32.66,3.16,3.21-.09,3.22-5.09,0-5h0Z"/><path class="e" d="M98.94,57.71c3.22,0,3.22-5,0-5s-3.22,5,0,5h0Z"/><path class="e" d="M92.82,42.94c-1.15-7.12-3.93-13.99-8.04-19.91-.77-1.11-2.19-1.62-3.42-.9-1.1,.64-1.67,2.31-.9,3.42,3.9,5.62,6.45,11.96,7.53,18.72,.21,1.33,1.88,2.08,3.08,1.75,1.42-.39,1.96-1.74,1.75-3.08h0Z"/></g><g id="c"/></svg>